# Frozen M4 display cutaway. World coordinates: Z up, metres.
v 25.1499996 18.301982 1.59200002
v 25.1499996 18.3099992 1.60000002
v 25.1499996 18.307651 1.59434317
v 25.1499996 18.301982 1.60800002
v 25.1499996 18.3099992 1.60000002
v 25.1499996 18.307651 1.60565688
v 25.172448 18.3005107 1.59200002
v 25.1734943 18.3084593 1.60000002
v 25.1731879 18.3061312 1.59434317
v 25.172448 18.3005107 1.60800002
v 25.1734943 18.3084593 1.60000002
v 25.1731879 18.3061312 1.60565688
v 25.1945121 18.2961218 1.59200002
v 25.196587 18.3038658 1.60000002
v 25.1959793 18.3015977 1.59434317
v 25.1945121 18.2961218 1.60800002
v 25.196587 18.3038658 1.60000002
v 25.1959793 18.3015977 1.60565688
v 25.2158146 18.2888906 1.59200002
v 25.2188826 18.2962975 1.60000002
v 25.217984 18.2941281 1.59434317
v 25.2158146 18.2888906 1.60800002
v 25.2188826 18.2962975 1.60000002
v 25.217984 18.2941281 1.60565688
v 25.235991 18.2789407 1.59200002
v 25.2399996 18.2858837 1.60000002
v 25.2388255 18.2838502 1.59434317
v 25.235991 18.2789407 1.60800002
v 25.2399996 18.2858837 1.60000002
v 25.2388255 18.2838502 1.60565688
v 25.2546961 18.2664423 1.59200002
v 25.2595767 18.2728028 1.60000002
v 25.2581472 18.2709398 1.59434317
v 25.2546961 18.2664423 1.60800002
v 25.2595767 18.2728028 1.60000002
v 25.2581472 18.2709398 1.60565688
v 25.2716099 18.2516094 1.59200002
v 25.2772788 18.2572784 1.60000002
v 25.2756184 18.255618 1.59434317
v 25.2716099 18.2516094 1.60800002
v 25.2772788 18.2572784 1.60000002
v 25.2756184 18.255618 1.60565688
v 25.2864428 18.2346957 1.59200002
v 25.2928032 18.2395762 1.60000002
v 25.2909403 18.2381467 1.59434317
v 25.2864428 18.2346957 1.60800002
v 25.2928032 18.2395762 1.60000002
v 25.2909403 18.2381467 1.60565688
v 25.2989411 18.2159906 1.59200002
v 25.3058842 18.2199992 1.60000002
v 25.3038506 18.2188251 1.59434317
v 25.2989411 18.2159906 1.60800002
v 25.3058842 18.2199992 1.60000002
v 25.3038506 18.2188251 1.60565688
v 25.3088911 18.1958141 1.59200002
v 25.3162979 18.1988822 1.60000002
v 25.3141285 18.1979836 1.59434317
v 25.3088911 18.1958141 1.60800002
v 25.3162979 18.1988822 1.60000002
v 25.3141285 18.1979836 1.60565688
v 25.3161223 18.1745116 1.59200002
v 25.3238663 18.1765866 1.60000002
v 25.3215981 18.1759788 1.59434317
v 25.3161223 18.1745116 1.60800002
v 25.3238663 18.1765866 1.60000002
v 25.3215981 18.1759788 1.60565688
v 25.3205111 18.1524475 1.59200002
v 25.3284597 18.1534939 1.60000002
v 25.3261316 18.1531874 1.59434317
v 25.3205111 18.1524475 1.60800002
v 25.3284597 18.1534939 1.60000002
v 25.3261316 18.1531874 1.60565688
v 25.3219825 18.1299992 1.59200002
v 25.3299996 18.1299992 1.60000002
v 25.3276514 18.1299992 1.59434317
v 25.3219825 18.1299992 1.60800002
v 25.3299996 18.1299992 1.60000002
v 25.3276514 18.1299992 1.60565688
v 25.3205111 18.1075508 1.59200002
v 25.3284597 18.1065044 1.60000002
v 25.3261316 18.1068109 1.59434317
v 25.3205111 18.1075508 1.60800002
v 25.3284597 18.1065044 1.60000002
v 25.3261316 18.1068109 1.60565688
v 25.3161223 18.0854867 1.59200002
v 25.3238663 18.0834117 1.60000002
v 25.3215981 18.0840195 1.59434317
v 25.3161223 18.0854867 1.60800002
v 25.3238663 18.0834117 1.60000002
v 25.3215981 18.0840195 1.60565688
v 25.3088911 18.0641842 1.59200002
v 25.3162979 18.0611161 1.60000002
v 25.3141285 18.0620148 1.59434317
v 25.3088911 18.0641842 1.60800002
v 25.3162979 18.0611161 1.60000002
v 25.3141285 18.0620148 1.60565688
v 25.2989411 18.0440077 1.59200002
v 25.3058842 18.0399992 1.60000002
v 25.3038506 18.0411732 1.59434317
v 25.2989411 18.0440077 1.60800002
v 25.3058842 18.0399992 1.60000002
v 25.3038506 18.0411732 1.60565688
v 25.2864428 18.0253026 1.59200002
v 25.2928032 18.0204221 1.60000002
v 25.2909403 18.0218516 1.59434317
v 25.2864428 18.0253026 1.60800002
v 25.2928032 18.0204221 1.60000002
v 25.2909403 18.0218516 1.60565688
v 25.2716099 18.0083889 1.59200002
v 25.2772788 18.0027199 1.60000002
v 25.2756184 18.0043804 1.59434317
v 25.2716099 18.0083889 1.60800002
v 25.2772788 18.0027199 1.60000002
v 25.2756184 18.0043804 1.60565688
v 25.2546961 17.993556 1.59200002
v 25.2595767 17.9871956 1.60000002
v 25.2581472 17.9890585 1.59434317
v 25.2546961 17.993556 1.60800002
v 25.2595767 17.9871956 1.60000002
v 25.2581472 17.9890585 1.60565688
v 25.235991 17.9810577 1.59200002
v 25.2399996 17.9741146 1.60000002
v 25.2388255 17.9761482 1.59434317
v 25.235991 17.9810577 1.60800002
v 25.2399996 17.9741146 1.60000002
v 25.2388255 17.9761482 1.60565688
v 25.2158146 17.9711077 1.59200002
v 25.2188826 17.9637008 1.60000002
v 25.217984 17.9658703 1.59434317
v 25.2158146 17.9711077 1.60800002
v 25.2188826 17.9637008 1.60000002
v 25.217984 17.9658703 1.60565688
v 25.1945121 17.9638765 1.59200002
v 25.196587 17.9561325 1.60000002
v 25.1959793 17.9584007 1.59434317
v 25.1945121 17.9638765 1.60800002
v 25.196587 17.9561325 1.60000002
v 25.1959793 17.9584007 1.60565688
v 25.172448 17.9594877 1.59200002
v 25.1734943 17.9515391 1.60000002
v 25.1731879 17.9538671 1.59434317
v 25.172448 17.9594877 1.60800002
v 25.1734943 17.9515391 1.60000002
v 25.1731879 17.9538671 1.60565688
v 25.1499996 17.9580163 1.59200002
v 25.1499996 17.9499992 1.60000002
v 25.1499996 17.9523473 1.59434317
v 25.1499996 17.9580163 1.60800002
v 25.1499996 17.9499992 1.60000002
v 25.1499996 17.9523473 1.60565688
v 25.1275513 17.9594877 1.59200002
v 25.1265049 17.9515391 1.60000002
v 25.1268114 17.9538671 1.59434317
v 25.1275513 17.9594877 1.60800002
v 25.1265049 17.9515391 1.60000002
v 25.1268114 17.9538671 1.60565688
v 25.1054872 17.9638765 1.59200002
v 25.1034122 17.9561325 1.60000002
v 25.1040199 17.9584007 1.59434317
v 25.1054872 17.9638765 1.60800002
v 25.1034122 17.9561325 1.60000002
v 25.1040199 17.9584007 1.60565688
v 25.0841847 17.9711077 1.59200002
v 25.0811166 17.9637008 1.60000002
v 25.0820152 17.9658703 1.59434317
v 25.0841847 17.9711077 1.60800002
v 25.0811166 17.9637008 1.60000002
v 25.0820152 17.9658703 1.60565688
v 25.0640082 17.9810577 1.59200002
v 25.0599996 17.9741146 1.60000002
v 25.0611737 17.9761482 1.59434317
v 25.0640082 17.9810577 1.60800002
v 25.0599996 17.9741146 1.60000002
v 25.0611737 17.9761482 1.60565688
v 25.0453031 17.993556 1.59200002
v 25.0404226 17.9871956 1.60000002
v 25.041852 17.9890585 1.59434317
v 25.0453031 17.993556 1.60800002
v 25.0404226 17.9871956 1.60000002
v 25.041852 17.9890585 1.60565688
v 25.0283894 18.0083889 1.59200002
v 25.0227204 18.0027199 1.60000002
v 25.0243808 18.0043804 1.59434317
v 25.0283894 18.0083889 1.60800002
v 25.0227204 18.0027199 1.60000002
v 25.0243808 18.0043804 1.60565688
v 25.0135565 18.0253026 1.59200002
v 25.007196 18.0204221 1.60000002
v 25.009059 18.0218516 1.59434317
v 25.0135565 18.0253026 1.60800002
v 25.007196 18.0204221 1.60000002
v 25.009059 18.0218516 1.60565688
v 25.0010581 18.0440077 1.59200002
v 24.994115 18.0399992 1.60000002
v 24.9961486 18.0411732 1.59434317
v 25.0010581 18.0440077 1.60800002
v 24.994115 18.0399992 1.60000002
v 24.9961486 18.0411732 1.60565688
v 24.9911082 18.0641842 1.59200002
v 24.9837013 18.0611161 1.60000002
v 24.9858707 18.0620148 1.59434317
v 24.9911082 18.0641842 1.60800002
v 24.9837013 18.0611161 1.60000002
v 24.9858707 18.0620148 1.60565688
v 24.9838769 18.0854867 1.59200002
v 24.976133 18.0834117 1.60000002
v 24.9784011 18.0840195 1.59434317
v 24.9838769 18.0854867 1.60800002
v 24.976133 18.0834117 1.60000002
v 24.9784011 18.0840195 1.60565688
v 24.9794881 18.1075508 1.59200002
v 24.9715395 18.1065044 1.60000002
v 24.9738676 18.1068109 1.59434317
v 24.9794881 18.1075508 1.60800002
v 24.9715395 18.1065044 1.60000002
v 24.9738676 18.1068109 1.60565688
v 24.9780168 18.1299992 1.59200002
v 24.9699996 18.1299992 1.60000002
v 24.9723478 18.1299992 1.59434317
v 24.9780168 18.1299992 1.60800002
v 24.9699996 18.1299992 1.60000002
v 24.9723478 18.1299992 1.60565688
v 24.9794881 18.1524475 1.59200002
v 24.9715395 18.1534939 1.60000002
v 24.9738676 18.1531874 1.59434317
v 24.9794881 18.1524475 1.60800002
v 24.9715395 18.1534939 1.60000002
v 24.9738676 18.1531874 1.60565688
v 24.9838769 18.1745116 1.59200002
v 24.976133 18.1765866 1.60000002
v 24.9784011 18.1759788 1.59434317
v 24.9838769 18.1745116 1.60800002
v 24.976133 18.1765866 1.60000002
v 24.9784011 18.1759788 1.60565688
v 24.9911082 18.1958141 1.59200002
v 24.9837013 18.1988822 1.60000002
v 24.9858707 18.1979836 1.59434317
v 24.9911082 18.1958141 1.60800002
v 24.9837013 18.1988822 1.60000002
v 24.9858707 18.1979836 1.60565688
v 25.0010581 18.2159906 1.59200002
v 24.994115 18.2199992 1.60000002
v 24.9961486 18.2188251 1.59434317
v 25.0010581 18.2159906 1.60800002
v 24.994115 18.2199992 1.60000002
v 24.9961486 18.2188251 1.60565688
v 25.0135565 18.2346957 1.59200002
v 25.007196 18.2395762 1.60000002
v 25.009059 18.2381467 1.59434317
v 25.0135565 18.2346957 1.60800002
v 25.007196 18.2395762 1.60000002
v 25.009059 18.2381467 1.60565688
v 25.0283894 18.2516094 1.59200002
v 25.0227204 18.2572784 1.60000002
v 25.0243808 18.255618 1.59434317
v 25.0283894 18.2516094 1.60800002
v 25.0227204 18.2572784 1.60000002
v 25.0243808 18.255618 1.60565688
v 25.0453031 18.2664423 1.59200002
v 25.0404226 18.2728028 1.60000002
v 25.041852 18.2709398 1.59434317
v 25.0453031 18.2664423 1.60800002
v 25.0404226 18.2728028 1.60000002
v 25.041852 18.2709398 1.60565688
v 25.0640082 18.2789407 1.59200002
v 25.0599996 18.2858837 1.60000002
v 25.0611737 18.2838502 1.59434317
v 25.0640082 18.2789407 1.60800002
v 25.0599996 18.2858837 1.60000002
v 25.0611737 18.2838502 1.60565688
v 25.0841847 18.2888906 1.59200002
v 25.0811166 18.2962975 1.60000002
v 25.0820152 18.2941281 1.59434317
v 25.0841847 18.2888906 1.60800002
v 25.0811166 18.2962975 1.60000002
v 25.0820152 18.2941281 1.60565688
v 25.1054872 18.2961218 1.59200002
v 25.1034122 18.3038658 1.60000002
v 25.1040199 18.3015977 1.59434317
v 25.1054872 18.2961218 1.60800002
v 25.1034122 18.3038658 1.60000002
v 25.1040199 18.3015977 1.60565688
v 25.1275513 18.3005107 1.59200002
v 25.1265049 18.3084593 1.60000002
v 25.1268114 18.3061312 1.59434317
v 25.1275513 18.3005107 1.60800002
v 25.1265049 18.3084593 1.60000002
v 25.1268114 18.3061312 1.60565688
v 18.7999992 17.9719821 1.59200002
v 18.7999992 17.9799992 1.60000002
v 18.7999992 17.9776511 1.59434317
v 18.7999992 17.9719821 1.60800002
v 18.7999992 17.9799992 1.60000002
v 18.7999992 17.9776511 1.60565688
v 18.8224476 17.9705107 1.59200002
v 18.823494 17.9784593 1.60000002
v 18.8231875 17.9761313 1.59434317
v 18.8224476 17.9705107 1.60800002
v 18.823494 17.9784593 1.60000002
v 18.8231875 17.9761313 1.60565688
v 18.8445117 17.9661219 1.59200002
v 18.8465867 17.9738659 1.60000002
v 18.8459789 17.9715977 1.59434317
v 18.8445117 17.9661219 1.60800002
v 18.8465867 17.9738659 1.60000002
v 18.8459789 17.9715977 1.60565688
v 18.8658142 17.9588907 1.59200002
v 18.8688823 17.9662976 1.60000002
v 18.8679836 17.9641281 1.59434317
v 18.8658142 17.9588907 1.60800002
v 18.8688823 17.9662976 1.60000002
v 18.8679836 17.9641281 1.60565688
v 18.8859907 17.9489407 1.59200002
v 18.8899992 17.9558838 1.60000002
v 18.8888252 17.9538502 1.59434317
v 18.8859907 17.9489407 1.60800002
v 18.8899992 17.9558838 1.60000002
v 18.8888252 17.9538502 1.60565688
v 18.9046958 17.9364424 1.59200002
v 18.9095763 17.9428028 1.60000002
v 18.9081468 17.9409399 1.59434317
v 18.9046958 17.9364424 1.60800002
v 18.9095763 17.9428028 1.60000002
v 18.9081468 17.9409399 1.60565688
v 18.9216095 17.9216095 1.59200002
v 18.9272785 17.9272785 1.60000002
v 18.925618 17.925618 1.59434317
v 18.9216095 17.9216095 1.60800002
v 18.9272785 17.9272785 1.60000002
v 18.925618 17.925618 1.60565688
v 18.9364424 17.9046958 1.59200002
v 18.9428028 17.9095763 1.60000002
v 18.9409399 17.9081468 1.59434317
v 18.9364424 17.9046958 1.60800002
v 18.9428028 17.9095763 1.60000002
v 18.9409399 17.9081468 1.60565688
v 18.9489407 17.8859907 1.59200002
v 18.9558838 17.8899992 1.60000002
v 18.9538502 17.8888252 1.59434317
v 18.9489407 17.8859907 1.60800002
v 18.9558838 17.8899992 1.60000002
v 18.9538502 17.8888252 1.60565688
v 18.9588907 17.8658142 1.59200002
v 18.9662976 17.8688823 1.60000002
v 18.9641281 17.8679836 1.59434317
v 18.9588907 17.8658142 1.60800002
v 18.9662976 17.8688823 1.60000002
v 18.9641281 17.8679836 1.60565688
v 18.9661219 17.8445117 1.59200002
v 18.9738659 17.8465867 1.60000002
v 18.9715977 17.8459789 1.59434317
v 18.9661219 17.8445117 1.60800002
v 18.9738659 17.8465867 1.60000002
v 18.9715977 17.8459789 1.60565688
v 18.9705107 17.8224476 1.59200002
v 18.9784593 17.823494 1.60000002
v 18.9761313 17.8231875 1.59434317
v 18.9705107 17.8224476 1.60800002
v 18.9784593 17.823494 1.60000002
v 18.9761313 17.8231875 1.60565688
v 18.9719821 17.7999992 1.59200002
v 18.9799992 17.7999992 1.60000002
v 18.9776511 17.7999992 1.59434317
v 18.9719821 17.7999992 1.60800002
v 18.9799992 17.7999992 1.60000002
v 18.9776511 17.7999992 1.60565688
v 18.9705107 17.7775509 1.59200002
v 18.9784593 17.7765045 1.60000002
v 18.9761313 17.776811 1.59434317
v 18.9705107 17.7775509 1.60800002
v 18.9784593 17.7765045 1.60000002
v 18.9761313 17.776811 1.60565688
v 18.9661219 17.7554868 1.59200002
v 18.9738659 17.7534118 1.60000002
v 18.9715977 17.7540196 1.59434317
v 18.9661219 17.7554868 1.60800002
v 18.9738659 17.7534118 1.60000002
v 18.9715977 17.7540196 1.60565688
v 18.9588907 17.7341843 1.59200002
v 18.9662976 17.7311162 1.60000002
v 18.9641281 17.7320148 1.59434317
v 18.9588907 17.7341843 1.60800002
v 18.9662976 17.7311162 1.60000002
v 18.9641281 17.7320148 1.60565688
v 18.9489407 17.7140078 1.59200002
v 18.9558838 17.7099992 1.60000002
v 18.9538502 17.7111733 1.59434317
v 18.9489407 17.7140078 1.60800002
v 18.9558838 17.7099992 1.60000002
v 18.9538502 17.7111733 1.60565688
v 18.9364424 17.6953027 1.59200002
v 18.9428028 17.6904222 1.60000002
v 18.9409399 17.6918517 1.59434317
v 18.9364424 17.6953027 1.60800002
v 18.9428028 17.6904222 1.60000002
v 18.9409399 17.6918517 1.60565688
v 18.9216095 17.678389 1.59200002
v 18.9272785 17.67272 1.60000002
v 18.925618 17.6743804 1.59434317
v 18.9216095 17.678389 1.60800002
v 18.9272785 17.67272 1.60000002
v 18.925618 17.6743804 1.60565688
v 18.9046958 17.6635561 1.59200002
v 18.9095763 17.6571956 1.60000002
v 18.9081468 17.6590586 1.59434317
v 18.9046958 17.6635561 1.60800002
v 18.9095763 17.6571956 1.60000002
v 18.9081468 17.6590586 1.60565688
v 18.8859907 17.6510577 1.59200002
v 18.8899992 17.6441147 1.60000002
v 18.8888252 17.6461482 1.59434317
v 18.8859907 17.6510577 1.60800002
v 18.8899992 17.6441147 1.60000002
v 18.8888252 17.6461482 1.60565688
v 18.8658142 17.6411078 1.59200002
v 18.8688823 17.6337009 1.60000002
v 18.8679836 17.6358703 1.59434317
v 18.8658142 17.6411078 1.60800002
v 18.8688823 17.6337009 1.60000002
v 18.8679836 17.6358703 1.60565688
v 18.8445117 17.6338766 1.59200002
v 18.8465867 17.6261326 1.60000002
v 18.8459789 17.6284007 1.59434317
v 18.8445117 17.6338766 1.60800002
v 18.8465867 17.6261326 1.60000002
v 18.8459789 17.6284007 1.60565688
v 18.8224476 17.6294877 1.59200002
v 18.823494 17.6215391 1.60000002
v 18.8231875 17.6238672 1.59434317
v 18.8224476 17.6294877 1.60800002
v 18.823494 17.6215391 1.60000002
v 18.8231875 17.6238672 1.60565688
v 18.7999992 17.6280164 1.59200002
v 18.7999992 17.6199992 1.60000002
v 18.7999992 17.6223474 1.59434317
v 18.7999992 17.6280164 1.60800002
v 18.7999992 17.6199992 1.60000002
v 18.7999992 17.6223474 1.60565688
v 18.7775509 17.6294877 1.59200002
v 18.7765045 17.6215391 1.60000002
v 18.776811 17.6238672 1.59434317
v 18.7775509 17.6294877 1.60800002
v 18.7765045 17.6215391 1.60000002
v 18.776811 17.6238672 1.60565688
v 18.7554868 17.6338766 1.59200002
v 18.7534118 17.6261326 1.60000002
v 18.7540196 17.6284007 1.59434317
v 18.7554868 17.6338766 1.60800002
v 18.7534118 17.6261326 1.60000002
v 18.7540196 17.6284007 1.60565688
v 18.7341843 17.6411078 1.59200002
v 18.7311162 17.6337009 1.60000002
v 18.7320148 17.6358703 1.59434317
v 18.7341843 17.6411078 1.60800002
v 18.7311162 17.6337009 1.60000002
v 18.7320148 17.6358703 1.60565688
v 18.7140078 17.6510577 1.59200002
v 18.7099992 17.6441147 1.60000002
v 18.7111733 17.6461482 1.59434317
v 18.7140078 17.6510577 1.60800002
v 18.7099992 17.6441147 1.60000002
v 18.7111733 17.6461482 1.60565688
v 18.6953027 17.6635561 1.59200002
v 18.6904222 17.6571956 1.60000002
v 18.6918517 17.6590586 1.59434317
v 18.6953027 17.6635561 1.60800002
v 18.6904222 17.6571956 1.60000002
v 18.6918517 17.6590586 1.60565688
v 18.678389 17.678389 1.59200002
v 18.67272 17.67272 1.60000002
v 18.6743804 17.6743804 1.59434317
v 18.678389 17.678389 1.60800002
v 18.67272 17.67272 1.60000002
v 18.6743804 17.6743804 1.60565688
v 18.6635561 17.6953027 1.59200002
v 18.6571956 17.6904222 1.60000002
v 18.6590586 17.6918517 1.59434317
v 18.6635561 17.6953027 1.60800002
v 18.6571956 17.6904222 1.60000002
v 18.6590586 17.6918517 1.60565688
v 18.6510577 17.7140078 1.59200002
v 18.6441147 17.7099992 1.60000002
v 18.6461482 17.7111733 1.59434317
v 18.6510577 17.7140078 1.60800002
v 18.6441147 17.7099992 1.60000002
v 18.6461482 17.7111733 1.60565688
v 18.6411078 17.7341843 1.59200002
v 18.6337009 17.7311162 1.60000002
v 18.6358703 17.7320148 1.59434317
v 18.6411078 17.7341843 1.60800002
v 18.6337009 17.7311162 1.60000002
v 18.6358703 17.7320148 1.60565688
v 18.6338766 17.7554868 1.59200002
v 18.6261326 17.7534118 1.60000002
v 18.6284007 17.7540196 1.59434317
v 18.6338766 17.7554868 1.60800002
v 18.6261326 17.7534118 1.60000002
v 18.6284007 17.7540196 1.60565688
v 18.6294877 17.7775509 1.59200002
v 18.6215391 17.7765045 1.60000002
v 18.6238672 17.776811 1.59434317
v 18.6294877 17.7775509 1.60800002
v 18.6215391 17.7765045 1.60000002
v 18.6238672 17.776811 1.60565688
v 18.6280164 17.7999992 1.59200002
v 18.6199992 17.7999992 1.60000002
v 18.6223474 17.7999992 1.59434317
v 18.6280164 17.7999992 1.60800002
v 18.6199992 17.7999992 1.60000002
v 18.6223474 17.7999992 1.60565688
v 18.6294877 17.8224476 1.59200002
v 18.6215391 17.823494 1.60000002
v 18.6238672 17.8231875 1.59434317
v 18.6294877 17.8224476 1.60800002
v 18.6215391 17.823494 1.60000002
v 18.6238672 17.8231875 1.60565688
v 18.6338766 17.8445117 1.59200002
v 18.6261326 17.8465867 1.60000002
v 18.6284007 17.8459789 1.59434317
v 18.6338766 17.8445117 1.60800002
v 18.6261326 17.8465867 1.60000002
v 18.6284007 17.8459789 1.60565688
v 18.6411078 17.8658142 1.59200002
v 18.6337009 17.8688823 1.60000002
v 18.6358703 17.8679836 1.59434317
v 18.6411078 17.8658142 1.60800002
v 18.6337009 17.8688823 1.60000002
v 18.6358703 17.8679836 1.60565688
v 18.6510577 17.8859907 1.59200002
v 18.6441147 17.8899992 1.60000002
v 18.6461482 17.8888252 1.59434317
v 18.6510577 17.8859907 1.60800002
v 18.6441147 17.8899992 1.60000002
v 18.6461482 17.8888252 1.60565688
v 18.6635561 17.9046958 1.59200002
v 18.6571956 17.9095763 1.60000002
v 18.6590586 17.9081468 1.59434317
v 18.6635561 17.9046958 1.60800002
v 18.6571956 17.9095763 1.60000002
v 18.6590586 17.9081468 1.60565688
v 18.678389 17.9216095 1.59200002
v 18.67272 17.9272785 1.60000002
v 18.6743804 17.925618 1.59434317
v 18.678389 17.9216095 1.60800002
v 18.67272 17.9272785 1.60000002
v 18.6743804 17.925618 1.60565688
v 18.6953027 17.9364424 1.59200002
v 18.6904222 17.9428028 1.60000002
v 18.6918517 17.9409399 1.59434317
v 18.6953027 17.9364424 1.60800002
v 18.6904222 17.9428028 1.60000002
v 18.6918517 17.9409399 1.60565688
v 18.7140078 17.9489407 1.59200002
v 18.7099992 17.9558838 1.60000002
v 18.7111733 17.9538502 1.59434317
v 18.7140078 17.9489407 1.60800002
v 18.7099992 17.9558838 1.60000002
v 18.7111733 17.9538502 1.60565688
v 18.7341843 17.9588907 1.59200002
v 18.7311162 17.9662976 1.60000002
v 18.7320148 17.9641281 1.59434317
v 18.7341843 17.9588907 1.60800002
v 18.7311162 17.9662976 1.60000002
v 18.7320148 17.9641281 1.60565688
v 18.7554868 17.9661219 1.59200002
v 18.7534118 17.9738659 1.60000002
v 18.7540196 17.9715977 1.59434317
v 18.7554868 17.9661219 1.60800002
v 18.7534118 17.9738659 1.60000002
v 18.7540196 17.9715977 1.60565688
v 18.7775509 17.9705107 1.59200002
v 18.7765045 17.9784593 1.60000002
v 18.776811 17.9761313 1.59434317
v 18.7775509 17.9705107 1.60800002
v 18.7765045 17.9784593 1.60000002
v 18.776811 17.9761313 1.60565688
v 9.80000019 20.1719828 1.59200002
v 9.80000019 20.18 1.60000002
v 9.80000019 20.1776518 1.59434317
v 9.80000019 20.1719828 1.60800002
v 9.80000019 20.18 1.60000002
v 9.80000019 20.1776518 1.60565688
v 9.82244853 20.1705115 1.59200002
v 9.82349491 20.1784601 1.60000002
v 9.82318843 20.176132 1.59434317
v 9.82244853 20.1705115 1.60800002
v 9.82349491 20.1784601 1.60000002
v 9.82318843 20.176132 1.60565688
v 9.84451263 20.1661227 1.59200002
v 9.84658762 20.1738667 1.60000002
v 9.84597987 20.1715985 1.59434317
v 9.84451263 20.1661227 1.60800002
v 9.84658762 20.1738667 1.60000002
v 9.84597987 20.1715985 1.60565688
v 9.86581514 20.1588914 1.59200002
v 9.86888321 20.1662983 1.60000002
v 9.8679846 20.1641289 1.59434317
v 9.86581514 20.1588914 1.60800002
v 9.86888321 20.1662983 1.60000002
v 9.8679846 20.1641289 1.60565688
v 9.88599161 20.1489415 1.59200002
v 9.89000019 20.1558846 1.60000002
v 9.88882611 20.153851 1.59434317
v 9.88599161 20.1489415 1.60800002
v 9.89000019 20.1558846 1.60000002
v 9.88882611 20.153851 1.60565688
v 9.90469672 20.1364432 1.59200002
v 9.90957725 20.1428036 1.60000002
v 9.90814777 20.1409407 1.59434317
v 9.90469672 20.1364432 1.60800002
v 9.90957725 20.1428036 1.60000002
v 9.90814777 20.1409407 1.60565688
v 9.92161042 20.1216102 1.59200002
v 9.92727941 20.1272792 1.60000002
v 9.92561899 20.1256188 1.59434317
v 9.92161042 20.1216102 1.60800002
v 9.92727941 20.1272792 1.60000002
v 9.92561899 20.1256188 1.60565688
v 9.93644334 20.1046965 1.59200002
v 9.9428038 20.1095771 1.60000002
v 9.94094086 20.1081476 1.59434317
v 9.93644334 20.1046965 1.60800002
v 9.9428038 20.1095771 1.60000002
v 9.94094086 20.1081476 1.60565688
v 9.94894169 20.0859914 1.59200002
v 9.95588477 20.09 1.60000002
v 9.95385119 20.0888259 1.59434317
v 9.94894169 20.0859914 1.60800002
v 9.95588477 20.09 1.60000002
v 9.95385119 20.0888259 1.60565688
v 9.95889163 20.0658149 1.59200002
v 9.96629851 20.068883 1.60000002
v 9.96412909 20.0679844 1.59434317
v 9.95889163 20.0658149 1.60800002
v 9.96629851 20.068883 1.60000002
v 9.96412909 20.0679844 1.60565688
v 9.96612287 20.0445124 1.59200002
v 9.97386685 20.0465874 1.60000002
v 9.97159868 20.0459797 1.59434317
v 9.96612287 20.0445124 1.60800002
v 9.97386685 20.0465874 1.60000002
v 9.97159868 20.0459797 1.60565688
v 9.97051169 20.0224483 1.59200002
v 9.97846028 20.0234947 1.60000002
v 9.97613221 20.0231882 1.59434317
v 9.97051169 20.0224483 1.60800002
v 9.97846028 20.0234947 1.60000002
v 9.97613221 20.0231882 1.60565688
v 9.97198303 20 1.59200002
v 9.9800002 20 1.60000002
v 9.97765201 20 1.59434317
v 9.97198303 20 1.60800002
v 9.9800002 20 1.60000002
v 9.97765201 20 1.60565688
v 9.97051169 19.9775517 1.59200002
v 9.97846028 19.9765053 1.60000002
v 9.97613221 19.9768118 1.59434317
v 9.97051169 19.9775517 1.60800002
v 9.97846028 19.9765053 1.60000002
v 9.97613221 19.9768118 1.60565688
v 9.96612287 19.9554876 1.59200002
v 9.97386685 19.9534126 1.60000002
v 9.97159868 19.9540203 1.59434317
v 9.96612287 19.9554876 1.60800002
v 9.97386685 19.9534126 1.60000002
v 9.97159868 19.9540203 1.60565688
v 9.95889163 19.9341851 1.59200002
v 9.96629851 19.931117 1.60000002
v 9.96412909 19.9320156 1.59434317
v 9.95889163 19.9341851 1.60800002
v 9.96629851 19.931117 1.60000002
v 9.96412909 19.9320156 1.60565688
v 9.94894169 19.9140086 1.59200002
v 9.95588477 19.91 1.60000002
v 9.95385119 19.9111741 1.59434317
v 9.94894169 19.9140086 1.60800002
v 9.95588477 19.91 1.60000002
v 9.95385119 19.9111741 1.60565688
v 9.93644334 19.8953035 1.59200002
v 9.9428038 19.8904229 1.60000002
v 9.94094086 19.8918524 1.59434317
v 9.93644334 19.8953035 1.60800002
v 9.9428038 19.8904229 1.60000002
v 9.94094086 19.8918524 1.60565688
v 9.92161042 19.8783898 1.59200002
v 9.92727941 19.8727208 1.60000002
v 9.92561899 19.8743812 1.59434317
v 9.92161042 19.8783898 1.60800002
v 9.92727941 19.8727208 1.60000002
v 9.92561899 19.8743812 1.60565688
v 9.90469672 19.8635568 1.59200002
v 9.90957725 19.8571964 1.60000002
v 9.90814777 19.8590593 1.59434317
v 9.90469672 19.8635568 1.60800002
v 9.90957725 19.8571964 1.60000002
v 9.90814777 19.8590593 1.60565688
v 9.88599161 19.8510585 1.59200002
v 9.89000019 19.8441154 1.60000002
v 9.88882611 19.846149 1.59434317
v 9.88599161 19.8510585 1.60800002
v 9.89000019 19.8441154 1.60000002
v 9.88882611 19.846149 1.60565688
v 9.86581514 19.8411086 1.59200002
v 9.86888321 19.8337017 1.60000002
v 9.8679846 19.8358711 1.59434317
v 9.86581514 19.8411086 1.60800002
v 9.86888321 19.8337017 1.60000002
v 9.8679846 19.8358711 1.60565688
v 9.84451263 19.8338773 1.59200002
v 9.84658762 19.8261333 1.60000002
v 9.84597987 19.8284015 1.59434317
v 9.84451263 19.8338773 1.60800002
v 9.84658762 19.8261333 1.60000002
v 9.84597987 19.8284015 1.60565688
v 9.82244853 19.8294885 1.59200002
v 9.82349491 19.8215399 1.60000002
v 9.82318843 19.823868 1.59434317
v 9.82244853 19.8294885 1.60800002
v 9.82349491 19.8215399 1.60000002
v 9.82318843 19.823868 1.60565688
v 9.80000019 19.8280172 1.59200002
v 9.80000019 19.82 1.60000002
v 9.80000019 19.8223482 1.59434317
v 9.80000019 19.8280172 1.60800002
v 9.80000019 19.82 1.60000002
v 9.80000019 19.8223482 1.60565688
v 9.77755186 19.8294885 1.59200002
v 9.77650547 19.8215399 1.60000002
v 9.77681195 19.823868 1.59434317
v 9.77755186 19.8294885 1.60800002
v 9.77650547 19.8215399 1.60000002
v 9.77681195 19.823868 1.60565688
v 9.75548775 19.8338773 1.59200002
v 9.75341276 19.8261333 1.60000002
v 9.75402051 19.8284015 1.59434317
v 9.75548775 19.8338773 1.60800002
v 9.75341276 19.8261333 1.60000002
v 9.75402051 19.8284015 1.60565688
v 9.73418524 19.8411086 1.59200002
v 9.73111717 19.8337017 1.60000002
v 9.73201578 19.8358711 1.59434317
v 9.73418524 19.8411086 1.60800002
v 9.73111717 19.8337017 1.60000002
v 9.73201578 19.8358711 1.60565688
v 9.71400877 19.8510585 1.59200002
v 9.71000019 19.8441154 1.60000002
v 9.71117427 19.846149 1.59434317
v 9.71400877 19.8510585 1.60800002
v 9.71000019 19.8441154 1.60000002
v 9.71117427 19.846149 1.60565688
v 9.69530366 19.8635568 1.59200002
v 9.69042313 19.8571964 1.60000002
v 9.69185261 19.8590593 1.59434317
v 9.69530366 19.8635568 1.60800002
v 9.69042313 19.8571964 1.60000002
v 9.69185261 19.8590593 1.60565688
v 9.67838996 19.8783898 1.59200002
v 9.67272097 19.8727208 1.60000002
v 9.67438139 19.8743812 1.59434317
v 9.67838996 19.8783898 1.60800002
v 9.67272097 19.8727208 1.60000002
v 9.67438139 19.8743812 1.60565688
v 9.66355704 19.8953035 1.59200002
v 9.65719658 19.8904229 1.60000002
v 9.65905952 19.8918524 1.59434317
v 9.66355704 19.8953035 1.60800002
v 9.65719658 19.8904229 1.60000002
v 9.65905952 19.8918524 1.60565688
v 9.65105869 19.9140086 1.59200002
v 9.64411561 19.91 1.60000002
v 9.64614919 19.9111741 1.59434317
v 9.65105869 19.9140086 1.60800002
v 9.64411561 19.91 1.60000002
v 9.64614919 19.9111741 1.60565688
v 9.64110875 19.9341851 1.59200002
v 9.63370188 19.931117 1.60000002
v 9.63587129 19.9320156 1.59434317
v 9.64110875 19.9341851 1.60800002
v 9.63370188 19.931117 1.60000002
v 9.63587129 19.9320156 1.60565688
v 9.63387752 19.9554876 1.59200002
v 9.62613353 19.9534126 1.60000002
v 9.6284017 19.9540203 1.59434317
v 9.63387752 19.9554876 1.60800002
v 9.62613353 19.9534126 1.60000002
v 9.6284017 19.9540203 1.60565688
v 9.62948869 19.9775517 1.59200002
v 9.6215401 19.9765053 1.60000002
v 9.62386817 19.9768118 1.59434317
v 9.62948869 19.9775517 1.60800002
v 9.6215401 19.9765053 1.60000002
v 9.62386817 19.9768118 1.60565688
v 9.62801735 20 1.59200002
v 9.62000018 20 1.60000002
v 9.62234837 20 1.59434317
v 9.62801735 20 1.60800002
v 9.62000018 20 1.60000002
v 9.62234837 20 1.60565688
v 9.62948869 20.0224483 1.59200002
v 9.6215401 20.0234947 1.60000002
v 9.62386817 20.0231882 1.59434317
v 9.62948869 20.0224483 1.60800002
v 9.6215401 20.0234947 1.60000002
v 9.62386817 20.0231882 1.60565688
v 9.63387752 20.0445124 1.59200002
v 9.62613353 20.0465874 1.60000002
v 9.6284017 20.0459797 1.59434317
v 9.63387752 20.0445124 1.60800002
v 9.62613353 20.0465874 1.60000002
v 9.6284017 20.0459797 1.60565688
v 9.64110875 20.0658149 1.59200002
v 9.63370188 20.068883 1.60000002
v 9.63587129 20.0679844 1.59434317
v 9.64110875 20.0658149 1.60800002
v 9.63370188 20.068883 1.60000002
v 9.63587129 20.0679844 1.60565688
v 9.65105869 20.0859914 1.59200002
v 9.64411561 20.09 1.60000002
v 9.64614919 20.0888259 1.59434317
v 9.65105869 20.0859914 1.60800002
v 9.64411561 20.09 1.60000002
v 9.64614919 20.0888259 1.60565688
v 9.66355704 20.1046965 1.59200002
v 9.65719658 20.1095771 1.60000002
v 9.65905952 20.1081476 1.59434317
v 9.66355704 20.1046965 1.60800002
v 9.65719658 20.1095771 1.60000002
v 9.65905952 20.1081476 1.60565688
v 9.67838996 20.1216102 1.59200002
v 9.67272097 20.1272792 1.60000002
v 9.67438139 20.1256188 1.59434317
v 9.67838996 20.1216102 1.60800002
v 9.67272097 20.1272792 1.60000002
v 9.67438139 20.1256188 1.60565688
v 9.69530366 20.1364432 1.59200002
v 9.69042313 20.1428036 1.60000002
v 9.69185261 20.1409407 1.59434317
v 9.69530366 20.1364432 1.60800002
v 9.69042313 20.1428036 1.60000002
v 9.69185261 20.1409407 1.60565688
v 9.71400877 20.1489415 1.59200002
v 9.71000019 20.1558846 1.60000002
v 9.71117427 20.153851 1.59434317
v 9.71400877 20.1489415 1.60800002
v 9.71000019 20.1558846 1.60000002
v 9.71117427 20.153851 1.60565688
v 9.73418524 20.1588914 1.59200002
v 9.73111717 20.1662983 1.60000002
v 9.73201578 20.1641289 1.59434317
v 9.73418524 20.1588914 1.60800002
v 9.73111717 20.1662983 1.60000002
v 9.73201578 20.1641289 1.60565688
v 9.75548775 20.1661227 1.59200002
v 9.75341276 20.1738667 1.60000002
v 9.75402051 20.1715985 1.59434317
v 9.75548775 20.1661227 1.60800002
v 9.75341276 20.1738667 1.60000002
v 9.75402051 20.1715985 1.60565688
v 9.77755186 20.1705115 1.59200002
v 9.77650547 20.1784601 1.60000002
v 9.77681195 20.176132 1.59434317
v 9.77755186 20.1705115 1.60800002
v 9.77650547 20.1784601 1.60000002
v 9.77681195 20.176132 1.60565688
f 2 8 9
f 2 9 3
f 3 9 7
f 3 7 1
f 11 5 6
f 11 6 12
f 12 6 4
f 12 4 10
f 8 14 15
f 8 15 9
f 9 15 13
f 9 13 7
f 17 11 12
f 17 12 18
f 18 12 10
f 18 10 16
f 14 20 21
f 14 21 15
f 15 21 19
f 15 19 13
f 23 17 18
f 23 18 24
f 24 18 16
f 24 16 22
f 20 26 27
f 20 27 21
f 21 27 25
f 21 25 19
f 29 23 24
f 29 24 30
f 30 24 22
f 30 22 28
f 26 32 33
f 26 33 27
f 27 33 31
f 27 31 25
f 35 29 30
f 35 30 36
f 36 30 28
f 36 28 34
f 32 38 39
f 32 39 33
f 33 39 37
f 33 37 31
f 41 35 36
f 41 36 42
f 42 36 34
f 42 34 40
f 38 44 45
f 38 45 39
f 39 45 43
f 39 43 37
f 47 41 42
f 47 42 48
f 48 42 40
f 48 40 46
f 44 50 51
f 44 51 45
f 45 51 49
f 45 49 43
f 53 47 48
f 53 48 54
f 54 48 46
f 54 46 52
f 50 56 57
f 50 57 51
f 51 57 55
f 51 55 49
f 59 53 54
f 59 54 60
f 60 54 52
f 60 52 58
f 56 62 63
f 56 63 57
f 57 63 61
f 57 61 55
f 65 59 60
f 65 60 66
f 66 60 58
f 66 58 64
f 62 68 69
f 62 69 63
f 63 69 67
f 63 67 61
f 71 65 66
f 71 66 72
f 72 66 64
f 72 64 70
f 68 74 75
f 68 75 69
f 69 75 73
f 69 73 67
f 77 71 72
f 77 72 78
f 78 72 70
f 78 70 76
f 74 80 81
f 74 81 75
f 75 81 79
f 75 79 73
f 83 77 78
f 83 78 84
f 84 78 76
f 84 76 82
f 80 86 87
f 80 87 81
f 81 87 85
f 81 85 79
f 89 83 84
f 89 84 90
f 90 84 82
f 90 82 88
f 86 92 93
f 86 93 87
f 87 93 91
f 87 91 85
f 95 89 90
f 95 90 96
f 96 90 88
f 96 88 94
f 92 98 99
f 92 99 93
f 93 99 97
f 93 97 91
f 101 95 96
f 101 96 102
f 102 96 94
f 102 94 100
f 98 104 105
f 98 105 99
f 99 105 103
f 99 103 97
f 107 101 102
f 107 102 108
f 108 102 100
f 108 100 106
f 104 110 111
f 104 111 105
f 105 111 109
f 105 109 103
f 113 107 108
f 113 108 114
f 114 108 106
f 114 106 112
f 110 116 117
f 110 117 111
f 111 117 115
f 111 115 109
f 119 113 114
f 119 114 120
f 120 114 112
f 120 112 118
f 116 122 123
f 116 123 117
f 117 123 121
f 117 121 115
f 125 119 120
f 125 120 126
f 126 120 118
f 126 118 124
f 122 128 129
f 122 129 123
f 123 129 127
f 123 127 121
f 131 125 126
f 131 126 132
f 132 126 124
f 132 124 130
f 128 134 135
f 128 135 129
f 129 135 133
f 129 133 127
f 137 131 132
f 137 132 138
f 138 132 130
f 138 130 136
f 134 140 141
f 134 141 135
f 135 141 139
f 135 139 133
f 143 137 138
f 143 138 144
f 144 138 136
f 144 136 142
f 140 146 147
f 140 147 141
f 141 147 145
f 141 145 139
f 149 143 144
f 149 144 150
f 150 144 142
f 150 142 148
f 146 152 153
f 146 153 147
f 147 153 151
f 147 151 145
f 155 149 150
f 155 150 156
f 156 150 148
f 156 148 154
f 152 158 159
f 152 159 153
f 153 159 157
f 153 157 151
f 161 155 156
f 161 156 162
f 162 156 154
f 162 154 160
f 158 164 165
f 158 165 159
f 159 165 163
f 159 163 157
f 167 161 162
f 167 162 168
f 168 162 160
f 168 160 166
f 164 170 171
f 164 171 165
f 165 171 169
f 165 169 163
f 173 167 168
f 173 168 174
f 174 168 166
f 174 166 172
f 170 176 177
f 170 177 171
f 171 177 175
f 171 175 169
f 179 173 174
f 179 174 180
f 180 174 172
f 180 172 178
f 176 182 183
f 176 183 177
f 177 183 181
f 177 181 175
f 185 179 180
f 185 180 186
f 186 180 178
f 186 178 184
f 182 188 189
f 182 189 183
f 183 189 187
f 183 187 181
f 191 185 186
f 191 186 192
f 192 186 184
f 192 184 190
f 188 194 195
f 188 195 189
f 189 195 193
f 189 193 187
f 197 191 192
f 197 192 198
f 198 192 190
f 198 190 196
f 194 200 201
f 194 201 195
f 195 201 199
f 195 199 193
f 203 197 198
f 203 198 204
f 204 198 196
f 204 196 202
f 200 206 207
f 200 207 201
f 201 207 205
f 201 205 199
f 209 203 204
f 209 204 210
f 210 204 202
f 210 202 208
f 206 212 213
f 206 213 207
f 207 213 211
f 207 211 205
f 215 209 210
f 215 210 216
f 216 210 208
f 216 208 214
f 212 218 219
f 212 219 213
f 213 219 217
f 213 217 211
f 221 215 216
f 221 216 222
f 222 216 214
f 222 214 220
f 218 224 225
f 218 225 219
f 219 225 223
f 219 223 217
f 227 221 222
f 227 222 228
f 228 222 220
f 228 220 226
f 224 230 231
f 224 231 225
f 225 231 229
f 225 229 223
f 233 227 228
f 233 228 234
f 234 228 226
f 234 226 232
f 230 236 237
f 230 237 231
f 231 237 235
f 231 235 229
f 239 233 234
f 239 234 240
f 240 234 232
f 240 232 238
f 236 242 243
f 236 243 237
f 237 243 241
f 237 241 235
f 245 239 240
f 245 240 246
f 246 240 238
f 246 238 244
f 242 248 249
f 242 249 243
f 243 249 247
f 243 247 241
f 251 245 246
f 251 246 252
f 252 246 244
f 252 244 250
f 248 254 255
f 248 255 249
f 249 255 253
f 249 253 247
f 257 251 252
f 257 252 258
f 258 252 250
f 258 250 256
f 254 260 261
f 254 261 255
f 255 261 259
f 255 259 253
f 263 257 258
f 263 258 264
f 264 258 256
f 264 256 262
f 260 266 267
f 260 267 261
f 261 267 265
f 261 265 259
f 269 263 264
f 269 264 270
f 270 264 262
f 270 262 268
f 266 272 273
f 266 273 267
f 267 273 271
f 267 271 265
f 275 269 270
f 275 270 276
f 276 270 268
f 276 268 274
f 272 278 279
f 272 279 273
f 273 279 277
f 273 277 271
f 281 275 276
f 281 276 282
f 282 276 274
f 282 274 280
f 278 284 285
f 278 285 279
f 279 285 283
f 279 283 277
f 287 281 282
f 287 282 288
f 288 282 280
f 288 280 286
f 284 2 3
f 284 3 285
f 285 3 1
f 285 1 283
f 5 287 288
f 5 288 6
f 6 288 286
f 6 286 4
f 283 1 7
f 7 13 19
f 19 25 31
f 31 37 43
f 43 49 55
f 55 61 67
f 67 73 79
f 79 85 91
f 91 97 103
f 103 109 115
f 115 121 127
f 127 133 139
f 139 145 151
f 151 157 163
f 163 169 175
f 175 181 187
f 187 193 199
f 199 205 211
f 211 217 223
f 223 229 235
f 235 241 247
f 247 253 259
f 259 265 271
f 271 277 283
f 283 7 19
f 19 31 43
f 43 55 67
f 67 79 91
f 91 103 115
f 115 127 139
f 139 151 163
f 163 175 187
f 187 199 211
f 211 223 235
f 235 247 259
f 259 271 283
f 283 19 43
f 43 67 91
f 91 115 139
f 139 163 187
f 187 211 235
f 235 259 283
f 283 43 91
f 91 139 187
f 187 235 283
f 91 187 283
f 2 5 11
f 2 11 8
f 284 287 5
f 284 5 2
f 16 10 4
f 4 286 280
f 280 274 268
f 268 262 256
f 256 250 244
f 244 238 232
f 232 226 220
f 220 214 208
f 208 202 196
f 196 190 184
f 184 178 172
f 172 166 160
f 160 154 148
f 148 142 136
f 136 130 124
f 124 118 112
f 112 106 100
f 100 94 88
f 88 82 76
f 76 70 64
f 64 58 52
f 52 46 40
f 40 34 28
f 28 22 16
f 16 4 280
f 280 268 256
f 256 244 232
f 232 220 208
f 208 196 184
f 184 172 160
f 160 148 136
f 136 124 112
f 112 100 88
f 88 76 64
f 64 52 40
f 40 28 16
f 16 280 256
f 256 232 208
f 208 184 160
f 160 136 112
f 112 88 64
f 64 40 16
f 16 256 208
f 208 160 112
f 112 64 16
f 208 112 16
f 8 11 17
f 8 17 14
f 14 17 23
f 14 23 20
f 20 23 29
f 20 29 26
f 26 29 35
f 26 35 32
f 32 35 41
f 32 41 38
f 38 41 47
f 38 47 44
f 44 47 53
f 44 53 50
f 50 53 59
f 50 59 56
f 56 59 65
f 56 65 62
f 62 65 71
f 62 71 68
f 68 71 77
f 68 77 74
f 74 77 83
f 74 83 80
f 80 83 89
f 80 89 86
f 86 89 95
f 86 95 92
f 92 95 101
f 92 101 98
f 98 101 107
f 98 107 104
f 104 107 113
f 104 113 110
f 110 113 119
f 110 119 116
f 116 119 125
f 116 125 122
f 122 125 131
f 122 131 128
f 128 131 137
f 128 137 134
f 134 137 143
f 134 143 140
f 140 143 149
f 140 149 146
f 146 149 155
f 146 155 152
f 152 155 161
f 152 161 158
f 158 161 167
f 158 167 164
f 164 167 173
f 164 173 170
f 170 173 179
f 170 179 176
f 176 179 185
f 176 185 182
f 182 185 191
f 182 191 188
f 188 191 197
f 188 197 194
f 194 197 203
f 194 203 200
f 200 203 209
f 200 209 206
f 206 209 215
f 206 215 212
f 212 215 221
f 212 221 218
f 218 221 227
f 218 227 224
f 224 227 233
f 224 233 230
f 230 233 239
f 230 239 236
f 236 239 245
f 236 245 242
f 242 245 251
f 242 251 248
f 248 251 257
f 248 257 254
f 254 257 263
f 254 263 260
f 260 263 269
f 260 269 266
f 266 269 275
f 266 275 272
f 272 275 281
f 272 281 278
f 278 281 287
f 278 287 284
f 290 296 297
f 290 297 291
f 291 297 295
f 291 295 289
f 299 293 294
f 299 294 300
f 300 294 292
f 300 292 298
f 296 302 303
f 296 303 297
f 297 303 301
f 297 301 295
f 305 299 300
f 305 300 306
f 306 300 298
f 306 298 304
f 302 308 309
f 302 309 303
f 303 309 307
f 303 307 301
f 311 305 306
f 311 306 312
f 312 306 304
f 312 304 310
f 308 314 315
f 308 315 309
f 309 315 313
f 309 313 307
f 317 311 312
f 317 312 318
f 318 312 310
f 318 310 316
f 314 320 321
f 314 321 315
f 315 321 319
f 315 319 313
f 323 317 318
f 323 318 324
f 324 318 316
f 324 316 322
f 320 326 327
f 320 327 321
f 321 327 325
f 321 325 319
f 329 323 324
f 329 324 330
f 330 324 322
f 330 322 328
f 326 332 333
f 326 333 327
f 327 333 331
f 327 331 325
f 335 329 330
f 335 330 336
f 336 330 328
f 336 328 334
f 332 338 339
f 332 339 333
f 333 339 337
f 333 337 331
f 341 335 336
f 341 336 342
f 342 336 334
f 342 334 340
f 338 344 345
f 338 345 339
f 339 345 343
f 339 343 337
f 347 341 342
f 347 342 348
f 348 342 340
f 348 340 346
f 344 350 351
f 344 351 345
f 345 351 349
f 345 349 343
f 353 347 348
f 353 348 354
f 354 348 346
f 354 346 352
f 350 356 357
f 350 357 351
f 351 357 355
f 351 355 349
f 359 353 354
f 359 354 360
f 360 354 352
f 360 352 358
f 356 362 363
f 356 363 357
f 357 363 361
f 357 361 355
f 365 359 360
f 365 360 366
f 366 360 358
f 366 358 364
f 362 368 369
f 362 369 363
f 363 369 367
f 363 367 361
f 371 365 366
f 371 366 372
f 372 366 364
f 372 364 370
f 368 374 375
f 368 375 369
f 369 375 373
f 369 373 367
f 377 371 372
f 377 372 378
f 378 372 370
f 378 370 376
f 374 380 381
f 374 381 375
f 375 381 379
f 375 379 373
f 383 377 378
f 383 378 384
f 384 378 376
f 384 376 382
f 380 386 387
f 380 387 381
f 381 387 385
f 381 385 379
f 389 383 384
f 389 384 390
f 390 384 382
f 390 382 388
f 386 392 393
f 386 393 387
f 387 393 391
f 387 391 385
f 395 389 390
f 395 390 396
f 396 390 388
f 396 388 394
f 392 398 399
f 392 399 393
f 393 399 397
f 393 397 391
f 401 395 396
f 401 396 402
f 402 396 394
f 402 394 400
f 398 404 405
f 398 405 399
f 399 405 403
f 399 403 397
f 407 401 402
f 407 402 408
f 408 402 400
f 408 400 406
f 404 410 411
f 404 411 405
f 405 411 409
f 405 409 403
f 413 407 408
f 413 408 414
f 414 408 406
f 414 406 412
f 410 416 417
f 410 417 411
f 411 417 415
f 411 415 409
f 419 413 414
f 419 414 420
f 420 414 412
f 420 412 418
f 416 422 423
f 416 423 417
f 417 423 421
f 417 421 415
f 425 419 420
f 425 420 426
f 426 420 418
f 426 418 424
f 422 428 429
f 422 429 423
f 423 429 427
f 423 427 421
f 431 425 426
f 431 426 432
f 432 426 424
f 432 424 430
f 428 434 435
f 428 435 429
f 429 435 433
f 429 433 427
f 437 431 432
f 437 432 438
f 438 432 430
f 438 430 436
f 434 440 441
f 434 441 435
f 435 441 439
f 435 439 433
f 443 437 438
f 443 438 444
f 444 438 436
f 444 436 442
f 440 446 447
f 440 447 441
f 441 447 445
f 441 445 439
f 449 443 444
f 449 444 450
f 450 444 442
f 450 442 448
f 446 452 453
f 446 453 447
f 447 453 451
f 447 451 445
f 455 449 450
f 455 450 456
f 456 450 448
f 456 448 454
f 452 458 459
f 452 459 453
f 453 459 457
f 453 457 451
f 461 455 456
f 461 456 462
f 462 456 454
f 462 454 460
f 458 464 465
f 458 465 459
f 459 465 463
f 459 463 457
f 467 461 462
f 467 462 468
f 468 462 460
f 468 460 466
f 464 470 471
f 464 471 465
f 465 471 469
f 465 469 463
f 473 467 468
f 473 468 474
f 474 468 466
f 474 466 472
f 470 476 477
f 470 477 471
f 471 477 475
f 471 475 469
f 479 473 474
f 479 474 480
f 480 474 472
f 480 472 478
f 476 482 483
f 476 483 477
f 477 483 481
f 477 481 475
f 485 479 480
f 485 480 486
f 486 480 478
f 486 478 484
f 482 488 489
f 482 489 483
f 483 489 487
f 483 487 481
f 491 485 486
f 491 486 492
f 492 486 484
f 492 484 490
f 488 494 495
f 488 495 489
f 489 495 493
f 489 493 487
f 497 491 492
f 497 492 498
f 498 492 490
f 498 490 496
f 494 500 501
f 494 501 495
f 495 501 499
f 495 499 493
f 503 497 498
f 503 498 504
f 504 498 496
f 504 496 502
f 500 506 507
f 500 507 501
f 501 507 505
f 501 505 499
f 509 503 504
f 509 504 510
f 510 504 502
f 510 502 508
f 506 512 513
f 506 513 507
f 507 513 511
f 507 511 505
f 515 509 510
f 515 510 516
f 516 510 508
f 516 508 514
f 512 518 519
f 512 519 513
f 513 519 517
f 513 517 511
f 521 515 516
f 521 516 522
f 522 516 514
f 522 514 520
f 518 524 525
f 518 525 519
f 519 525 523
f 519 523 517
f 527 521 522
f 527 522 528
f 528 522 520
f 528 520 526
f 524 530 531
f 524 531 525
f 525 531 529
f 525 529 523
f 533 527 528
f 533 528 534
f 534 528 526
f 534 526 532
f 530 536 537
f 530 537 531
f 531 537 535
f 531 535 529
f 539 533 534
f 539 534 540
f 540 534 532
f 540 532 538
f 536 542 543
f 536 543 537
f 537 543 541
f 537 541 535
f 545 539 540
f 545 540 546
f 546 540 538
f 546 538 544
f 542 548 549
f 542 549 543
f 543 549 547
f 543 547 541
f 551 545 546
f 551 546 552
f 552 546 544
f 552 544 550
f 548 554 555
f 548 555 549
f 549 555 553
f 549 553 547
f 557 551 552
f 557 552 558
f 558 552 550
f 558 550 556
f 554 560 561
f 554 561 555
f 555 561 559
f 555 559 553
f 563 557 558
f 563 558 564
f 564 558 556
f 564 556 562
f 560 566 567
f 560 567 561
f 561 567 565
f 561 565 559
f 569 563 564
f 569 564 570
f 570 564 562
f 570 562 568
f 566 572 573
f 566 573 567
f 567 573 571
f 567 571 565
f 575 569 570
f 575 570 576
f 576 570 568
f 576 568 574
f 572 290 291
f 572 291 573
f 573 291 289
f 573 289 571
f 293 575 576
f 293 576 294
f 294 576 574
f 294 574 292
f 571 289 295
f 295 301 307
f 307 313 319
f 319 325 331
f 331 337 343
f 343 349 355
f 355 361 367
f 367 373 379
f 379 385 391
f 391 397 403
f 403 409 415
f 415 421 427
f 427 433 439
f 439 445 451
f 451 457 463
f 463 469 475
f 475 481 487
f 487 493 499
f 499 505 511
f 511 517 523
f 523 529 535
f 535 541 547
f 547 553 559
f 559 565 571
f 571 295 307
f 307 319 331
f 331 343 355
f 355 367 379
f 379 391 403
f 403 415 427
f 427 439 451
f 451 463 475
f 475 487 499
f 499 511 523
f 523 535 547
f 547 559 571
f 571 307 331
f 331 355 379
f 379 403 427
f 427 451 475
f 475 499 523
f 523 547 571
f 571 331 379
f 379 427 475
f 475 523 571
f 379 475 571
f 290 293 299
f 290 299 296
f 572 575 293
f 572 293 290
f 304 298 292
f 292 574 568
f 568 562 556
f 556 550 544
f 544 538 532
f 532 526 520
f 520 514 508
f 508 502 496
f 496 490 484
f 484 478 472
f 472 466 460
f 460 454 448
f 448 442 436
f 436 430 424
f 424 418 412
f 412 406 400
f 400 394 388
f 388 382 376
f 376 370 364
f 364 358 352
f 352 346 340
f 340 334 328
f 328 322 316
f 316 310 304
f 304 292 568
f 568 556 544
f 544 532 520
f 520 508 496
f 496 484 472
f 472 460 448
f 448 436 424
f 424 412 400
f 400 388 376
f 376 364 352
f 352 340 328
f 328 316 304
f 304 568 544
f 544 520 496
f 496 472 448
f 448 424 400
f 400 376 352
f 352 328 304
f 304 544 496
f 496 448 400
f 400 352 304
f 496 400 304
f 296 299 305
f 296 305 302
f 302 305 311
f 302 311 308
f 308 311 317
f 308 317 314
f 314 317 323
f 314 323 320
f 320 323 329
f 320 329 326
f 326 329 335
f 326 335 332
f 332 335 341
f 332 341 338
f 338 341 347
f 338 347 344
f 344 347 353
f 344 353 350
f 350 353 359
f 350 359 356
f 356 359 365
f 356 365 362
f 362 365 371
f 362 371 368
f 368 371 377
f 368 377 374
f 374 377 383
f 374 383 380
f 380 383 389
f 380 389 386
f 386 389 395
f 386 395 392
f 392 395 401
f 392 401 398
f 398 401 407
f 398 407 404
f 404 407 413
f 404 413 410
f 410 413 419
f 410 419 416
f 416 419 425
f 416 425 422
f 422 425 431
f 422 431 428
f 428 431 437
f 428 437 434
f 434 437 443
f 434 443 440
f 440 443 449
f 440 449 446
f 446 449 455
f 446 455 452
f 452 455 461
f 452 461 458
f 458 461 467
f 458 467 464
f 464 467 473
f 464 473 470
f 470 473 479
f 470 479 476
f 476 479 485
f 476 485 482
f 482 485 491
f 482 491 488
f 488 491 497
f 488 497 494
f 494 497 503
f 494 503 500
f 500 503 509
f 500 509 506
f 506 509 515
f 506 515 512
f 512 515 521
f 512 521 518
f 518 521 527
f 518 527 524
f 524 527 533
f 524 533 530
f 530 533 539
f 530 539 536
f 536 539 545
f 536 545 542
f 542 545 551
f 542 551 548
f 548 551 557
f 548 557 554
f 554 557 563
f 554 563 560
f 560 563 569
f 560 569 566
f 566 569 575
f 566 575 572
f 578 584 585
f 578 585 579
f 579 585 583
f 579 583 577
f 587 581 582
f 587 582 588
f 588 582 580
f 588 580 586
f 584 590 591
f 584 591 585
f 585 591 589
f 585 589 583
f 593 587 588
f 593 588 594
f 594 588 586
f 594 586 592
f 590 596 597
f 590 597 591
f 591 597 595
f 591 595 589
f 599 593 594
f 599 594 600
f 600 594 592
f 600 592 598
f 596 602 603
f 596 603 597
f 597 603 601
f 597 601 595
f 605 599 600
f 605 600 606
f 606 600 598
f 606 598 604
f 602 608 609
f 602 609 603
f 603 609 607
f 603 607 601
f 611 605 606
f 611 606 612
f 612 606 604
f 612 604 610
f 608 614 615
f 608 615 609
f 609 615 613
f 609 613 607
f 617 611 612
f 617 612 618
f 618 612 610
f 618 610 616
f 614 620 621
f 614 621 615
f 615 621 619
f 615 619 613
f 623 617 618
f 623 618 624
f 624 618 616
f 624 616 622
f 620 626 627
f 620 627 621
f 621 627 625
f 621 625 619
f 629 623 624
f 629 624 630
f 630 624 622
f 630 622 628
f 626 632 633
f 626 633 627
f 627 633 631
f 627 631 625
f 635 629 630
f 635 630 636
f 636 630 628
f 636 628 634
f 632 638 639
f 632 639 633
f 633 639 637
f 633 637 631
f 641 635 636
f 641 636 642
f 642 636 634
f 642 634 640
f 638 644 645
f 638 645 639
f 639 645 643
f 639 643 637
f 647 641 642
f 647 642 648
f 648 642 640
f 648 640 646
f 644 650 651
f 644 651 645
f 645 651 649
f 645 649 643
f 653 647 648
f 653 648 654
f 654 648 646
f 654 646 652
f 650 656 657
f 650 657 651
f 651 657 655
f 651 655 649
f 659 653 654
f 659 654 660
f 660 654 652
f 660 652 658
f 656 662 663
f 656 663 657
f 657 663 661
f 657 661 655
f 665 659 660
f 665 660 666
f 666 660 658
f 666 658 664
f 662 668 669
f 662 669 663
f 663 669 667
f 663 667 661
f 671 665 666
f 671 666 672
f 672 666 664
f 672 664 670
f 668 674 675
f 668 675 669
f 669 675 673
f 669 673 667
f 677 671 672
f 677 672 678
f 678 672 670
f 678 670 676
f 674 680 681
f 674 681 675
f 675 681 679
f 675 679 673
f 683 677 678
f 683 678 684
f 684 678 676
f 684 676 682
f 680 686 687
f 680 687 681
f 681 687 685
f 681 685 679
f 689 683 684
f 689 684 690
f 690 684 682
f 690 682 688
f 686 692 693
f 686 693 687
f 687 693 691
f 687 691 685
f 695 689 690
f 695 690 696
f 696 690 688
f 696 688 694
f 692 698 699
f 692 699 693
f 693 699 697
f 693 697 691
f 701 695 696
f 701 696 702
f 702 696 694
f 702 694 700
f 698 704 705
f 698 705 699
f 699 705 703
f 699 703 697
f 707 701 702
f 707 702 708
f 708 702 700
f 708 700 706
f 704 710 711
f 704 711 705
f 705 711 709
f 705 709 703
f 713 707 708
f 713 708 714
f 714 708 706
f 714 706 712
f 710 716 717
f 710 717 711
f 711 717 715
f 711 715 709
f 719 713 714
f 719 714 720
f 720 714 712
f 720 712 718
f 716 722 723
f 716 723 717
f 717 723 721
f 717 721 715
f 725 719 720
f 725 720 726
f 726 720 718
f 726 718 724
f 722 728 729
f 722 729 723
f 723 729 727
f 723 727 721
f 731 725 726
f 731 726 732
f 732 726 724
f 732 724 730
f 728 734 735
f 728 735 729
f 729 735 733
f 729 733 727
f 737 731 732
f 737 732 738
f 738 732 730
f 738 730 736
f 734 740 741
f 734 741 735
f 735 741 739
f 735 739 733
f 743 737 738
f 743 738 744
f 744 738 736
f 744 736 742
f 740 746 747
f 740 747 741
f 741 747 745
f 741 745 739
f 749 743 744
f 749 744 750
f 750 744 742
f 750 742 748
f 746 752 753
f 746 753 747
f 747 753 751
f 747 751 745
f 755 749 750
f 755 750 756
f 756 750 748
f 756 748 754
f 752 758 759
f 752 759 753
f 753 759 757
f 753 757 751
f 761 755 756
f 761 756 762
f 762 756 754
f 762 754 760
f 758 764 765
f 758 765 759
f 759 765 763
f 759 763 757
f 767 761 762
f 767 762 768
f 768 762 760
f 768 760 766
f 764 770 771
f 764 771 765
f 765 771 769
f 765 769 763
f 773 767 768
f 773 768 774
f 774 768 766
f 774 766 772
f 770 776 777
f 770 777 771
f 771 777 775
f 771 775 769
f 779 773 774
f 779 774 780
f 780 774 772
f 780 772 778
f 776 782 783
f 776 783 777
f 777 783 781
f 777 781 775
f 785 779 780
f 785 780 786
f 786 780 778
f 786 778 784
f 782 788 789
f 782 789 783
f 783 789 787
f 783 787 781
f 791 785 786
f 791 786 792
f 792 786 784
f 792 784 790
f 788 794 795
f 788 795 789
f 789 795 793
f 789 793 787
f 797 791 792
f 797 792 798
f 798 792 790
f 798 790 796
f 794 800 801
f 794 801 795
f 795 801 799
f 795 799 793
f 803 797 798
f 803 798 804
f 804 798 796
f 804 796 802
f 800 806 807
f 800 807 801
f 801 807 805
f 801 805 799
f 809 803 804
f 809 804 810
f 810 804 802
f 810 802 808
f 806 812 813
f 806 813 807
f 807 813 811
f 807 811 805
f 815 809 810
f 815 810 816
f 816 810 808
f 816 808 814
f 812 818 819
f 812 819 813
f 813 819 817
f 813 817 811
f 821 815 816
f 821 816 822
f 822 816 814
f 822 814 820
f 818 824 825
f 818 825 819
f 819 825 823
f 819 823 817
f 827 821 822
f 827 822 828
f 828 822 820
f 828 820 826
f 824 830 831
f 824 831 825
f 825 831 829
f 825 829 823
f 833 827 828
f 833 828 834
f 834 828 826
f 834 826 832
f 830 836 837
f 830 837 831
f 831 837 835
f 831 835 829
f 839 833 834
f 839 834 840
f 840 834 832
f 840 832 838
f 836 842 843
f 836 843 837
f 837 843 841
f 837 841 835
f 845 839 840
f 845 840 846
f 846 840 838
f 846 838 844
f 842 848 849
f 842 849 843
f 843 849 847
f 843 847 841
f 851 845 846
f 851 846 852
f 852 846 844
f 852 844 850
f 848 854 855
f 848 855 849
f 849 855 853
f 849 853 847
f 857 851 852
f 857 852 858
f 858 852 850
f 858 850 856
f 854 860 861
f 854 861 855
f 855 861 859
f 855 859 853
f 863 857 858
f 863 858 864
f 864 858 856
f 864 856 862
f 860 578 579
f 860 579 861
f 861 579 577
f 861 577 859
f 581 863 864
f 581 864 582
f 582 864 862
f 582 862 580
f 859 577 583
f 583 589 595
f 595 601 607
f 607 613 619
f 619 625 631
f 631 637 643
f 643 649 655
f 655 661 667
f 667 673 679
f 679 685 691
f 691 697 703
f 703 709 715
f 715 721 727
f 727 733 739
f 739 745 751
f 751 757 763
f 763 769 775
f 775 781 787
f 787 793 799
f 799 805 811
f 811 817 823
f 823 829 835
f 835 841 847
f 847 853 859
f 859 583 595
f 595 607 619
f 619 631 643
f 643 655 667
f 667 679 691
f 691 703 715
f 715 727 739
f 739 751 763
f 763 775 787
f 787 799 811
f 811 823 835
f 835 847 859
f 859 595 619
f 619 643 667
f 667 691 715
f 715 739 763
f 763 787 811
f 811 835 859
f 859 619 667
f 667 715 763
f 763 811 859
f 667 763 859
f 578 581 587
f 578 587 584
f 860 863 581
f 860 581 578
f 592 586 580
f 580 862 856
f 856 850 844
f 844 838 832
f 832 826 820
f 820 814 808
f 808 802 796
f 796 790 784
f 784 778 772
f 772 766 760
f 760 754 748
f 748 742 736
f 736 730 724
f 724 718 712
f 712 706 700
f 700 694 688
f 688 682 676
f 676 670 664
f 664 658 652
f 652 646 640
f 640 634 628
f 628 622 616
f 616 610 604
f 604 598 592
f 592 580 856
f 856 844 832
f 832 820 808
f 808 796 784
f 784 772 760
f 760 748 736
f 736 724 712
f 712 700 688
f 688 676 664
f 664 652 640
f 640 628 616
f 616 604 592
f 592 856 832
f 832 808 784
f 784 760 736
f 736 712 688
f 688 664 640
f 640 616 592
f 592 832 784
f 784 736 688
f 688 640 592
f 784 688 592
f 584 587 593
f 584 593 590
f 590 593 599
f 590 599 596
f 596 599 605
f 596 605 602
f 602 605 611
f 602 611 608
f 608 611 617
f 608 617 614
f 614 617 623
f 614 623 620
f 620 623 629
f 620 629 626
f 626 629 635
f 626 635 632
f 632 635 641
f 632 641 638
f 638 641 647
f 638 647 644
f 644 647 653
f 644 653 650
f 650 653 659
f 650 659 656
f 656 659 665
f 656 665 662
f 662 665 671
f 662 671 668
f 668 671 677
f 668 677 674
f 674 677 683
f 674 683 680
f 680 683 689
f 680 689 686
f 686 689 695
f 686 695 692
f 692 695 701
f 692 701 698
f 698 701 707
f 698 707 704
f 704 707 713
f 704 713 710
f 710 713 719
f 710 719 716
f 716 719 725
f 716 725 722
f 722 725 731
f 722 731 728
f 728 731 737
f 728 737 734
f 734 737 743
f 734 743 740
f 740 743 749
f 740 749 746
f 746 749 755
f 746 755 752
f 752 755 761
f 752 761 758
f 758 761 767
f 758 767 764
f 764 767 773
f 764 773 770
f 770 773 779
f 770 779 776
f 776 779 785
f 776 785 782
f 782 785 791
f 782 791 788
f 788 791 797
f 788 797 794
f 794 797 803
f 794 803 800
f 800 803 809
f 800 809 806
f 806 809 815
f 806 815 812
f 812 815 821
f 812 821 818
f 818 821 827
f 818 827 824
f 824 827 833
f 824 833 830
f 830 833 839
f 830 839 836
f 836 839 845
f 836 845 842
f 842 845 851
f 842 851 848
f 848 851 857
f 848 857 854
f 854 857 863
f 854 863 860
