# Frozen M4 display cutaway. World coordinates: Z up, metres.
v 25.3700008 18.1299992 1.57000005
v 25.3681183 18.1587162 1.57000005
v 25.3625031 18.1869392 1.57000005
v 25.3532543 18.2141895 1.57000005
v 25.3405247 18.2399998 1.57000005
v 25.3245373 18.2639275 1.57000005
v 25.305563 18.2855644 1.57000005
v 25.2839279 18.3045368 1.57000005
v 25.2600002 18.3205261 1.57000005
v 25.23419 18.3332539 1.57000005
v 25.2069397 18.3425045 1.57000005
v 25.1787167 18.3481178 1.57000005
v 25.1499996 18.3500004 1.57000005
v 25.1212845 18.3481178 1.57000005
v 25.0930595 18.3425045 1.57000005
v 25.0658092 18.3332539 1.57000005
v 25.0400009 18.3205261 1.57000005
v 25.0160732 18.3045368 1.57000005
v 24.9944363 18.2855644 1.57000005
v 24.975462 18.2639275 1.57000005
v 24.9594746 18.2399998 1.57000005
v 24.9467468 18.2141895 1.57000005
v 24.9374962 18.1869392 1.57000005
v 24.9318829 18.1587162 1.57000005
v 24.9300003 18.1299992 1.57000005
v 24.9318829 18.101284 1.57000005
v 24.9374962 18.0730591 1.57000005
v 24.9467468 18.0458088 1.57000005
v 24.9594746 18.0200005 1.57000005
v 24.975462 17.9960728 1.57000005
v 24.9944363 17.9744358 1.57000005
v 25.0160732 17.9554615 1.57000005
v 25.0400009 17.9394741 1.57000005
v 25.0658092 17.9267464 1.57000005
v 25.0930595 17.9174957 1.57000005
v 25.1212845 17.9118824 1.57000005
v 25.1499996 17.9099998 1.57000005
v 25.1787167 17.9118824 1.57000005
v 25.2069397 17.9174957 1.57000005
v 25.23419 17.9267464 1.57000005
v 25.2600002 17.9394741 1.57000005
v 25.2839279 17.9554615 1.57000005
v 25.305563 17.9744358 1.57000005
v 25.3245373 17.9960728 1.57000005
v 25.3405247 18.0200005 1.57000005
v 25.3532543 18.0458088 1.57000005
v 25.3625031 18.0730591 1.57000005
v 25.3681183 18.101284 1.57000005
v 25.3700008 18.1299992 1.95000005
v 25.3681183 18.1587162 1.95000005
v 25.3625031 18.1869392 1.95000005
v 25.3532543 18.2141895 1.95000005
v 25.3405247 18.2399998 1.95000005
v 25.3245373 18.2639275 1.95000005
v 25.305563 18.2855644 1.95000005
v 25.2839279 18.3045368 1.95000005
v 25.2600002 18.3205261 1.95000005
v 25.23419 18.3332539 1.95000005
v 25.2069397 18.3425045 1.95000005
v 25.1787167 18.3481178 1.95000005
v 25.1499996 18.3500004 1.95000005
v 25.1212845 18.3481178 1.95000005
v 25.0930595 18.3425045 1.95000005
v 25.0658092 18.3332539 1.95000005
v 25.0400009 18.3205261 1.95000005
v 25.0160732 18.3045368 1.95000005
v 24.9944363 18.2855644 1.95000005
v 24.975462 18.2639275 1.95000005
v 24.9594746 18.2399998 1.95000005
v 24.9467468 18.2141895 1.95000005
v 24.9374962 18.1869392 1.95000005
v 24.9318829 18.1587162 1.95000005
v 24.9300003 18.1299992 1.95000005
v 24.9318829 18.101284 1.95000005
v 24.9374962 18.0730591 1.95000005
v 24.9467468 18.0458088 1.95000005
v 24.9594746 18.0200005 1.95000005
v 24.975462 17.9960728 1.95000005
v 24.9944363 17.9744358 1.95000005
v 25.0160732 17.9554615 1.95000005
v 25.0400009 17.9394741 1.95000005
v 25.0658092 17.9267464 1.95000005
v 25.0930595 17.9174957 1.95000005
v 25.1212845 17.9118824 1.95000005
v 25.1499996 17.9099998 1.95000005
v 25.1787167 17.9118824 1.95000005
v 25.2069397 17.9174957 1.95000005
v 25.23419 17.9267464 1.95000005
v 25.2600002 17.9394741 1.95000005
v 25.2839279 17.9554615 1.95000005
v 25.305563 17.9744358 1.95000005
v 25.3245373 17.9960728 1.95000005
v 25.3405247 18.0200005 1.95000005
v 25.3532543 18.0458088 1.95000005
v 25.3625031 18.0730591 1.95000005
v 25.3681183 18.101284 1.95000005
v 25.3500004 18.1299992 1.95000005
v 25.3482895 18.156105 1.95000005
v 25.3431854 18.1817646 1.95000005
v 25.3347759 18.2065372 1.95000005
v 25.3232059 18.2299995 1.95000005
v 25.30867 18.2517529 1.95000005
v 25.2914219 18.2714214 1.95000005
v 25.2717514 18.2886715 1.95000005
v 25.25 18.3032055 1.95000005
v 25.2265358 18.3147755 1.95000005
v 25.2017632 18.323185 1.95000005
v 25.1761055 18.328289 1.95000005
v 25.1499996 18.3299999 1.95000005
v 25.1238956 18.328289 1.95000005
v 25.0982361 18.323185 1.95000005
v 25.0734634 18.3147755 1.95000005
v 25.0499992 18.3032055 1.95000005
v 25.0282478 18.2886715 1.95000005
v 25.0085793 18.2714214 1.95000005
v 24.9913292 18.2517529 1.95000005
v 24.9767952 18.2299995 1.95000005
v 24.9652233 18.2065372 1.95000005
v 24.9568157 18.1817646 1.95000005
v 24.9517117 18.156105 1.95000005
v 24.9500008 18.1299992 1.95000005
v 24.9517117 18.1038952 1.95000005
v 24.9568157 18.0782356 1.95000005
v 24.9652233 18.053463 1.95000005
v 24.9767952 18.0300007 1.95000005
v 24.9913292 18.0082474 1.95000005
v 25.0085793 17.9885788 1.95000005
v 25.0282478 17.9713287 1.95000005
v 25.0499992 17.9567947 1.95000005
v 25.0734634 17.9452248 1.95000005
v 25.0982361 17.9368153 1.95000005
v 25.1238956 17.9317112 1.95000005
v 25.1499996 17.9300003 1.95000005
v 25.1761055 17.9317112 1.95000005
v 25.2017632 17.9368153 1.95000005
v 25.2265358 17.9452248 1.95000005
v 25.25 17.9567947 1.95000005
v 25.2717514 17.9713287 1.95000005
v 25.2914219 17.9885788 1.95000005
v 25.30867 18.0082474 1.95000005
v 25.3232059 18.0300007 1.95000005
v 25.3347759 18.053463 1.95000005
v 25.3431854 18.0782356 1.95000005
v 25.3482895 18.1038952 1.95000005
v 25.3500004 18.1299992 1.57000005
v 25.3482895 18.156105 1.57000005
v 25.3431854 18.1817646 1.57000005
v 25.3347759 18.2065372 1.57000005
v 25.3232059 18.2299995 1.57000005
v 25.30867 18.2517529 1.57000005
v 25.2914219 18.2714214 1.57000005
v 25.2717514 18.2886715 1.57000005
v 25.25 18.3032055 1.57000005
v 25.2265358 18.3147755 1.57000005
v 25.2017632 18.323185 1.57000005
v 25.1761055 18.328289 1.57000005
v 25.1499996 18.3299999 1.57000005
v 25.1238956 18.328289 1.57000005
v 25.0982361 18.323185 1.57000005
v 25.0734634 18.3147755 1.57000005
v 25.0499992 18.3032055 1.57000005
v 25.0282478 18.2886715 1.57000005
v 25.0085793 18.2714214 1.57000005
v 24.9913292 18.2517529 1.57000005
v 24.9767952 18.2299995 1.57000005
v 24.9652233 18.2065372 1.57000005
v 24.9568157 18.1817646 1.57000005
v 24.9517117 18.156105 1.57000005
v 24.9500008 18.1299992 1.57000005
v 24.9517117 18.1038952 1.57000005
v 24.9568157 18.0782356 1.57000005
v 24.9652233 18.053463 1.57000005
v 24.9767952 18.0300007 1.57000005
v 24.9913292 18.0082474 1.57000005
v 25.0085793 17.9885788 1.57000005
v 25.0282478 17.9713287 1.57000005
v 25.0499992 17.9567947 1.57000005
v 25.0734634 17.9452248 1.57000005
v 25.0982361 17.9368153 1.57000005
v 25.1238956 17.9317112 1.57000005
v 25.1499996 17.9300003 1.57000005
v 25.1761055 17.9317112 1.57000005
v 25.2017632 17.9368153 1.57000005
v 25.2265358 17.9452248 1.57000005
v 25.25 17.9567947 1.57000005
v 25.2717514 17.9713287 1.57000005
v 25.2914219 17.9885788 1.57000005
v 25.30867 18.0082474 1.57000005
v 25.3232059 18.0300007 1.57000005
v 25.3347759 18.053463 1.57000005
v 25.3431854 18.0782356 1.57000005
v 25.3482895 18.1038952 1.57000005
v 19.0200005 17.7999992 1.57000005
v 19.0181179 17.8287163 1.57000005
v 19.0125046 17.8569393 1.57000005
v 19.0032539 17.8841896 1.57000005
v 18.9905262 17.9099998 1.57000005
v 18.9745369 17.9339275 1.57000005
v 18.9555626 17.9555626 1.57000005
v 18.9339275 17.9745369 1.57000005
v 18.9099998 17.9905262 1.57000005
v 18.8841896 18.0032539 1.57000005
v 18.8569393 18.0125046 1.57000005
v 18.8287163 18.0181179 1.57000005
v 18.7999992 18.0200005 1.57000005
v 18.7712841 18.0181179 1.57000005
v 18.7430592 18.0125046 1.57000005
v 18.7158089 18.0032539 1.57000005
v 18.6900005 17.9905262 1.57000005
v 18.6660728 17.9745369 1.57000005
v 18.6444359 17.9555626 1.57000005
v 18.6254616 17.9339275 1.57000005
v 18.6094742 17.9099998 1.57000005
v 18.5967464 17.8841896 1.57000005
v 18.5874958 17.8569393 1.57000005
v 18.5818825 17.8287163 1.57000005
v 18.5799999 17.7999992 1.57000005
v 18.5818825 17.7712841 1.57000005
v 18.5874958 17.7430592 1.57000005
v 18.5967464 17.7158089 1.57000005
v 18.6094742 17.6900005 1.57000005
v 18.6254616 17.6660728 1.57000005
v 18.6444359 17.6444359 1.57000005
v 18.6660728 17.6254616 1.57000005
v 18.6900005 17.6094742 1.57000005
v 18.7158089 17.5967464 1.57000005
v 18.7430592 17.5874958 1.57000005
v 18.7712841 17.5818825 1.57000005
v 18.7999992 17.5799999 1.57000005
v 18.8287163 17.5818825 1.57000005
v 18.8569393 17.5874958 1.57000005
v 18.8841896 17.5967464 1.57000005
v 18.9099998 17.6094742 1.57000005
v 18.9339275 17.6254616 1.57000005
v 18.9555626 17.6444359 1.57000005
v 18.9745369 17.6660728 1.57000005
v 18.9905262 17.6900005 1.57000005
v 19.0032539 17.7158089 1.57000005
v 19.0125046 17.7430592 1.57000005
v 19.0181179 17.7712841 1.57000005
v 19.0200005 17.7999992 1.95000005
v 19.0181179 17.8287163 1.95000005
v 19.0125046 17.8569393 1.95000005
v 19.0032539 17.8841896 1.95000005
v 18.9905262 17.9099998 1.95000005
v 18.9745369 17.9339275 1.95000005
v 18.9555626 17.9555626 1.95000005
v 18.9339275 17.9745369 1.95000005
v 18.9099998 17.9905262 1.95000005
v 18.8841896 18.0032539 1.95000005
v 18.8569393 18.0125046 1.95000005
v 18.8287163 18.0181179 1.95000005
v 18.7999992 18.0200005 1.95000005
v 18.7712841 18.0181179 1.95000005
v 18.7430592 18.0125046 1.95000005
v 18.7158089 18.0032539 1.95000005
v 18.6900005 17.9905262 1.95000005
v 18.6660728 17.9745369 1.95000005
v 18.6444359 17.9555626 1.95000005
v 18.6254616 17.9339275 1.95000005
v 18.6094742 17.9099998 1.95000005
v 18.5967464 17.8841896 1.95000005
v 18.5874958 17.8569393 1.95000005
v 18.5818825 17.8287163 1.95000005
v 18.5799999 17.7999992 1.95000005
v 18.5818825 17.7712841 1.95000005
v 18.5874958 17.7430592 1.95000005
v 18.5967464 17.7158089 1.95000005
v 18.6094742 17.6900005 1.95000005
v 18.6254616 17.6660728 1.95000005
v 18.6444359 17.6444359 1.95000005
v 18.6660728 17.6254616 1.95000005
v 18.6900005 17.6094742 1.95000005
v 18.7158089 17.5967464 1.95000005
v 18.7430592 17.5874958 1.95000005
v 18.7712841 17.5818825 1.95000005
v 18.7999992 17.5799999 1.95000005
v 18.8287163 17.5818825 1.95000005
v 18.8569393 17.5874958 1.95000005
v 18.8841896 17.5967464 1.95000005
v 18.9099998 17.6094742 1.95000005
v 18.9339275 17.6254616 1.95000005
v 18.9555626 17.6444359 1.95000005
v 18.9745369 17.6660728 1.95000005
v 18.9905262 17.6900005 1.95000005
v 19.0032539 17.7158089 1.95000005
v 19.0125046 17.7430592 1.95000005
v 19.0181179 17.7712841 1.95000005
v 19 17.7999992 1.95000005
v 18.9982891 17.8261051 1.95000005
v 18.993185 17.8517647 1.95000005
v 18.9847755 17.8765373 1.95000005
v 18.9732056 17.8999996 1.95000005
v 18.9586716 17.9217529 1.95000005
v 18.9414215 17.9414215 1.95000005
v 18.9217529 17.9586716 1.95000005
v 18.8999996 17.9732056 1.95000005
v 18.8765373 17.9847755 1.95000005
v 18.8517647 17.993185 1.95000005
v 18.8261051 17.9982891 1.95000005
v 18.7999992 18 1.95000005
v 18.7738953 17.9982891 1.95000005
v 18.7482357 17.993185 1.95000005
v 18.7234631 17.9847755 1.95000005
v 18.7000008 17.9732056 1.95000005
v 18.6782475 17.9586716 1.95000005
v 18.6585789 17.9414215 1.95000005
v 18.6413288 17.9217529 1.95000005
v 18.6267948 17.8999996 1.95000005
v 18.6152248 17.8765373 1.95000005
v 18.6068153 17.8517647 1.95000005
v 18.6017113 17.8261051 1.95000005
v 18.6000004 17.7999992 1.95000005
v 18.6017113 17.7738953 1.95000005
v 18.6068153 17.7482357 1.95000005
v 18.6152248 17.7234631 1.95000005
v 18.6267948 17.7000008 1.95000005
v 18.6413288 17.6782475 1.95000005
v 18.6585789 17.6585789 1.95000005
v 18.6782475 17.6413288 1.95000005
v 18.7000008 17.6267948 1.95000005
v 18.7234631 17.6152248 1.95000005
v 18.7482357 17.6068153 1.95000005
v 18.7738953 17.6017113 1.95000005
v 18.7999992 17.6000004 1.95000005
v 18.8261051 17.6017113 1.95000005
v 18.8517647 17.6068153 1.95000005
v 18.8765373 17.6152248 1.95000005
v 18.8999996 17.6267948 1.95000005
v 18.9217529 17.6413288 1.95000005
v 18.9414215 17.6585789 1.95000005
v 18.9586716 17.6782475 1.95000005
v 18.9732056 17.7000008 1.95000005
v 18.9847755 17.7234631 1.95000005
v 18.993185 17.7482357 1.95000005
v 18.9982891 17.7738953 1.95000005
v 19 17.7999992 1.57000005
v 18.9982891 17.8261051 1.57000005
v 18.993185 17.8517647 1.57000005
v 18.9847755 17.8765373 1.57000005
v 18.9732056 17.8999996 1.57000005
v 18.9586716 17.9217529 1.57000005
v 18.9414215 17.9414215 1.57000005
v 18.9217529 17.9586716 1.57000005
v 18.8999996 17.9732056 1.57000005
v 18.8765373 17.9847755 1.57000005
v 18.8517647 17.993185 1.57000005
v 18.8261051 17.9982891 1.57000005
v 18.7999992 18 1.57000005
v 18.7738953 17.9982891 1.57000005
v 18.7482357 17.993185 1.57000005
v 18.7234631 17.9847755 1.57000005
v 18.7000008 17.9732056 1.57000005
v 18.6782475 17.9586716 1.57000005
v 18.6585789 17.9414215 1.57000005
v 18.6413288 17.9217529 1.57000005
v 18.6267948 17.8999996 1.57000005
v 18.6152248 17.8765373 1.57000005
v 18.6068153 17.8517647 1.57000005
v 18.6017113 17.8261051 1.57000005
v 18.6000004 17.7999992 1.57000005
v 18.6017113 17.7738953 1.57000005
v 18.6068153 17.7482357 1.57000005
v 18.6152248 17.7234631 1.57000005
v 18.6267948 17.7000008 1.57000005
v 18.6413288 17.6782475 1.57000005
v 18.6585789 17.6585789 1.57000005
v 18.6782475 17.6413288 1.57000005
v 18.7000008 17.6267948 1.57000005
v 18.7234631 17.6152248 1.57000005
v 18.7482357 17.6068153 1.57000005
v 18.7738953 17.6017113 1.57000005
v 18.7999992 17.6000004 1.57000005
v 18.8261051 17.6017113 1.57000005
v 18.8517647 17.6068153 1.57000005
v 18.8765373 17.6152248 1.57000005
v 18.8999996 17.6267948 1.57000005
v 18.9217529 17.6413288 1.57000005
v 18.9414215 17.6585789 1.57000005
v 18.9586716 17.6782475 1.57000005
v 18.9732056 17.7000008 1.57000005
v 18.9847755 17.7234631 1.57000005
v 18.993185 17.7482357 1.57000005
v 18.9982891 17.7738953 1.57000005
v 10.0200005 20 1.57000005
v 10.0181179 20.0287151 1.57000005
v 10.0125036 20.0569401 1.57000005
v 10.0032539 20.0841904 1.57000005
v 9.99052525 20.1100006 1.57000005
v 9.97453785 20.1339283 1.57000005
v 9.95556355 20.1555634 1.57000005
v 9.93392754 20.1745377 1.57000005
v 9.90999985 20.1905251 1.57000005
v 9.88419056 20.2032528 1.57000005
v 9.85694027 20.2125034 1.57000005
v 9.82871532 20.2181187 1.57000005
v 9.80000019 20.2199993 1.57000005
v 9.7712841 20.2181187 1.57000005
v 9.74306011 20.2125034 1.57000005
v 9.71580982 20.2032528 1.57000005
v 9.68999958 20.1905251 1.57000005
v 9.66607285 20.1745377 1.57000005
v 9.64443684 20.1555634 1.57000005
v 9.62546253 20.1339283 1.57000005
v 9.60947418 20.1100006 1.57000005
v 9.59674644 20.0841904 1.57000005
v 9.58749676 20.0569401 1.57000005
v 9.58188248 20.0287151 1.57000005
v 9.57999992 20 1.57000005
v 9.58188248 19.9712849 1.57000005
v 9.58749676 19.9430599 1.57000005
v 9.59674644 19.9158096 1.57000005
v 9.60947418 19.8899994 1.57000005
v 9.62546253 19.8660717 1.57000005
v 9.64443684 19.8444366 1.57000005
v 9.66607285 19.8254623 1.57000005
v 9.68999958 19.8094749 1.57000005
v 9.71580982 19.7967472 1.57000005
v 9.74306011 19.7874966 1.57000005
v 9.7712841 19.7818813 1.57000005
v 9.80000019 19.7800007 1.57000005
v 9.82871532 19.7818813 1.57000005
v 9.85694027 19.7874966 1.57000005
v 9.88419056 19.7967472 1.57000005
v 9.90999985 19.8094749 1.57000005
v 9.93392754 19.8254623 1.57000005
v 9.95556355 19.8444366 1.57000005
v 9.97453785 19.8660717 1.57000005
v 9.99052525 19.8899994 1.57000005
v 10.0032539 19.9158096 1.57000005
v 10.0125036 19.9430599 1.57000005
v 10.0181179 19.9712849 1.57000005
v 10.0200005 20 1.95000005
v 10.0181179 20.0287151 1.95000005
v 10.0125036 20.0569401 1.95000005
v 10.0032539 20.0841904 1.95000005
v 9.99052525 20.1100006 1.95000005
v 9.97453785 20.1339283 1.95000005
v 9.95556355 20.1555634 1.95000005
v 9.93392754 20.1745377 1.95000005
v 9.90999985 20.1905251 1.95000005
v 9.88419056 20.2032528 1.95000005
v 9.85694027 20.2125034 1.95000005
v 9.82871532 20.2181187 1.95000005
v 9.80000019 20.2199993 1.95000005
v 9.7712841 20.2181187 1.95000005
v 9.74306011 20.2125034 1.95000005
v 9.71580982 20.2032528 1.95000005
v 9.68999958 20.1905251 1.95000005
v 9.66607285 20.1745377 1.95000005
v 9.64443684 20.1555634 1.95000005
v 9.62546253 20.1339283 1.95000005
v 9.60947418 20.1100006 1.95000005
v 9.59674644 20.0841904 1.95000005
v 9.58749676 20.0569401 1.95000005
v 9.58188248 20.0287151 1.95000005
v 9.57999992 20 1.95000005
v 9.58188248 19.9712849 1.95000005
v 9.58749676 19.9430599 1.95000005
v 9.59674644 19.9158096 1.95000005
v 9.60947418 19.8899994 1.95000005
v 9.62546253 19.8660717 1.95000005
v 9.64443684 19.8444366 1.95000005
v 9.66607285 19.8254623 1.95000005
v 9.68999958 19.8094749 1.95000005
v 9.71580982 19.7967472 1.95000005
v 9.74306011 19.7874966 1.95000005
v 9.7712841 19.7818813 1.95000005
v 9.80000019 19.7800007 1.95000005
v 9.82871532 19.7818813 1.95000005
v 9.85694027 19.7874966 1.95000005
v 9.88419056 19.7967472 1.95000005
v 9.90999985 19.8094749 1.95000005
v 9.93392754 19.8254623 1.95000005
v 9.95556355 19.8444366 1.95000005
v 9.97453785 19.8660717 1.95000005
v 9.99052525 19.8899994 1.95000005
v 10.0032539 19.9158096 1.95000005
v 10.0125036 19.9430599 1.95000005
v 10.0181179 19.9712849 1.95000005
v 10 20 1.95000005
v 9.99828911 20.0261059 1.95000005
v 9.99318504 20.0517635 1.95000005
v 9.98477554 20.0765362 1.95000005
v 9.97320461 20.1000004 1.95000005
v 9.95867062 20.1217518 1.95000005
v 9.94142151 20.1414223 1.95000005
v 9.92175198 20.1586704 1.95000005
v 9.89999962 20.1732044 1.95000005
v 9.87653637 20.1847763 1.95000005
v 9.85176373 20.1931858 1.95000005
v 9.82610512 20.1982899 1.95000005
v 9.80000019 20.2000008 1.95000005
v 9.77389431 20.1982899 1.95000005
v 9.74823666 20.1931858 1.95000005
v 9.72346306 20.1847763 1.95000005
v 9.69999981 20.1732044 1.95000005
v 9.67824745 20.1586704 1.95000005
v 9.65857887 20.1414223 1.95000005
v 9.64132977 20.1217518 1.95000005
v 9.62679482 20.1000004 1.95000005
v 9.61522388 20.0765362 1.95000005
v 9.60681438 20.0517635 1.95000005
v 9.60171127 20.0261059 1.95000005
v 9.60000038 20 1.95000005
v 9.60171127 19.9738941 1.95000005
v 9.60681438 19.9482365 1.95000005
v 9.61522388 19.9234638 1.95000005
v 9.62679482 19.8999996 1.95000005
v 9.64132977 19.8782482 1.95000005
v 9.65857887 19.8585777 1.95000005
v 9.67824745 19.8413296 1.95000005
v 9.69999981 19.8267956 1.95000005
v 9.72346306 19.8152237 1.95000005
v 9.74823666 19.8068142 1.95000005
v 9.77389431 19.8017101 1.95000005
v 9.80000019 19.7999992 1.95000005
v 9.82610512 19.8017101 1.95000005
v 9.85176373 19.8068142 1.95000005
v 9.87653637 19.8152237 1.95000005
v 9.89999962 19.8267956 1.95000005
v 9.92175198 19.8413296 1.95000005
v 9.94142151 19.8585777 1.95000005
v 9.95867062 19.8782482 1.95000005
v 9.97320461 19.8999996 1.95000005
v 9.98477554 19.9234638 1.95000005
v 9.99318504 19.9482365 1.95000005
v 9.99828911 19.9738941 1.95000005
v 10 20 1.57000005
v 9.99828911 20.0261059 1.57000005
v 9.99318504 20.0517635 1.57000005
v 9.98477554 20.0765362 1.57000005
v 9.97320461 20.1000004 1.57000005
v 9.95867062 20.1217518 1.57000005
v 9.94142151 20.1414223 1.57000005
v 9.92175198 20.1586704 1.57000005
v 9.89999962 20.1732044 1.57000005
v 9.87653637 20.1847763 1.57000005
v 9.85176373 20.1931858 1.57000005
v 9.82610512 20.1982899 1.57000005
v 9.80000019 20.2000008 1.57000005
v 9.77389431 20.1982899 1.57000005
v 9.74823666 20.1931858 1.57000005
v 9.72346306 20.1847763 1.57000005
v 9.69999981 20.1732044 1.57000005
v 9.67824745 20.1586704 1.57000005
v 9.65857887 20.1414223 1.57000005
v 9.64132977 20.1217518 1.57000005
v 9.62679482 20.1000004 1.57000005
v 9.61522388 20.0765362 1.57000005
v 9.60681438 20.0517635 1.57000005
v 9.60171127 20.0261059 1.57000005
v 9.60000038 20 1.57000005
v 9.60171127 19.9738941 1.57000005
v 9.60681438 19.9482365 1.57000005
v 9.61522388 19.9234638 1.57000005
v 9.62679482 19.8999996 1.57000005
v 9.64132977 19.8782482 1.57000005
v 9.65857887 19.8585777 1.57000005
v 9.67824745 19.8413296 1.57000005
v 9.69999981 19.8267956 1.57000005
v 9.72346306 19.8152237 1.57000005
v 9.74823666 19.8068142 1.57000005
v 9.77389431 19.8017101 1.57000005
v 9.80000019 19.7999992 1.57000005
v 9.82610512 19.8017101 1.57000005
v 9.85176373 19.8068142 1.57000005
v 9.87653637 19.8152237 1.57000005
v 9.89999962 19.8267956 1.57000005
v 9.92175198 19.8413296 1.57000005
v 9.94142151 19.8585777 1.57000005
v 9.95867062 19.8782482 1.57000005
v 9.97320461 19.8999996 1.57000005
v 9.98477554 19.9234638 1.57000005
v 9.99318504 19.9482365 1.57000005
v 9.99828911 19.9738941 1.57000005
f 1 2 50
f 1 50 49
f 2 3 51
f 2 51 50
f 3 4 52
f 3 52 51
f 4 5 53
f 4 53 52
f 5 6 54
f 5 54 53
f 6 7 55
f 6 55 54
f 7 8 56
f 7 56 55
f 8 9 57
f 8 57 56
f 9 10 58
f 9 58 57
f 10 11 59
f 10 59 58
f 11 12 60
f 11 60 59
f 12 13 61
f 12 61 60
f 13 14 62
f 13 62 61
f 14 15 63
f 14 63 62
f 15 16 64
f 15 64 63
f 16 17 65
f 16 65 64
f 17 18 66
f 17 66 65
f 18 19 67
f 18 67 66
f 19 20 68
f 19 68 67
f 20 21 69
f 20 69 68
f 21 22 70
f 21 70 69
f 22 23 71
f 22 71 70
f 23 24 72
f 23 72 71
f 24 25 73
f 24 73 72
f 25 26 74
f 25 74 73
f 26 27 75
f 26 75 74
f 27 28 76
f 27 76 75
f 28 29 77
f 28 77 76
f 29 30 78
f 29 78 77
f 30 31 79
f 30 79 78
f 31 32 80
f 31 80 79
f 32 33 81
f 32 81 80
f 33 34 82
f 33 82 81
f 34 35 83
f 34 83 82
f 35 36 84
f 35 84 83
f 36 37 85
f 36 85 84
f 37 38 86
f 37 86 85
f 38 39 87
f 38 87 86
f 39 40 88
f 39 88 87
f 40 41 89
f 40 89 88
f 41 42 90
f 41 90 89
f 42 43 91
f 42 91 90
f 43 44 92
f 43 92 91
f 44 45 93
f 44 93 92
f 45 46 94
f 45 94 93
f 46 47 95
f 46 95 94
f 47 48 96
f 47 96 95
f 48 1 49
f 48 49 96
f 49 50 98
f 49 98 97
f 50 51 99
f 50 99 98
f 51 52 100
f 51 100 99
f 52 53 101
f 52 101 100
f 53 54 102
f 53 102 101
f 54 55 103
f 54 103 102
f 55 56 104
f 55 104 103
f 56 57 105
f 56 105 104
f 57 58 106
f 57 106 105
f 58 59 107
f 58 107 106
f 59 60 108
f 59 108 107
f 60 61 109
f 60 109 108
f 61 62 110
f 61 110 109
f 62 63 111
f 62 111 110
f 63 64 112
f 63 112 111
f 64 65 113
f 64 113 112
f 65 66 114
f 65 114 113
f 66 67 115
f 66 115 114
f 67 68 116
f 67 116 115
f 68 69 117
f 68 117 116
f 69 70 118
f 69 118 117
f 70 71 119
f 70 119 118
f 71 72 120
f 71 120 119
f 72 73 121
f 72 121 120
f 73 74 122
f 73 122 121
f 74 75 123
f 74 123 122
f 75 76 124
f 75 124 123
f 76 77 125
f 76 125 124
f 77 78 126
f 77 126 125
f 78 79 127
f 78 127 126
f 79 80 128
f 79 128 127
f 80 81 129
f 80 129 128
f 81 82 130
f 81 130 129
f 82 83 131
f 82 131 130
f 83 84 132
f 83 132 131
f 84 85 133
f 84 133 132
f 85 86 134
f 85 134 133
f 86 87 135
f 86 135 134
f 87 88 136
f 87 136 135
f 88 89 137
f 88 137 136
f 89 90 138
f 89 138 137
f 90 91 139
f 90 139 138
f 91 92 140
f 91 140 139
f 92 93 141
f 92 141 140
f 93 94 142
f 93 142 141
f 94 95 143
f 94 143 142
f 95 96 144
f 95 144 143
f 96 49 97
f 96 97 144
f 97 98 146
f 97 146 145
f 98 99 147
f 98 147 146
f 99 100 148
f 99 148 147
f 100 101 149
f 100 149 148
f 101 102 150
f 101 150 149
f 102 103 151
f 102 151 150
f 103 104 152
f 103 152 151
f 104 105 153
f 104 153 152
f 105 106 154
f 105 154 153
f 106 107 155
f 106 155 154
f 107 108 156
f 107 156 155
f 108 109 157
f 108 157 156
f 109 110 158
f 109 158 157
f 110 111 159
f 110 159 158
f 111 112 160
f 111 160 159
f 112 113 161
f 112 161 160
f 113 114 162
f 113 162 161
f 114 115 163
f 114 163 162
f 115 116 164
f 115 164 163
f 116 117 165
f 116 165 164
f 117 118 166
f 117 166 165
f 118 119 167
f 118 167 166
f 119 120 168
f 119 168 167
f 120 121 169
f 120 169 168
f 121 122 170
f 121 170 169
f 122 123 171
f 122 171 170
f 123 124 172
f 123 172 171
f 124 125 173
f 124 173 172
f 125 126 174
f 125 174 173
f 126 127 175
f 126 175 174
f 127 128 176
f 127 176 175
f 128 129 177
f 128 177 176
f 129 130 178
f 129 178 177
f 130 131 179
f 130 179 178
f 131 132 180
f 131 180 179
f 132 133 181
f 132 181 180
f 133 134 182
f 133 182 181
f 134 135 183
f 134 183 182
f 135 136 184
f 135 184 183
f 136 137 185
f 136 185 184
f 137 138 186
f 137 186 185
f 138 139 187
f 138 187 186
f 139 140 188
f 139 188 187
f 140 141 189
f 140 189 188
f 141 142 190
f 141 190 189
f 142 143 191
f 142 191 190
f 143 144 192
f 143 192 191
f 144 97 145
f 144 145 192
f 193 194 242
f 193 242 241
f 194 195 243
f 194 243 242
f 195 196 244
f 195 244 243
f 196 197 245
f 196 245 244
f 197 198 246
f 197 246 245
f 198 199 247
f 198 247 246
f 199 200 248
f 199 248 247
f 200 201 249
f 200 249 248
f 201 202 250
f 201 250 249
f 202 203 251
f 202 251 250
f 203 204 252
f 203 252 251
f 204 205 253
f 204 253 252
f 205 206 254
f 205 254 253
f 206 207 255
f 206 255 254
f 207 208 256
f 207 256 255
f 208 209 257
f 208 257 256
f 209 210 258
f 209 258 257
f 210 211 259
f 210 259 258
f 211 212 260
f 211 260 259
f 212 213 261
f 212 261 260
f 213 214 262
f 213 262 261
f 214 215 263
f 214 263 262
f 215 216 264
f 215 264 263
f 216 217 265
f 216 265 264
f 217 218 266
f 217 266 265
f 218 219 267
f 218 267 266
f 219 220 268
f 219 268 267
f 220 221 269
f 220 269 268
f 221 222 270
f 221 270 269
f 222 223 271
f 222 271 270
f 223 224 272
f 223 272 271
f 224 225 273
f 224 273 272
f 225 226 274
f 225 274 273
f 226 227 275
f 226 275 274
f 227 228 276
f 227 276 275
f 228 229 277
f 228 277 276
f 229 230 278
f 229 278 277
f 230 231 279
f 230 279 278
f 231 232 280
f 231 280 279
f 232 233 281
f 232 281 280
f 233 234 282
f 233 282 281
f 234 235 283
f 234 283 282
f 235 236 284
f 235 284 283
f 236 237 285
f 236 285 284
f 237 238 286
f 237 286 285
f 238 239 287
f 238 287 286
f 239 240 288
f 239 288 287
f 240 193 241
f 240 241 288
f 241 242 290
f 241 290 289
f 242 243 291
f 242 291 290
f 243 244 292
f 243 292 291
f 244 245 293
f 244 293 292
f 245 246 294
f 245 294 293
f 246 247 295
f 246 295 294
f 247 248 296
f 247 296 295
f 248 249 297
f 248 297 296
f 249 250 298
f 249 298 297
f 250 251 299
f 250 299 298
f 251 252 300
f 251 300 299
f 252 253 301
f 252 301 300
f 253 254 302
f 253 302 301
f 254 255 303
f 254 303 302
f 255 256 304
f 255 304 303
f 256 257 305
f 256 305 304
f 257 258 306
f 257 306 305
f 258 259 307
f 258 307 306
f 259 260 308
f 259 308 307
f 260 261 309
f 260 309 308
f 261 262 310
f 261 310 309
f 262 263 311
f 262 311 310
f 263 264 312
f 263 312 311
f 264 265 313
f 264 313 312
f 265 266 314
f 265 314 313
f 266 267 315
f 266 315 314
f 267 268 316
f 267 316 315
f 268 269 317
f 268 317 316
f 269 270 318
f 269 318 317
f 270 271 319
f 270 319 318
f 271 272 320
f 271 320 319
f 272 273 321
f 272 321 320
f 273 274 322
f 273 322 321
f 274 275 323
f 274 323 322
f 275 276 324
f 275 324 323
f 276 277 325
f 276 325 324
f 277 278 326
f 277 326 325
f 278 279 327
f 278 327 326
f 279 280 328
f 279 328 327
f 280 281 329
f 280 329 328
f 281 282 330
f 281 330 329
f 282 283 331
f 282 331 330
f 283 284 332
f 283 332 331
f 284 285 333
f 284 333 332
f 285 286 334
f 285 334 333
f 286 287 335
f 286 335 334
f 287 288 336
f 287 336 335
f 288 241 289
f 288 289 336
f 289 290 338
f 289 338 337
f 290 291 339
f 290 339 338
f 291 292 340
f 291 340 339
f 292 293 341
f 292 341 340
f 293 294 342
f 293 342 341
f 294 295 343
f 294 343 342
f 295 296 344
f 295 344 343
f 296 297 345
f 296 345 344
f 297 298 346
f 297 346 345
f 298 299 347
f 298 347 346
f 299 300 348
f 299 348 347
f 300 301 349
f 300 349 348
f 301 302 350
f 301 350 349
f 302 303 351
f 302 351 350
f 303 304 352
f 303 352 351
f 304 305 353
f 304 353 352
f 305 306 354
f 305 354 353
f 306 307 355
f 306 355 354
f 307 308 356
f 307 356 355
f 308 309 357
f 308 357 356
f 309 310 358
f 309 358 357
f 310 311 359
f 310 359 358
f 311 312 360
f 311 360 359
f 312 313 361
f 312 361 360
f 313 314 362
f 313 362 361
f 314 315 363
f 314 363 362
f 315 316 364
f 315 364 363
f 316 317 365
f 316 365 364
f 317 318 366
f 317 366 365
f 318 319 367
f 318 367 366
f 319 320 368
f 319 368 367
f 320 321 369
f 320 369 368
f 321 322 370
f 321 370 369
f 322 323 371
f 322 371 370
f 323 324 372
f 323 372 371
f 324 325 373
f 324 373 372
f 325 326 374
f 325 374 373
f 326 327 375
f 326 375 374
f 327 328 376
f 327 376 375
f 328 329 377
f 328 377 376
f 329 330 378
f 329 378 377
f 330 331 379
f 330 379 378
f 331 332 380
f 331 380 379
f 332 333 381
f 332 381 380
f 333 334 382
f 333 382 381
f 334 335 383
f 334 383 382
f 335 336 384
f 335 384 383
f 336 289 337
f 336 337 384
f 385 386 434
f 385 434 433
f 386 387 435
f 386 435 434
f 387 388 436
f 387 436 435
f 388 389 437
f 388 437 436
f 389 390 438
f 389 438 437
f 390 391 439
f 390 439 438
f 391 392 440
f 391 440 439
f 392 393 441
f 392 441 440
f 393 394 442
f 393 442 441
f 394 395 443
f 394 443 442
f 395 396 444
f 395 444 443
f 396 397 445
f 396 445 444
f 397 398 446
f 397 446 445
f 398 399 447
f 398 447 446
f 399 400 448
f 399 448 447
f 400 401 449
f 400 449 448
f 401 402 450
f 401 450 449
f 402 403 451
f 402 451 450
f 403 404 452
f 403 452 451
f 404 405 453
f 404 453 452
f 405 406 454
f 405 454 453
f 406 407 455
f 406 455 454
f 407 408 456
f 407 456 455
f 408 409 457
f 408 457 456
f 409 410 458
f 409 458 457
f 410 411 459
f 410 459 458
f 411 412 460
f 411 460 459
f 412 413 461
f 412 461 460
f 413 414 462
f 413 462 461
f 414 415 463
f 414 463 462
f 415 416 464
f 415 464 463
f 416 417 465
f 416 465 464
f 417 418 466
f 417 466 465
f 418 419 467
f 418 467 466
f 419 420 468
f 419 468 467
f 420 421 469
f 420 469 468
f 421 422 470
f 421 470 469
f 422 423 471
f 422 471 470
f 423 424 472
f 423 472 471
f 424 425 473
f 424 473 472
f 425 426 474
f 425 474 473
f 426 427 475
f 426 475 474
f 427 428 476
f 427 476 475
f 428 429 477
f 428 477 476
f 429 430 478
f 429 478 477
f 430 431 479
f 430 479 478
f 431 432 480
f 431 480 479
f 432 385 433
f 432 433 480
f 433 434 482
f 433 482 481
f 434 435 483
f 434 483 482
f 435 436 484
f 435 484 483
f 436 437 485
f 436 485 484
f 437 438 486
f 437 486 485
f 438 439 487
f 438 487 486
f 439 440 488
f 439 488 487
f 440 441 489
f 440 489 488
f 441 442 490
f 441 490 489
f 442 443 491
f 442 491 490
f 443 444 492
f 443 492 491
f 444 445 493
f 444 493 492
f 445 446 494
f 445 494 493
f 446 447 495
f 446 495 494
f 447 448 496
f 447 496 495
f 448 449 497
f 448 497 496
f 449 450 498
f 449 498 497
f 450 451 499
f 450 499 498
f 451 452 500
f 451 500 499
f 452 453 501
f 452 501 500
f 453 454 502
f 453 502 501
f 454 455 503
f 454 503 502
f 455 456 504
f 455 504 503
f 456 457 505
f 456 505 504
f 457 458 506
f 457 506 505
f 458 459 507
f 458 507 506
f 459 460 508
f 459 508 507
f 460 461 509
f 460 509 508
f 461 462 510
f 461 510 509
f 462 463 511
f 462 511 510
f 463 464 512
f 463 512 511
f 464 465 513
f 464 513 512
f 465 466 514
f 465 514 513
f 466 467 515
f 466 515 514
f 467 468 516
f 467 516 515
f 468 469 517
f 468 517 516
f 469 470 518
f 469 518 517
f 470 471 519
f 470 519 518
f 471 472 520
f 471 520 519
f 472 473 521
f 472 521 520
f 473 474 522
f 473 522 521
f 474 475 523
f 474 523 522
f 475 476 524
f 475 524 523
f 476 477 525
f 476 525 524
f 477 478 526
f 477 526 525
f 478 479 527
f 478 527 526
f 479 480 528
f 479 528 527
f 480 433 481
f 480 481 528
f 481 482 530
f 481 530 529
f 482 483 531
f 482 531 530
f 483 484 532
f 483 532 531
f 484 485 533
f 484 533 532
f 485 486 534
f 485 534 533
f 486 487 535
f 486 535 534
f 487 488 536
f 487 536 535
f 488 489 537
f 488 537 536
f 489 490 538
f 489 538 537
f 490 491 539
f 490 539 538
f 491 492 540
f 491 540 539
f 492 493 541
f 492 541 540
f 493 494 542
f 493 542 541
f 494 495 543
f 494 543 542
f 495 496 544
f 495 544 543
f 496 497 545
f 496 545 544
f 497 498 546
f 497 546 545
f 498 499 547
f 498 547 546
f 499 500 548
f 499 548 547
f 500 501 549
f 500 549 548
f 501 502 550
f 501 550 549
f 502 503 551
f 502 551 550
f 503 504 552
f 503 552 551
f 504 505 553
f 504 553 552
f 505 506 554
f 505 554 553
f 506 507 555
f 506 555 554
f 507 508 556
f 507 556 555
f 508 509 557
f 508 557 556
f 509 510 558
f 509 558 557
f 510 511 559
f 510 559 558
f 511 512 560
f 511 560 559
f 512 513 561
f 512 561 560
f 513 514 562
f 513 562 561
f 514 515 563
f 514 563 562
f 515 516 564
f 515 564 563
f 516 517 565
f 516 565 564
f 517 518 566
f 517 566 565
f 518 519 567
f 518 567 566
f 519 520 568
f 519 568 567
f 520 521 569
f 520 569 568
f 521 522 570
f 521 570 569
f 522 523 571
f 522 571 570
f 523 524 572
f 523 572 571
f 524 525 573
f 524 573 572
f 525 526 574
f 525 574 573
f 526 527 575
f 526 575 574
f 527 528 576
f 527 576 575
f 528 481 529
f 528 529 576
