# Frozen M4 display cutaway. World coordinates: Z up, metres.
v 16.1200008 22.7757548 0.367500007
v 16.1200008 22.78 0.375500008
v 16.1200008 22.7787566 0.369843153
v 16.1200008 22.7757548 0.432500005
v 16.1200008 22.78 0.424500003
v 16.1200008 22.7787566 0.430156859
v 16.1647276 22.7732232 0.367500007
v 16.1650887 22.7774479 0.375500008
v 16.1649829 22.7762105 0.369843153
v 16.1647276 22.7732232 0.432500005
v 16.1650887 22.7774479 0.424500003
v 16.1649829 22.7762105 0.430156859
v 16.2090237 22.7656526 0.367500007
v 16.2097424 22.7698162 0.375500008
v 16.2095319 22.7685967 0.369843153
v 16.2090237 22.7656526 0.432500005
v 16.2097424 22.7698162 0.424500003
v 16.2095319 22.7685967 0.430156859
v 16.2524621 22.7531161 0.367500007
v 16.2535318 22.7571784 0.375500008
v 16.2532185 22.7559885 0.369843153
v 16.2524621 22.7531161 0.432500005
v 16.2535318 22.7571784 0.424500003
v 16.2532185 22.7559885 0.430156859
v 16.2946254 22.7357341 0.367500007
v 16.2960352 22.7396561 0.375500008
v 16.2956223 22.7385074 0.369843153
v 16.2946254 22.7357341 0.432500005
v 16.2960352 22.7396561 0.424500003
v 16.2956223 22.7385074 0.430156859
v 16.3351065 22.7136744 0.367500007
v 16.3368433 22.7174182 0.375500008
v 16.3363347 22.7163217 0.369843153
v 16.3351065 22.7136744 0.432500005
v 16.3368433 22.7174182 0.424500003
v 16.3363347 22.7163217 0.430156859
v 16.3735161 22.6871492 0.367500007
v 16.3755632 22.6906789 0.375500008
v 16.3749636 22.6896451 0.369843153
v 16.3735161 22.6871492 0.432500005
v 16.3755632 22.6906789 0.424500003
v 16.3749636 22.6896451 0.430156859
v 16.4094844 22.656414 0.367500007
v 16.4118218 22.6596955 0.375500008
v 16.4111372 22.6587344 0.369843153
v 16.4094844 22.656414 0.432500005
v 16.4118218 22.6596955 0.424500003
v 16.4111372 22.6587344 0.430156859
v 16.4426647 22.6217648 0.367500007
v 16.44527 22.6247666 0.375500008
v 16.4445069 22.6238873 0.369843153
v 16.4426647 22.6217648 0.432500005
v 16.44527 22.6247666 0.424500003
v 16.4445069 22.6238873 0.430156859
v 16.4727376 22.5835354 0.367500007
v 16.4755856 22.5862284 0.375500008
v 16.4747514 22.5854397 0.369843153
v 16.4727376 22.5835354 0.432500005
v 16.4755856 22.5862284 0.424500003
v 16.4747514 22.5854397 0.430156859
v 16.4994134 22.5420937 0.367500007
v 16.5024769 22.5444522 0.375500008
v 16.5015796 22.5437614 0.369843153
v 16.4994134 22.5420937 0.432500005
v 16.5024769 22.5444522 0.424500003
v 16.5015796 22.5437614 0.430156859
v 16.5224352 22.4978392 0.367500007
v 16.5256846 22.4998403 0.375500008
v 16.5247329 22.4992542 0.369843153
v 16.5224352 22.4978392 0.432500005
v 16.5256846 22.4998403 0.424500003
v 16.5247329 22.4992542 0.430156859
v 16.5415814 22.4511978 0.367500007
v 16.5449854 22.4528222 0.375500008
v 16.5439884 22.4523464 0.369843153
v 16.5415814 22.4511978 0.432500005
v 16.5449854 22.4528222 0.424500003
v 16.5439884 22.4523464 0.430156859
v 16.5566677 22.4026184 0.367500007
v 16.5601934 22.4038509 0.375500008
v 16.5591607 22.4034899 0.369843153
v 16.5566677 22.4026184 0.432500005
v 16.5601934 22.4038509 0.424500003
v 16.5591607 22.4034899 0.430156859
v 16.5675484 22.3525698 0.367500007
v 16.5711621 22.3533979 0.375500008
v 16.5701036 22.3531553 0.369843153
v 16.5675484 22.3525698 0.432500005
v 16.5711621 22.3533979 0.424500003
v 16.5701037 22.3531553 0.430156859
v 16.5741191 22.301533 0.367500007
v 16.5777858 22.3019491 0.375500008
v 16.5767119 22.3018272 0.369843153
v 16.5741191 22.301533 0.432500005
v 16.5777858 22.3019491 0.424500003
v 16.5767119 22.3018272 0.430156859
v 16.5763164 22.25 0.367500007
v 16.5800008 22.25 0.375500008
v 16.5789217 22.25 0.369843153
v 16.5763164 22.25 0.432500005
v 16.5800008 22.25 0.424500003
v 16.5789217 22.25 0.430156859
v 16.5741191 22.198467 0.367500007
v 16.5777858 22.1980509 0.375500008
v 16.5767119 22.1981728 0.369843153
v 16.5741191 22.198467 0.432500005
v 16.5777858 22.1980509 0.424500003
v 16.5767119 22.1981728 0.430156859
v 16.5675484 22.1474302 0.367500007
v 16.5711621 22.1466021 0.375500008
v 16.5701037 22.1468447 0.369843153
v 16.5675484 22.1474302 0.432500005
v 16.5711621 22.1466021 0.424500003
v 16.5701036 22.1468447 0.430156859
v 16.5566677 22.0973816 0.367500007
v 16.5601934 22.0961491 0.375500008
v 16.5591607 22.0965101 0.369843153
v 16.5566677 22.0973816 0.432500005
v 16.5601934 22.0961491 0.424500003
v 16.5591607 22.0965101 0.430156859
v 16.5415814 22.0488022 0.367500007
v 16.5449854 22.0471778 0.375500008
v 16.5439884 22.0476536 0.369843153
v 16.5415814 22.0488022 0.432500005
v 16.5449854 22.0471778 0.424500003
v 16.5439884 22.0476536 0.430156859
v 16.5224352 22.0021608 0.367500007
v 16.5256846 22.0001597 0.375500008
v 16.5247329 22.0007458 0.369843153
v 16.5224352 22.0021608 0.432500005
v 16.5256846 22.0001597 0.424500003
v 16.5247329 22.0007458 0.430156859
v 16.4994134 21.9579063 0.367500007
v 16.5024769 21.9555478 0.375500008
v 16.5015796 21.9562386 0.369843153
v 16.4994134 21.9579063 0.432500005
v 16.5024769 21.9555478 0.424500003
v 16.5015796 21.9562386 0.430156859
v 16.4727376 21.9164646 0.367500007
v 16.4755856 21.9137716 0.375500008
v 16.4747514 21.9145603 0.369843153
v 16.4727376 21.9164646 0.432500005
v 16.4755856 21.9137716 0.424500003
v 16.4747514 21.9145603 0.430156859
v 16.4426647 21.8782352 0.367500007
v 16.44527 21.8752334 0.375500008
v 16.4445069 21.8761127 0.369843153
v 16.4426647 21.8782352 0.432500005
v 16.44527 21.8752334 0.424500003
v 16.4445069 21.8761127 0.430156859
v 16.4094844 21.843586 0.367500007
v 16.4118218 21.8403045 0.375500008
v 16.4111372 21.8412656 0.369843153
v 16.4094844 21.843586 0.432500005
v 16.4118218 21.8403045 0.424500003
v 16.4111372 21.8412656 0.430156859
v 16.3735161 21.8128508 0.367500007
v 16.3755632 21.8093211 0.375500008
v 16.3749636 21.8103549 0.369843153
v 16.3735161 21.8128508 0.432500005
v 16.3755632 21.8093211 0.424500003
v 16.3749636 21.8103549 0.430156859
v 16.3351065 21.7863256 0.367500007
v 16.3368433 21.7825818 0.375500008
v 16.3363347 21.7836783 0.369843153
v 16.3351065 21.7863256 0.432500005
v 16.3368433 21.7825818 0.424500003
v 16.3363347 21.7836783 0.430156859
v 16.2946254 21.7642659 0.367500007
v 16.2960352 21.7603439 0.375500008
v 16.2956223 21.7614926 0.369843153
v 16.2946254 21.7642659 0.432500005
v 16.2960352 21.7603439 0.424500003
v 16.2956223 21.7614926 0.430156859
v 16.2524621 21.7468839 0.367500007
v 16.2535318 21.7428216 0.375500008
v 16.2532185 21.7440115 0.369843153
v 16.2524621 21.7468839 0.432500005
v 16.2535318 21.7428216 0.424500003
v 16.2532185 21.7440115 0.430156859
v 16.2090237 21.7343474 0.367500007
v 16.2097424 21.7301838 0.375500008
v 16.2095319 21.7314033 0.369843153
v 16.2090237 21.7343474 0.432500005
v 16.2097424 21.7301838 0.424500003
v 16.2095319 21.7314033 0.430156859
v 16.1647276 21.7267768 0.367500007
v 16.1650887 21.7225521 0.375500008
v 16.1649829 21.7237895 0.369843153
v 16.1647276 21.7267768 0.432500005
v 16.1650887 21.7225521 0.424500003
v 16.1649829 21.7237895 0.430156859
v 16.1200008 21.7242452 0.367500007
v 16.1200008 21.72 0.375500008
v 16.1200008 21.7212434 0.369843153
v 16.1200008 21.7242452 0.432500005
v 16.1200008 21.72 0.424500003
v 16.1200008 21.7212434 0.430156859
v 16.0752741 21.7267768 0.367500007
v 16.074913 21.7225521 0.375500008
v 16.0750187 21.7237895 0.369843153
v 16.0752741 21.7267768 0.432500005
v 16.074913 21.7225521 0.424500003
v 16.0750187 21.7237895 0.430156859
v 16.030978 21.7343474 0.367500007
v 16.0302593 21.7301838 0.375500008
v 16.0304698 21.7314033 0.369843153
v 16.030978 21.7343474 0.432500005
v 16.0302593 21.7301838 0.424500003
v 16.0304698 21.7314033 0.430156859
v 15.9875395 21.7468839 0.367500007
v 15.9864699 21.7428216 0.375500008
v 15.9867832 21.7440115 0.369843153
v 15.9875395 21.7468839 0.432500005
v 15.9864699 21.7428216 0.424500003
v 15.9867832 21.7440115 0.430156859
v 15.9453763 21.7642659 0.367500007
v 15.9439664 21.7603439 0.375500008
v 15.9443794 21.7614926 0.369843153
v 15.9453763 21.7642659 0.432500005
v 15.9439664 21.7603439 0.424500003
v 15.9443794 21.7614926 0.430156859
v 15.9048951 21.7863256 0.367500007
v 15.9031583 21.7825818 0.375500008
v 15.903667 21.7836783 0.369843153
v 15.9048951 21.7863256 0.432500005
v 15.9031583 21.7825818 0.424500003
v 15.903667 21.7836783 0.430156859
v 15.8664855 21.8128508 0.367500007
v 15.8644385 21.8093211 0.375500008
v 15.8650381 21.8103549 0.369843153
v 15.8664855 21.8128508 0.432500005
v 15.8644385 21.8093211 0.424500003
v 15.8650381 21.8103549 0.430156859
v 15.8305173 21.843586 0.367500007
v 15.8281799 21.8403045 0.375500008
v 15.8288645 21.8412656 0.369843153
v 15.8305173 21.843586 0.432500005
v 15.8281799 21.8403045 0.424500003
v 15.8288645 21.8412656 0.430156859
v 15.797337 21.8782352 0.367500007
v 15.7947317 21.8752334 0.375500008
v 15.7954948 21.8761127 0.369843153
v 15.797337 21.8782352 0.432500005
v 15.7947317 21.8752334 0.424500003
v 15.7954948 21.8761127 0.430156859
v 15.7672641 21.9164646 0.367500007
v 15.764416 21.9137716 0.375500008
v 15.7652502 21.9145603 0.369843153
v 15.7672641 21.9164646 0.432500005
v 15.764416 21.9137716 0.424500003
v 15.7652502 21.9145603 0.430156859
v 15.7405883 21.9579063 0.367500007
v 15.7375248 21.9555478 0.375500008
v 15.7384221 21.9562386 0.369843153
v 15.7405883 21.9579063 0.432500005
v 15.7375248 21.9555478 0.424500003
v 15.7384221 21.9562386 0.430156859
v 15.7175664 22.0021608 0.367500007
v 15.7143171 22.0001597 0.375500008
v 15.7152688 22.0007458 0.369843153
v 15.7175664 22.0021608 0.432500005
v 15.7143171 22.0001597 0.424500003
v 15.7152688 22.0007458 0.430156859
v 15.6984203 22.0488022 0.367500007
v 15.6950163 22.0471778 0.375500008
v 15.6960133 22.0476536 0.369843153
v 15.6984203 22.0488022 0.432500005
v 15.6950163 22.0471778 0.424500003
v 15.6960133 22.0476536 0.430156859
v 15.683334 22.0973816 0.367500007
v 15.6798083 22.0961491 0.375500008
v 15.6808409 22.0965101 0.369843153
v 15.683334 22.0973816 0.432500005
v 15.6798083 22.0961491 0.424500003
v 15.6808409 22.0965101 0.430156859
v 15.6724533 22.1474302 0.367500007
v 15.6688396 22.1466021 0.375500008
v 15.669898 22.1468447 0.369843153
v 15.6724533 22.1474302 0.432500005
v 15.6688396 22.1466021 0.424500003
v 15.669898 22.1468447 0.430156859
v 15.6658825 22.198467 0.367500007
v 15.6622159 22.1980509 0.375500008
v 15.6632898 22.1981728 0.369843153
v 15.6658825 22.198467 0.432500005
v 15.6622159 22.1980509 0.424500003
v 15.6632898 22.1981728 0.430156859
v 15.6636853 22.25 0.367500007
v 15.6600008 22.25 0.375500008
v 15.66108 22.25 0.369843153
v 15.6636853 22.25 0.432500005
v 15.6600008 22.25 0.424500003
v 15.66108 22.25 0.430156859
v 15.6658825 22.301533 0.367500007
v 15.6622159 22.3019491 0.375500008
v 15.6632898 22.3018272 0.369843153
v 15.6658825 22.301533 0.432500005
v 15.6622159 22.3019491 0.424500003
v 15.6632898 22.3018272 0.430156859
v 15.6724533 22.3525698 0.367500007
v 15.6688396 22.3533979 0.375500008
v 15.669898 22.3531553 0.369843153
v 15.6724533 22.3525698 0.432500005
v 15.6688396 22.3533979 0.424500003
v 15.669898 22.3531553 0.430156859
v 15.683334 22.4026184 0.367500007
v 15.6798083 22.4038509 0.375500008
v 15.6808409 22.4034899 0.369843153
v 15.683334 22.4026184 0.432500005
v 15.6798083 22.4038509 0.424500003
v 15.6808409 22.4034899 0.430156859
v 15.6984203 22.4511978 0.367500007
v 15.6950163 22.4528222 0.375500008
v 15.6960133 22.4523464 0.369843153
v 15.6984203 22.4511978 0.432500005
v 15.6950163 22.4528222 0.424500003
v 15.6960133 22.4523464 0.430156859
v 15.7175664 22.4978392 0.367500007
v 15.7143171 22.4998403 0.375500008
v 15.7152688 22.4992542 0.369843153
v 15.7175664 22.4978392 0.432500005
v 15.7143171 22.4998403 0.424500003
v 15.7152688 22.4992542 0.430156859
v 15.7405883 22.5420937 0.367500007
v 15.7375248 22.5444522 0.375500008
v 15.7384221 22.5437614 0.369843153
v 15.7405883 22.5420937 0.432500005
v 15.7375248 22.5444522 0.424500003
v 15.7384221 22.5437614 0.430156859
v 15.7672641 22.5835354 0.367500007
v 15.764416 22.5862284 0.375500008
v 15.7652502 22.5854397 0.369843153
v 15.7672641 22.5835354 0.432500005
v 15.764416 22.5862284 0.424500003
v 15.7652502 22.5854397 0.430156859
v 15.797337 22.6217648 0.367500007
v 15.7947317 22.6247666 0.375500008
v 15.7954948 22.6238873 0.369843153
v 15.797337 22.6217648 0.432500005
v 15.7947317 22.6247666 0.424500003
v 15.7954948 22.6238873 0.430156859
v 15.8305173 22.656414 0.367500007
v 15.8281799 22.6596955 0.375500008
v 15.8288645 22.6587344 0.369843153
v 15.8305173 22.656414 0.432500005
v 15.8281799 22.6596955 0.424500003
v 15.8288645 22.6587344 0.430156859
v 15.8664855 22.6871492 0.367500007
v 15.8644385 22.6906789 0.375500008
v 15.8650381 22.6896451 0.369843153
v 15.8664855 22.6871492 0.432500005
v 15.8644385 22.6906789 0.424500003
v 15.8650381 22.6896451 0.430156859
v 15.9048951 22.7136744 0.367500007
v 15.9031583 22.7174182 0.375500008
v 15.903667 22.7163217 0.369843153
v 15.9048951 22.7136744 0.432500005
v 15.9031583 22.7174182 0.424500003
v 15.903667 22.7163217 0.430156859
v 15.9453763 22.7357341 0.367500007
v 15.9439664 22.7396561 0.375500008
v 15.9443794 22.7385074 0.369843153
v 15.9453763 22.7357341 0.432500005
v 15.9439664 22.7396561 0.424500003
v 15.9443794 22.7385074 0.430156859
v 15.9875395 22.7531161 0.367500007
v 15.9864699 22.7571784 0.375500008
v 15.9867832 22.7559885 0.369843153
v 15.9875395 22.7531161 0.432500005
v 15.9864699 22.7571784 0.424500003
v 15.9867832 22.7559885 0.430156859
v 16.030978 22.7656526 0.367500007
v 16.0302593 22.7698162 0.375500008
v 16.0304698 22.7685967 0.369843153
v 16.030978 22.7656526 0.432500005
v 16.0302593 22.7698162 0.424500003
v 16.0304698 22.7685967 0.430156859
v 16.0752741 22.7732232 0.367500007
v 16.074913 22.7774479 0.375500008
v 16.0750187 22.7762105 0.369843153
v 16.0752741 22.7732232 0.432500005
v 16.074913 22.7774479 0.424500003
v 16.0750187 22.7762105 0.430156859
v 13.1933757 21.9752994 0.335000008
v 13.1947287 21.9784452 0.34300001
v 13.1943324 21.9775238 0.337343154
v 13.1933757 21.9752994 0.400000006
v 13.1947287 21.9784452 0.392000005
v 13.1943324 21.9775238 0.39765686
v 13.2340219 21.9555949 0.335000008
v 13.2357031 21.9585816 0.34300001
v 13.2352107 21.9577069 0.337343154
v 13.234022 21.9555949 0.400000006
v 13.2357031 21.9585816 0.392000005
v 13.2352107 21.9577069 0.39765686
v 13.2726631 21.932328 0.335000008
v 13.2746562 21.9351269 0.34300001
v 13.2740724 21.9343071 0.337343154
v 13.2726631 21.932328 0.400000006
v 13.2746562 21.9351269 0.392000005
v 13.2740724 21.9343071 0.39765686
v 13.3089267 21.905723 0.335000008
v 13.3112127 21.9083069 0.34300001
v 13.3105432 21.9075501 0.337343154
v 13.3089267 21.905723 0.400000006
v 13.3112127 21.9083069 0.392000005
v 13.3105432 21.9075501 0.39765686
v 13.342464 21.8760355 0.335000008
v 13.3450207 21.87838 0.34300001
v 13.3442719 21.8776933 0.337343154
v 13.342464 21.8760355 0.400000006
v 13.3450207 21.87838 0.392000005
v 13.3442719 21.8776933 0.39765686
v 13.3729516 21.8435521 0.335000008
v 13.3757545 21.8456342 0.34300001
v 13.3749336 21.8450244 0.337343154
v 13.3729516 21.8435521 0.400000006
v 13.3757545 21.8456342 0.392000005
v 13.3749336 21.8450244 0.39765686
v 13.400096 21.8085854 0.335000008
v 13.4031181 21.8103851 0.34300001
v 13.402233 21.809858 0.337343154
v 13.400096 21.8085854 0.400000006
v 13.4031181 21.8103851 0.392000005
v 13.402233 21.809858 0.39765686
v 13.4236359 21.7714719 0.335000008
v 13.4268481 21.772972 0.34300001
v 13.4259073 21.7725326 0.337343154
v 13.4236359 21.7714719 0.400000006
v 13.4268481 21.772972 0.392000005
v 13.4259073 21.7725326 0.39765686
v 13.4433445 21.7325693 0.335000008
v 13.4467158 21.7337553 0.34300001
v 13.4457284 21.7334079 0.337343154
v 13.4433445 21.7325693 0.400000006
v 13.4467158 21.7337553 0.392000005
v 13.4457284 21.7334079 0.39765686
v 13.4590321 21.6922522 0.335000008
v 13.46253 21.6931126 0.34300001
v 13.4615055 21.6928606 0.337343154
v 13.4590321 21.6922522 0.400000006
v 13.46253 21.6931126 0.392000005
v 13.4615055 21.6928606 0.39765686
v 13.4705474 21.6509087 0.335000008
v 13.4741384 21.6514354 0.34300001
v 13.4730866 21.6512811 0.337343154
v 13.4705474 21.6509087 0.400000006
v 13.4741384 21.6514354 0.392000005
v 13.4730866 21.6512811 0.39765686
v 13.4777797 21.6089373 0.335000008
v 13.4814291 21.609125 0.34300001
v 13.4803602 21.60907 0.337343154
v 13.4777797 21.6089373 0.400000006
v 13.4814291 21.609125 0.392000005
v 13.4803602 21.60907 0.39765686
v 13.4806593 21.566742 0.335000008
v 13.4843319 21.5665889 0.34300001
v 13.4832562 21.5666338 0.337343154
v 13.4806593 21.566742 0.400000006
v 13.4843319 21.5665889 0.392000005
v 13.4832562 21.5666338 0.39765686
v 13.4791584 21.5247289 0.335000008
v 13.4828189 21.5242368 0.34300001
v 13.4817468 21.5243809 0.337343154
v 13.4791584 21.5247289 0.400000006
v 13.4828189 21.5242368 0.392000005
v 13.4817468 21.5243809 0.39765686
v 13.4732916 21.4833033 0.335000008
v 13.4769047 21.4824765 0.34300001
v 13.4758464 21.4827186 0.337343154
v 13.4732916 21.4833033 0.400000006
v 13.4769047 21.4824765 0.392000005
v 13.4758465 21.4827186 0.39765686
v 13.4631153 21.4428634 0.335000008
v 13.4666462 21.4417102 0.34300001
v 13.465612 21.4420479 0.337343154
v 13.4631153 21.4428634 0.400000006
v 13.4666462 21.4417102 0.392000005
v 13.465612 21.4420479 0.39765686
v 13.4487274 21.4037991 0.335000008
v 13.4521422 21.4023304 0.34300001
v 13.451142 21.4027606 0.337343154
v 13.4487274 21.4037991 0.400000006
v 13.4521422 21.4023304 0.392000005
v 13.451142 21.4027606 0.39765686
v 13.4302667 21.3664865 0.335000008
v 13.4335324 21.3647166 0.34300001
v 13.4325759 21.365235 0.337343154
v 13.4302667 21.3664865 0.400000006
v 13.4335324 21.3647166 0.392000005
v 13.4325759 21.365235 0.39765686
v 13.4079107 21.3312849 0.335000008
v 13.410996 21.3292308 0.34300001
v 13.4100924 21.3298324 0.337343154
v 13.4079107 21.3312849 0.400000006
v 13.410996 21.3292308 0.392000005
v 13.4100923 21.3298324 0.39765686
v 13.3818752 21.2985336 0.335000008
v 13.3847501 21.2962149 0.34300001
v 13.383908 21.296894 0.337343154
v 13.3818752 21.2985336 0.400000006
v 13.3847501 21.2962149 0.392000005
v 13.383908 21.296894 0.39765686
v 13.3524102 21.2685474 0.335000008
v 13.3550473 21.2659867 0.34300001
v 13.3542749 21.2667367 0.337343154
v 13.3524102 21.2685474 0.400000006
v 13.3550473 21.2659867 0.392000005
v 13.3542749 21.2667367 0.39765686
v 13.3198001 21.2416157 0.335000008
v 13.3221739 21.2388375 0.34300001
v 13.3214786 21.2396512 0.337343154
v 13.3198001 21.2416157 0.400000006
v 13.3221739 21.2388375 0.392000005
v 13.3214786 21.2396512 0.39765686
v 13.2843587 21.2179976 0.335000008
v 13.2864463 21.2150287 0.34300001
v 13.2858348 21.2158982 0.337343154
v 13.2843587 21.2179976 0.400000006
v 13.2864463 21.2150287 0.392000005
v 13.2858348 21.2158982 0.39765686
v 13.2464273 21.1979204 0.335000008
v 13.2482086 21.1947895 0.34300001
v 13.2476868 21.1957065 0.337343154
v 13.2464273 21.1979204 0.400000006
v 13.2482086 21.1947895 0.392000005
v 13.2476868 21.1957065 0.39765686
v 13.2063712 21.1815778 0.335000008
v 13.2078291 21.1783149 0.34300001
v 13.2074021 21.1792706 0.337343154
v 13.2063712 21.1815778 0.400000006
v 13.2078291 21.1783149 0.392000005
v 13.2074021 21.1792706 0.39765686
v 13.1645762 21.169127 0.335000008
v 13.1656967 21.1657635 0.34300001
v 13.1653685 21.1667487 0.337343154
v 13.1645762 21.169127 0.400000006
v 13.1656967 21.1657635 0.392000005
v 13.1653685 21.1667487 0.39765686
v 13.1214448 21.1606879 0.335000008
v 13.1222171 21.1572563 0.34300001
v 13.1219909 21.1582614 0.337343154
v 13.1214448 21.1606879 0.400000006
v 13.1222171 21.1572563 0.392000005
v 13.1219909 21.1582614 0.39765686
v 13.0773925 21.1563418 0.335000008
v 13.077809 21.1528751 0.34300001
v 13.077687 21.1538905 0.337343154
v 13.0773925 21.1563418 0.400000006
v 13.077809 21.1528751 0.392000005
v 13.077687 21.1538905 0.39765686
v 13.0328435 21.1561305 0.335000008
v 13.0329002 21.1526621 0.34300001
v 13.0328836 21.153678 0.337343154
v 13.0328435 21.1561305 0.400000006
v 13.0329002 21.1526621 0.392000005
v 13.0328836 21.153678 0.39765686
v 12.9882264 21.1600562 0.335000008
v 12.987923 21.1566195 0.34300001
v 12.9880119 21.1576261 0.337343154
v 12.9882264 21.1600562 0.400000006
v 12.987923 21.1566195 0.392000005
v 12.9880119 21.1576261 0.39765686
v 12.9439717 21.1680809 0.335000008
v 12.9433108 21.164709 0.34300001
v 12.9435043 21.1656966 0.337343154
v 12.9439717 21.1680809 0.400000006
v 12.9433108 21.164709 0.392000005
v 12.9435043 21.1656966 0.39765686
v 12.9005048 21.1801274 0.335000008
v 12.899493 21.1768528 0.34300001
v 12.8997894 21.1778119 0.337343154
v 12.9005048 21.1801274 0.400000006
v 12.899493 21.1768528 0.392000005
v 12.8997894 21.1778119 0.39765686
v 12.8582448 21.1960797 0.335000008
v 12.8568918 21.1929339 0.34300001
v 12.8572881 21.1938553 0.337343154
v 12.8582448 21.1960797 0.400000006
v 12.8568918 21.1929339 0.392000005
v 12.8572881 21.1938553 0.39765686
v 12.8175985 21.2157842 0.335000008
v 12.8159174 21.2127975 0.34300001
v 12.8164098 21.2136722 0.337343154
v 12.8175985 21.2157842 0.400000006
v 12.8159174 21.2127975 0.392000005
v 12.8164098 21.2136722 0.39765686
v 12.7789574 21.2390511 0.335000008
v 12.7769643 21.2362522 0.34300001
v 12.777548 21.2370719 0.337343154
v 12.7789574 21.2390511 0.400000006
v 12.7769643 21.2362522 0.392000005
v 12.7775481 21.237072 0.39765686
v 12.7426938 21.2656561 0.335000008
v 12.7404077 21.2630721 0.34300001
v 12.7410773 21.263829 0.337343154
v 12.7426938 21.2656561 0.400000006
v 12.7404077 21.2630721 0.392000005
v 12.7410773 21.263829 0.39765686
v 12.7091565 21.2953436 0.335000008
v 12.7065998 21.2929991 0.34300001
v 12.7073486 21.2936858 0.337343154
v 12.7091565 21.2953436 0.400000006
v 12.7065998 21.2929991 0.392000005
v 12.7073486 21.2936858 0.39765686
v 12.6786689 21.3278269 0.335000008
v 12.675866 21.3257449 0.34300001
v 12.6766869 21.3263547 0.337343154
v 12.6786689 21.3278269 0.400000006
v 12.675866 21.3257449 0.392000005
v 12.6766869 21.3263547 0.39765686
v 12.6515245 21.3627937 0.335000008
v 12.6485023 21.360994 0.34300001
v 12.6493875 21.3615211 0.337343154
v 12.6515245 21.3627937 0.400000006
v 12.6485023 21.360994 0.392000005
v 12.6493875 21.3615211 0.39765686
v 12.6279846 21.3999072 0.335000008
v 12.6247724 21.3984071 0.34300001
v 12.6257132 21.3988465 0.337343154
v 12.6279846 21.3999072 0.400000006
v 12.6247724 21.3984071 0.392000005
v 12.6257132 21.3988465 0.39765686
v 12.608276 21.4388098 0.335000008
v 12.6049047 21.4376238 0.34300001
v 12.6058921 21.4379712 0.337343154
v 12.608276 21.4388098 0.400000006
v 12.6049047 21.4376238 0.392000005
v 12.6058921 21.4379712 0.39765686
v 12.5925884 21.4791269 0.335000008
v 12.5890905 21.4782665 0.34300001
v 12.590115 21.4785185 0.337343154
v 12.5925884 21.4791269 0.400000006
v 12.5890905 21.4782665 0.392000005
v 12.590115 21.4785185 0.39765686
v 12.581073 21.5204704 0.335000008
v 12.5774821 21.5199437 0.34300001
v 12.5785339 21.520098 0.337343154
v 12.581073 21.5204704 0.400000006
v 12.5774821 21.5199437 0.392000005
v 12.5785339 21.520098 0.39765686
v 12.5738408 21.5624418 0.335000008
v 12.5701914 21.5622541 0.34300001
v 12.5712603 21.5623091 0.337343154
v 12.5738408 21.5624418 0.400000006
v 12.5701914 21.5622541 0.392000005
v 12.5712603 21.5623091 0.39765686
v 12.5709612 21.6046371 0.335000008
v 12.5672886 21.6047902 0.34300001
v 12.5683643 21.6047453 0.337343154
v 12.5709612 21.6046371 0.400000006
v 12.5672886 21.6047902 0.392000005
v 12.5683643 21.6047453 0.39765686
v 12.572462 21.6466502 0.335000008
v 12.5688015 21.6471423 0.34300001
v 12.5698737 21.6469982 0.337343154
v 12.572462 21.6466502 0.400000006
v 12.5688015 21.6471423 0.392000005
v 12.5698737 21.6469982 0.39765686
v 12.5783289 21.6880758 0.335000008
v 12.5747158 21.6889026 0.34300001
v 12.575774 21.6886605 0.337343154
v 12.5783289 21.6880758 0.400000006
v 12.5747158 21.6889026 0.392000005
v 12.575774 21.6886605 0.39765686
v 12.5885052 21.7285157 0.335000008
v 12.5849743 21.7296689 0.34300001
v 12.5860085 21.7293312 0.337343154
v 12.5885052 21.7285157 0.400000006
v 12.5849743 21.7296689 0.392000005
v 12.5860085 21.7293312 0.39765686
v 12.6028931 21.76758 0.335000008
v 12.5994783 21.7690486 0.34300001
v 12.6004784 21.7686185 0.337343154
v 12.6028931 21.76758 0.400000006
v 12.5994783 21.7690486 0.392000005
v 12.6004784 21.7686185 0.39765686
v 12.6213538 21.8048926 0.335000008
v 12.6180881 21.8066625 0.34300001
v 12.6190446 21.8061441 0.337343154
v 12.6213538 21.8048926 0.400000006
v 12.6180881 21.8066625 0.392000005
v 12.6190446 21.8061441 0.39765686
v 12.6437097 21.8400942 0.335000008
v 12.6406245 21.8421483 0.34300001
v 12.6415281 21.8415467 0.337343154
v 12.6437097 21.8400942 0.400000006
v 12.6406245 21.8421483 0.392000005
v 12.6415281 21.8415467 0.39765686
v 12.6697453 21.8728455 0.335000008
v 12.6668704 21.8751642 0.34300001
v 12.6677125 21.8744851 0.337343154
v 12.6697453 21.8728455 0.400000006
v 12.6668704 21.8751642 0.392000005
v 12.6677125 21.8744851 0.39765686
v 12.6992103 21.9028317 0.335000008
v 12.6965732 21.9053924 0.34300001
v 12.6973456 21.9046423 0.337343154
v 12.6992103 21.9028317 0.400000006
v 12.6965732 21.9053924 0.392000005
v 12.6973456 21.9046423 0.39765686
v 12.7318204 21.9297634 0.335000008
v 12.7294466 21.9325416 0.34300001
v 12.7301419 21.9317279 0.337343154
v 12.7318204 21.9297634 0.400000006
v 12.7294466 21.9325416 0.392000005
v 12.7301419 21.9317279 0.39765686
v 12.7672618 21.9533815 0.335000008
v 12.7651742 21.9563504 0.34300001
v 12.7657857 21.9554809 0.337343154
v 12.7672618 21.9533815 0.400000006
v 12.7651742 21.9563504 0.392000005
v 12.7657857 21.9554809 0.39765686
v 12.8051932 21.9734586 0.335000008
v 12.8034119 21.9765896 0.34300001
v 12.8039337 21.9756726 0.337343154
v 12.8051932 21.9734586 0.400000006
v 12.8034119 21.9765896 0.392000005
v 12.8039337 21.9756726 0.39765686
v 12.8452493 21.9898013 0.335000008
v 12.8437914 21.9930642 0.34300001
v 12.8442184 21.9921085 0.337343154
v 12.8452493 21.9898013 0.400000006
v 12.8437914 21.9930642 0.392000005
v 12.8442184 21.9921085 0.39765686
v 12.8870443 22.0022521 0.335000008
v 12.8859238 22.0056156 0.34300001
v 12.886252 22.0046304 0.337343154
v 12.8870443 22.0022521 0.400000006
v 12.8859238 22.0056156 0.392000005
v 12.886252 22.0046304 0.39765686
v 12.9301757 22.0106912 0.335000008
v 12.9294034 22.0141228 0.34300001
v 12.9296296 22.0131177 0.337343154
v 12.9301757 22.0106912 0.400000006
v 12.9294034 22.0141228 0.392000005
v 12.9296296 22.0131177 0.39765686
v 12.974228 22.0150373 0.335000008
v 12.9738115 22.018504 0.34300001
v 12.9739335 22.0174886 0.337343154
v 12.974228 22.0150373 0.400000006
v 12.9738115 22.018504 0.392000005
v 12.9739335 22.0174886 0.39765686
v 13.018777 22.0152486 0.335000008
v 13.0187203 22.0187169 0.34300001
v 13.0187369 22.0177011 0.337343154
v 13.018777 22.0152486 0.400000006
v 13.0187203 22.0187169 0.392000005
v 13.0187369 22.0177011 0.39765686
v 13.0633941 22.0113229 0.335000008
v 13.0636975 22.0147596 0.34300001
v 13.0636086 22.013753 0.337343154
v 13.0633941 22.0113229 0.400000006
v 13.0636975 22.0147596 0.392000005
v 13.0636086 22.013753 0.39765686
v 13.1076488 22.0032982 0.335000008
v 13.1083097 22.0066701 0.34300001
v 13.1081161 22.0056825 0.337343154
v 13.1076488 22.0032982 0.400000006
v 13.1083097 22.0066701 0.392000005
v 13.1081161 22.0056825 0.39765686
v 13.1511157 21.9912517 0.335000008
v 13.1521274 21.9945263 0.34300001
v 13.1518311 21.9935672 0.337343154
v 13.1511157 21.9912517 0.400000006
v 13.1521274 21.9945263 0.392000005
v 13.1518311 21.9935672 0.39765686
v 24.9799995 20.1000004 0.0399999991
v 24.9799995 23.3500004 0.0399999991
v 25.8500004 23.6000004 0.0399999991
v 25.8999996 20 0.0399999991
v 24.9500008 20.1000004 0.870000005
v 25.1499996 23.3500004 0.769999981
v 26.0300007 23.6000004 0.879999995
v 25.9799995 20 0.870000005
v 25.3400002 21.6499996 0.360000014
f 2 8 9
f 2 9 3
f 3 9 7
f 3 7 1
f 11 5 6
f 11 6 12
f 12 6 4
f 12 4 10
f 8 14 15
f 8 15 9
f 9 15 13
f 9 13 7
f 17 11 12
f 17 12 18
f 18 12 10
f 18 10 16
f 14 20 21
f 14 21 15
f 15 21 19
f 15 19 13
f 23 17 18
f 23 18 24
f 24 18 16
f 24 16 22
f 20 26 27
f 20 27 21
f 21 27 25
f 21 25 19
f 29 23 24
f 29 24 30
f 30 24 22
f 30 22 28
f 26 32 33
f 26 33 27
f 27 33 31
f 27 31 25
f 35 29 30
f 35 30 36
f 36 30 28
f 36 28 34
f 32 38 39
f 32 39 33
f 33 39 37
f 33 37 31
f 41 35 36
f 41 36 42
f 42 36 34
f 42 34 40
f 38 44 45
f 38 45 39
f 39 45 43
f 39 43 37
f 47 41 42
f 47 42 48
f 48 42 40
f 48 40 46
f 44 50 51
f 44 51 45
f 45 51 49
f 45 49 43
f 53 47 48
f 53 48 54
f 54 48 46
f 54 46 52
f 50 56 57
f 50 57 51
f 51 57 55
f 51 55 49
f 59 53 54
f 59 54 60
f 60 54 52
f 60 52 58
f 56 62 63
f 56 63 57
f 57 63 61
f 57 61 55
f 65 59 60
f 65 60 66
f 66 60 58
f 66 58 64
f 62 68 69
f 62 69 63
f 63 69 67
f 63 67 61
f 71 65 66
f 71 66 72
f 72 66 64
f 72 64 70
f 68 74 75
f 68 75 69
f 69 75 73
f 69 73 67
f 77 71 72
f 77 72 78
f 78 72 70
f 78 70 76
f 74 80 81
f 74 81 75
f 75 81 79
f 75 79 73
f 83 77 78
f 83 78 84
f 84 78 76
f 84 76 82
f 80 86 87
f 80 87 81
f 81 87 85
f 81 85 79
f 89 83 84
f 89 84 90
f 90 84 82
f 90 82 88
f 86 92 93
f 86 93 87
f 87 93 91
f 87 91 85
f 95 89 90
f 95 90 96
f 96 90 88
f 96 88 94
f 92 98 99
f 92 99 93
f 93 99 97
f 93 97 91
f 101 95 96
f 101 96 102
f 102 96 94
f 102 94 100
f 98 104 105
f 98 105 99
f 99 105 103
f 99 103 97
f 107 101 102
f 107 102 108
f 108 102 100
f 108 100 106
f 104 110 111
f 104 111 105
f 105 111 109
f 105 109 103
f 113 107 108
f 113 108 114
f 114 108 106
f 114 106 112
f 110 116 117
f 110 117 111
f 111 117 115
f 111 115 109
f 119 113 114
f 119 114 120
f 120 114 112
f 120 112 118
f 116 122 123
f 116 123 117
f 117 123 121
f 117 121 115
f 125 119 120
f 125 120 126
f 126 120 118
f 126 118 124
f 122 128 129
f 122 129 123
f 123 129 127
f 123 127 121
f 131 125 126
f 131 126 132
f 132 126 124
f 132 124 130
f 128 134 135
f 128 135 129
f 129 135 133
f 129 133 127
f 137 131 132
f 137 132 138
f 138 132 130
f 138 130 136
f 134 140 141
f 134 141 135
f 135 141 139
f 135 139 133
f 143 137 138
f 143 138 144
f 144 138 136
f 144 136 142
f 140 146 147
f 140 147 141
f 141 147 145
f 141 145 139
f 149 143 144
f 149 144 150
f 150 144 142
f 150 142 148
f 146 152 153
f 146 153 147
f 147 153 151
f 147 151 145
f 155 149 150
f 155 150 156
f 156 150 148
f 156 148 154
f 152 158 159
f 152 159 153
f 153 159 157
f 153 157 151
f 161 155 156
f 161 156 162
f 162 156 154
f 162 154 160
f 158 164 165
f 158 165 159
f 159 165 163
f 159 163 157
f 167 161 162
f 167 162 168
f 168 162 160
f 168 160 166
f 164 170 171
f 164 171 165
f 165 171 169
f 165 169 163
f 173 167 168
f 173 168 174
f 174 168 166
f 174 166 172
f 170 176 177
f 170 177 171
f 171 177 175
f 171 175 169
f 179 173 174
f 179 174 180
f 180 174 172
f 180 172 178
f 176 182 183
f 176 183 177
f 177 183 181
f 177 181 175
f 185 179 180
f 185 180 186
f 186 180 178
f 186 178 184
f 182 188 189
f 182 189 183
f 183 189 187
f 183 187 181
f 191 185 186
f 191 186 192
f 192 186 184
f 192 184 190
f 188 194 195
f 188 195 189
f 189 195 193
f 189 193 187
f 197 191 192
f 197 192 198
f 198 192 190
f 198 190 196
f 194 200 201
f 194 201 195
f 195 201 199
f 195 199 193
f 203 197 198
f 203 198 204
f 204 198 196
f 204 196 202
f 200 206 207
f 200 207 201
f 201 207 205
f 201 205 199
f 209 203 204
f 209 204 210
f 210 204 202
f 210 202 208
f 206 212 213
f 206 213 207
f 207 213 211
f 207 211 205
f 215 209 210
f 215 210 216
f 216 210 208
f 216 208 214
f 212 218 219
f 212 219 213
f 213 219 217
f 213 217 211
f 221 215 216
f 221 216 222
f 222 216 214
f 222 214 220
f 218 224 225
f 218 225 219
f 219 225 223
f 219 223 217
f 227 221 222
f 227 222 228
f 228 222 220
f 228 220 226
f 224 230 231
f 224 231 225
f 225 231 229
f 225 229 223
f 233 227 228
f 233 228 234
f 234 228 226
f 234 226 232
f 230 236 237
f 230 237 231
f 231 237 235
f 231 235 229
f 239 233 234
f 239 234 240
f 240 234 232
f 240 232 238
f 236 242 243
f 236 243 237
f 237 243 241
f 237 241 235
f 245 239 240
f 245 240 246
f 246 240 238
f 246 238 244
f 242 248 249
f 242 249 243
f 243 249 247
f 243 247 241
f 251 245 246
f 251 246 252
f 252 246 244
f 252 244 250
f 248 254 255
f 248 255 249
f 249 255 253
f 249 253 247
f 257 251 252
f 257 252 258
f 258 252 250
f 258 250 256
f 254 260 261
f 254 261 255
f 255 261 259
f 255 259 253
f 263 257 258
f 263 258 264
f 264 258 256
f 264 256 262
f 260 266 267
f 260 267 261
f 261 267 265
f 261 265 259
f 269 263 264
f 269 264 270
f 270 264 262
f 270 262 268
f 266 272 273
f 266 273 267
f 267 273 271
f 267 271 265
f 275 269 270
f 275 270 276
f 276 270 268
f 276 268 274
f 272 278 279
f 272 279 273
f 273 279 277
f 273 277 271
f 281 275 276
f 281 276 282
f 282 276 274
f 282 274 280
f 278 284 285
f 278 285 279
f 279 285 283
f 279 283 277
f 287 281 282
f 287 282 288
f 288 282 280
f 288 280 286
f 284 290 291
f 284 291 285
f 285 291 289
f 285 289 283
f 293 287 288
f 293 288 294
f 294 288 286
f 294 286 292
f 290 296 297
f 290 297 291
f 291 297 295
f 291 295 289
f 299 293 294
f 299 294 300
f 300 294 292
f 300 292 298
f 296 302 303
f 296 303 297
f 297 303 301
f 297 301 295
f 305 299 300
f 305 300 306
f 306 300 298
f 306 298 304
f 302 308 309
f 302 309 303
f 303 309 307
f 303 307 301
f 311 305 306
f 311 306 312
f 312 306 304
f 312 304 310
f 308 314 315
f 308 315 309
f 309 315 313
f 309 313 307
f 317 311 312
f 317 312 318
f 318 312 310
f 318 310 316
f 314 320 321
f 314 321 315
f 315 321 319
f 315 319 313
f 323 317 318
f 323 318 324
f 324 318 316
f 324 316 322
f 320 326 327
f 320 327 321
f 321 327 325
f 321 325 319
f 329 323 324
f 329 324 330
f 330 324 322
f 330 322 328
f 326 332 333
f 326 333 327
f 327 333 331
f 327 331 325
f 335 329 330
f 335 330 336
f 336 330 328
f 336 328 334
f 332 338 339
f 332 339 333
f 333 339 337
f 333 337 331
f 341 335 336
f 341 336 342
f 342 336 334
f 342 334 340
f 338 344 345
f 338 345 339
f 339 345 343
f 339 343 337
f 347 341 342
f 347 342 348
f 348 342 340
f 348 340 346
f 344 350 351
f 344 351 345
f 345 351 349
f 345 349 343
f 353 347 348
f 353 348 354
f 354 348 346
f 354 346 352
f 350 356 357
f 350 357 351
f 351 357 355
f 351 355 349
f 359 353 354
f 359 354 360
f 360 354 352
f 360 352 358
f 356 362 363
f 356 363 357
f 357 363 361
f 357 361 355
f 365 359 360
f 365 360 366
f 366 360 358
f 366 358 364
f 362 368 369
f 362 369 363
f 363 369 367
f 363 367 361
f 371 365 366
f 371 366 372
f 372 366 364
f 372 364 370
f 368 374 375
f 368 375 369
f 369 375 373
f 369 373 367
f 377 371 372
f 377 372 378
f 378 372 370
f 378 370 376
f 374 380 381
f 374 381 375
f 375 381 379
f 375 379 373
f 383 377 378
f 383 378 384
f 384 378 376
f 384 376 382
f 380 2 3
f 380 3 381
f 381 3 1
f 381 1 379
f 5 383 384
f 5 384 6
f 6 384 382
f 6 382 4
f 379 1 7
f 7 13 19
f 19 25 31
f 31 37 43
f 43 49 55
f 55 61 67
f 67 73 79
f 79 85 91
f 91 97 103
f 103 109 115
f 115 121 127
f 127 133 139
f 139 145 151
f 151 157 163
f 163 169 175
f 175 181 187
f 187 193 199
f 199 205 211
f 211 217 223
f 223 229 235
f 235 241 247
f 247 253 259
f 259 265 271
f 271 277 283
f 283 289 295
f 295 301 307
f 307 313 319
f 319 325 331
f 331 337 343
f 343 349 355
f 355 361 367
f 367 373 379
f 379 7 19
f 19 31 43
f 43 55 67
f 67 79 91
f 91 103 115
f 115 127 139
f 139 151 163
f 163 175 187
f 187 199 211
f 211 223 235
f 235 247 259
f 259 271 283
f 283 295 307
f 307 319 331
f 331 343 355
f 355 367 379
f 379 19 43
f 43 67 91
f 91 115 139
f 139 163 187
f 187 211 235
f 235 259 283
f 283 307 331
f 331 355 379
f 379 43 91
f 91 139 187
f 187 235 283
f 283 331 379
f 379 91 187
f 187 283 379
f 2 5 11
f 2 11 8
f 380 383 5
f 380 5 2
f 16 10 4
f 4 382 376
f 376 370 364
f 364 358 352
f 352 346 340
f 340 334 328
f 328 322 316
f 316 310 304
f 304 298 292
f 292 286 280
f 280 274 268
f 268 262 256
f 256 250 244
f 244 238 232
f 232 226 220
f 220 214 208
f 208 202 196
f 196 190 184
f 184 178 172
f 172 166 160
f 160 154 148
f 148 142 136
f 136 130 124
f 124 118 112
f 112 106 100
f 100 94 88
f 88 82 76
f 76 70 64
f 64 58 52
f 52 46 40
f 40 34 28
f 28 22 16
f 16 4 376
f 376 364 352
f 352 340 328
f 328 316 304
f 304 292 280
f 280 268 256
f 256 244 232
f 232 220 208
f 208 196 184
f 184 172 160
f 160 148 136
f 136 124 112
f 112 100 88
f 88 76 64
f 64 52 40
f 40 28 16
f 16 376 352
f 352 328 304
f 304 280 256
f 256 232 208
f 208 184 160
f 160 136 112
f 112 88 64
f 64 40 16
f 16 352 304
f 304 256 208
f 208 160 112
f 112 64 16
f 16 304 208
f 208 112 16
f 8 11 17
f 8 17 14
f 14 17 23
f 14 23 20
f 20 23 29
f 20 29 26
f 26 29 35
f 26 35 32
f 32 35 41
f 32 41 38
f 38 41 47
f 38 47 44
f 44 47 53
f 44 53 50
f 50 53 59
f 50 59 56
f 56 59 65
f 56 65 62
f 62 65 71
f 62 71 68
f 68 71 77
f 68 77 74
f 74 77 83
f 74 83 80
f 80 83 89
f 80 89 86
f 86 89 95
f 86 95 92
f 92 95 101
f 92 101 98
f 98 101 107
f 98 107 104
f 104 107 113
f 104 113 110
f 110 113 119
f 110 119 116
f 116 119 125
f 116 125 122
f 122 125 131
f 122 131 128
f 128 131 137
f 128 137 134
f 134 137 143
f 134 143 140
f 140 143 149
f 140 149 146
f 146 149 155
f 146 155 152
f 152 155 161
f 152 161 158
f 158 161 167
f 158 167 164
f 164 167 173
f 164 173 170
f 170 173 179
f 170 179 176
f 176 179 185
f 176 185 182
f 182 185 191
f 182 191 188
f 188 191 197
f 188 197 194
f 194 197 203
f 194 203 200
f 200 203 209
f 200 209 206
f 206 209 215
f 206 215 212
f 212 215 221
f 212 221 218
f 218 221 227
f 218 227 224
f 224 227 233
f 224 233 230
f 230 233 239
f 230 239 236
f 236 239 245
f 236 245 242
f 242 245 251
f 242 251 248
f 248 251 257
f 248 257 254
f 254 257 263
f 254 263 260
f 260 263 269
f 260 269 266
f 266 269 275
f 266 275 272
f 272 275 281
f 272 281 278
f 278 281 287
f 278 287 284
f 284 287 293
f 284 293 290
f 290 293 299
f 290 299 296
f 296 299 305
f 296 305 302
f 302 305 311
f 302 311 308
f 308 311 317
f 308 317 314
f 314 317 323
f 314 323 320
f 320 323 329
f 320 329 326
f 326 329 335
f 326 335 332
f 332 335 341
f 332 341 338
f 338 341 347
f 338 347 344
f 344 347 353
f 344 353 350
f 350 353 359
f 350 359 356
f 356 359 365
f 356 365 362
f 362 365 371
f 362 371 368
f 368 371 377
f 368 377 374
f 374 377 383
f 374 383 380
f 386 392 393
f 386 393 387
f 387 393 391
f 387 391 385
f 395 389 390
f 395 390 396
f 396 390 388
f 396 388 394
f 392 398 399
f 392 399 393
f 393 399 397
f 393 397 391
f 401 395 396
f 401 396 402
f 402 396 394
f 402 394 400
f 398 404 405
f 398 405 399
f 399 405 403
f 399 403 397
f 407 401 402
f 407 402 408
f 408 402 400
f 408 400 406
f 404 410 411
f 404 411 405
f 405 411 409
f 405 409 403
f 413 407 408
f 413 408 414
f 414 408 406
f 414 406 412
f 410 416 417
f 410 417 411
f 411 417 415
f 411 415 409
f 419 413 414
f 419 414 420
f 420 414 412
f 420 412 418
f 416 422 423
f 416 423 417
f 417 423 421
f 417 421 415
f 425 419 420
f 425 420 426
f 426 420 418
f 426 418 424
f 422 428 429
f 422 429 423
f 423 429 427
f 423 427 421
f 431 425 426
f 431 426 432
f 432 426 424
f 432 424 430
f 428 434 435
f 428 435 429
f 429 435 433
f 429 433 427
f 437 431 432
f 437 432 438
f 438 432 430
f 438 430 436
f 434 440 441
f 434 441 435
f 435 441 439
f 435 439 433
f 443 437 438
f 443 438 444
f 444 438 436
f 444 436 442
f 440 446 447
f 440 447 441
f 441 447 445
f 441 445 439
f 449 443 444
f 449 444 450
f 450 444 442
f 450 442 448
f 446 452 453
f 446 453 447
f 447 453 451
f 447 451 445
f 455 449 450
f 455 450 456
f 456 450 448
f 456 448 454
f 452 458 459
f 452 459 453
f 453 459 457
f 453 457 451
f 461 455 456
f 461 456 462
f 462 456 454
f 462 454 460
f 458 464 465
f 458 465 459
f 459 465 463
f 459 463 457
f 467 461 462
f 467 462 468
f 468 462 460
f 468 460 466
f 464 470 471
f 464 471 465
f 465 471 469
f 465 469 463
f 473 467 468
f 473 468 474
f 474 468 466
f 474 466 472
f 470 476 477
f 470 477 471
f 471 477 475
f 471 475 469
f 479 473 474
f 479 474 480
f 480 474 472
f 480 472 478
f 476 482 483
f 476 483 477
f 477 483 481
f 477 481 475
f 485 479 480
f 485 480 486
f 486 480 478
f 486 478 484
f 482 488 489
f 482 489 483
f 483 489 487
f 483 487 481
f 491 485 486
f 491 486 492
f 492 486 484
f 492 484 490
f 488 494 495
f 488 495 489
f 489 495 493
f 489 493 487
f 497 491 492
f 497 492 498
f 498 492 490
f 498 490 496
f 494 500 501
f 494 501 495
f 495 501 499
f 495 499 493
f 503 497 498
f 503 498 504
f 504 498 496
f 504 496 502
f 500 506 507
f 500 507 501
f 501 507 505
f 501 505 499
f 509 503 504
f 509 504 510
f 510 504 502
f 510 502 508
f 506 512 513
f 506 513 507
f 507 513 511
f 507 511 505
f 515 509 510
f 515 510 516
f 516 510 508
f 516 508 514
f 512 518 519
f 512 519 513
f 513 519 517
f 513 517 511
f 521 515 516
f 521 516 522
f 522 516 514
f 522 514 520
f 518 524 525
f 518 525 519
f 519 525 523
f 519 523 517
f 527 521 522
f 527 522 528
f 528 522 520
f 528 520 526
f 524 530 531
f 524 531 525
f 525 531 529
f 525 529 523
f 533 527 528
f 533 528 534
f 534 528 526
f 534 526 532
f 530 536 537
f 530 537 531
f 531 537 535
f 531 535 529
f 539 533 534
f 539 534 540
f 540 534 532
f 540 532 538
f 536 542 543
f 536 543 537
f 537 543 541
f 537 541 535
f 545 539 540
f 545 540 546
f 546 540 538
f 546 538 544
f 542 548 549
f 542 549 543
f 543 549 547
f 543 547 541
f 551 545 546
f 551 546 552
f 552 546 544
f 552 544 550
f 548 554 555
f 548 555 549
f 549 555 553
f 549 553 547
f 557 551 552
f 557 552 558
f 558 552 550
f 558 550 556
f 554 560 561
f 554 561 555
f 555 561 559
f 555 559 553
f 563 557 558
f 563 558 564
f 564 558 556
f 564 556 562
f 560 566 567
f 560 567 561
f 561 567 565
f 561 565 559
f 569 563 564
f 569 564 570
f 570 564 562
f 570 562 568
f 566 572 573
f 566 573 567
f 567 573 571
f 567 571 565
f 575 569 570
f 575 570 576
f 576 570 568
f 576 568 574
f 572 578 579
f 572 579 573
f 573 579 577
f 573 577 571
f 581 575 576
f 581 576 582
f 582 576 574
f 582 574 580
f 578 584 585
f 578 585 579
f 579 585 583
f 579 583 577
f 587 581 582
f 587 582 588
f 588 582 580
f 588 580 586
f 584 590 591
f 584 591 585
f 585 591 589
f 585 589 583
f 593 587 588
f 593 588 594
f 594 588 586
f 594 586 592
f 590 596 597
f 590 597 591
f 591 597 595
f 591 595 589
f 599 593 594
f 599 594 600
f 600 594 592
f 600 592 598
f 596 602 603
f 596 603 597
f 597 603 601
f 597 601 595
f 605 599 600
f 605 600 606
f 606 600 598
f 606 598 604
f 602 608 609
f 602 609 603
f 603 609 607
f 603 607 601
f 611 605 606
f 611 606 612
f 612 606 604
f 612 604 610
f 608 614 615
f 608 615 609
f 609 615 613
f 609 613 607
f 617 611 612
f 617 612 618
f 618 612 610
f 618 610 616
f 614 620 621
f 614 621 615
f 615 621 619
f 615 619 613
f 623 617 618
f 623 618 624
f 624 618 616
f 624 616 622
f 620 626 627
f 620 627 621
f 621 627 625
f 621 625 619
f 629 623 624
f 629 624 630
f 630 624 622
f 630 622 628
f 626 632 633
f 626 633 627
f 627 633 631
f 627 631 625
f 635 629 630
f 635 630 636
f 636 630 628
f 636 628 634
f 632 638 639
f 632 639 633
f 633 639 637
f 633 637 631
f 641 635 636
f 641 636 642
f 642 636 634
f 642 634 640
f 638 644 645
f 638 645 639
f 639 645 643
f 639 643 637
f 647 641 642
f 647 642 648
f 648 642 640
f 648 640 646
f 644 650 651
f 644 651 645
f 645 651 649
f 645 649 643
f 653 647 648
f 653 648 654
f 654 648 646
f 654 646 652
f 650 656 657
f 650 657 651
f 651 657 655
f 651 655 649
f 659 653 654
f 659 654 660
f 660 654 652
f 660 652 658
f 656 662 663
f 656 663 657
f 657 663 661
f 657 661 655
f 665 659 660
f 665 660 666
f 666 660 658
f 666 658 664
f 662 668 669
f 662 669 663
f 663 669 667
f 663 667 661
f 671 665 666
f 671 666 672
f 672 666 664
f 672 664 670
f 668 674 675
f 668 675 669
f 669 675 673
f 669 673 667
f 677 671 672
f 677 672 678
f 678 672 670
f 678 670 676
f 674 680 681
f 674 681 675
f 675 681 679
f 675 679 673
f 683 677 678
f 683 678 684
f 684 678 676
f 684 676 682
f 680 686 687
f 680 687 681
f 681 687 685
f 681 685 679
f 689 683 684
f 689 684 690
f 690 684 682
f 690 682 688
f 686 692 693
f 686 693 687
f 687 693 691
f 687 691 685
f 695 689 690
f 695 690 696
f 696 690 688
f 696 688 694
f 692 698 699
f 692 699 693
f 693 699 697
f 693 697 691
f 701 695 696
f 701 696 702
f 702 696 694
f 702 694 700
f 698 704 705
f 698 705 699
f 699 705 703
f 699 703 697
f 707 701 702
f 707 702 708
f 708 702 700
f 708 700 706
f 704 710 711
f 704 711 705
f 705 711 709
f 705 709 703
f 713 707 708
f 713 708 714
f 714 708 706
f 714 706 712
f 710 716 717
f 710 717 711
f 711 717 715
f 711 715 709
f 719 713 714
f 719 714 720
f 720 714 712
f 720 712 718
f 716 722 723
f 716 723 717
f 717 723 721
f 717 721 715
f 725 719 720
f 725 720 726
f 726 720 718
f 726 718 724
f 722 728 729
f 722 729 723
f 723 729 727
f 723 727 721
f 731 725 726
f 731 726 732
f 732 726 724
f 732 724 730
f 728 734 735
f 728 735 729
f 729 735 733
f 729 733 727
f 737 731 732
f 737 732 738
f 738 732 730
f 738 730 736
f 734 740 741
f 734 741 735
f 735 741 739
f 735 739 733
f 743 737 738
f 743 738 744
f 744 738 736
f 744 736 742
f 740 746 747
f 740 747 741
f 741 747 745
f 741 745 739
f 749 743 744
f 749 744 750
f 750 744 742
f 750 742 748
f 746 752 753
f 746 753 747
f 747 753 751
f 747 751 745
f 755 749 750
f 755 750 756
f 756 750 748
f 756 748 754
f 752 758 759
f 752 759 753
f 753 759 757
f 753 757 751
f 761 755 756
f 761 756 762
f 762 756 754
f 762 754 760
f 758 764 765
f 758 765 759
f 759 765 763
f 759 763 757
f 767 761 762
f 767 762 768
f 768 762 760
f 768 760 766
f 764 386 387
f 764 387 765
f 765 387 385
f 765 385 763
f 389 767 768
f 389 768 390
f 390 768 766
f 390 766 388
f 763 385 391
f 391 397 403
f 403 409 415
f 415 421 427
f 427 433 439
f 439 445 451
f 451 457 463
f 463 469 475
f 475 481 487
f 487 493 499
f 499 505 511
f 511 517 523
f 523 529 535
f 535 541 547
f 547 553 559
f 559 565 571
f 571 577 583
f 583 589 595
f 595 601 607
f 607 613 619
f 619 625 631
f 631 637 643
f 643 649 655
f 655 661 667
f 667 673 679
f 679 685 691
f 691 697 703
f 703 709 715
f 715 721 727
f 727 733 739
f 739 745 751
f 751 757 763
f 763 391 403
f 403 415 427
f 427 439 451
f 451 463 475
f 475 487 499
f 499 511 523
f 523 535 547
f 547 559 571
f 571 583 595
f 595 607 619
f 619 631 643
f 643 655 667
f 667 679 691
f 691 703 715
f 715 727 739
f 739 751 763
f 763 403 427
f 427 451 475
f 475 499 523
f 523 547 571
f 571 595 619
f 619 643 667
f 667 691 715
f 715 739 763
f 763 427 475
f 475 523 571
f 571 619 667
f 667 715 763
f 763 475 571
f 571 667 763
f 386 389 395
f 386 395 392
f 764 767 389
f 764 389 386
f 400 394 388
f 388 766 760
f 760 754 748
f 748 742 736
f 736 730 724
f 724 718 712
f 712 706 700
f 700 694 688
f 688 682 676
f 676 670 664
f 664 658 652
f 652 646 640
f 640 634 628
f 628 622 616
f 616 610 604
f 604 598 592
f 592 586 580
f 580 574 568
f 568 562 556
f 556 550 544
f 544 538 532
f 532 526 520
f 520 514 508
f 508 502 496
f 496 490 484
f 484 478 472
f 472 466 460
f 460 454 448
f 448 442 436
f 436 430 424
f 424 418 412
f 412 406 400
f 400 388 760
f 760 748 736
f 736 724 712
f 712 700 688
f 688 676 664
f 664 652 640
f 640 628 616
f 616 604 592
f 592 580 568
f 568 556 544
f 544 532 520
f 520 508 496
f 496 484 472
f 472 460 448
f 448 436 424
f 424 412 400
f 400 760 736
f 736 712 688
f 688 664 640
f 640 616 592
f 592 568 544
f 544 520 496
f 496 472 448
f 448 424 400
f 400 736 688
f 688 640 592
f 592 544 496
f 496 448 400
f 400 688 592
f 592 496 400
f 392 395 401
f 392 401 398
f 398 401 407
f 398 407 404
f 404 407 413
f 404 413 410
f 410 413 419
f 410 419 416
f 416 419 425
f 416 425 422
f 422 425 431
f 422 431 428
f 428 431 437
f 428 437 434
f 434 437 443
f 434 443 440
f 440 443 449
f 440 449 446
f 446 449 455
f 446 455 452
f 452 455 461
f 452 461 458
f 458 461 467
f 458 467 464
f 464 467 473
f 464 473 470
f 470 473 479
f 470 479 476
f 476 479 485
f 476 485 482
f 482 485 491
f 482 491 488
f 488 491 497
f 488 497 494
f 494 497 503
f 494 503 500
f 500 503 509
f 500 509 506
f 506 509 515
f 506 515 512
f 512 515 521
f 512 521 518
f 518 521 527
f 518 527 524
f 524 527 533
f 524 533 530
f 530 533 539
f 530 539 536
f 536 539 545
f 536 545 542
f 542 545 551
f 542 551 548
f 548 551 557
f 548 557 554
f 554 557 563
f 554 563 560
f 560 563 569
f 560 569 566
f 566 569 575
f 566 575 572
f 572 575 581
f 572 581 578
f 578 581 587
f 578 587 584
f 584 587 593
f 584 593 590
f 590 593 599
f 590 599 596
f 596 599 605
f 596 605 602
f 602 605 611
f 602 611 608
f 608 611 617
f 608 617 614
f 614 617 623
f 614 623 620
f 620 623 629
f 620 629 626
f 626 629 635
f 626 635 632
f 632 635 641
f 632 641 638
f 638 641 647
f 638 647 644
f 644 647 653
f 644 653 650
f 650 653 659
f 650 659 656
f 656 659 665
f 656 665 662
f 662 665 671
f 662 671 668
f 668 671 677
f 668 677 674
f 674 677 683
f 674 683 680
f 680 683 689
f 680 689 686
f 686 689 695
f 686 695 692
f 692 695 701
f 692 701 698
f 698 701 707
f 698 707 704
f 704 707 713
f 704 713 710
f 710 713 719
f 710 719 716
f 716 719 725
f 716 725 722
f 722 725 731
f 722 731 728
f 728 731 737
f 728 737 734
f 734 737 743
f 734 743 740
f 740 743 749
f 740 749 746
f 746 749 755
f 746 755 752
f 752 755 761
f 752 761 758
f 758 761 767
f 758 767 764
f 769 770 777
f 770 774 777
f 774 773 777
f 773 769 777
f 770 771 775
f 770 775 774
f 771 772 776
f 771 776 775
f 772 769 773
f 772 773 776
f 773 774 775
f 773 775 776
f 769 772 771
f 769 771 770
