# Frozen M4 display cutaway. World coordinates: Z up, metres.
v 10.9638443 20.121582 1.84631884
v 11.0044727 20.1826973 1.98000002
v 11.0761557 20.1984177 2.11368108
v 11.0355272 20.1373024 1.98000002
v 11.0200005 20.1599998 2
v 11.0720835 20.0709457 1.95941973
v 11.0005779 20.1486416 2.02999997
v 10.9679165 20.249054 2.10058022
v 11.039422 20.1713581 2.02999997
v 11.0200005 20.1599998 2.04999995
v 11.1738443 20.121582 1.84631884
v 11.2144728 20.1826973 1.98000002
v 11.2861557 20.1984177 2.11368108
v 11.2455273 20.1373024 1.98000002
v 11.2299995 20.1599998 2
v 11.2820835 20.0709457 1.95941973
v 11.210578 20.1486416 2.02999997
v 11.1779165 20.249054 2.10058022
v 11.2494221 20.1713581 2.02999997
v 11.2299995 20.1599998 2.04999995
v 9.76384449 23.2615814 1.84631884
v 9.80447197 23.3226967 1.98000002
v 9.8761549 23.3384171 2.11368108
v 9.83552742 23.2773037 1.98000002
v 9.81999969 23.2999992 2
v 9.87208366 23.2109451 1.95941973
v 9.80057812 23.288641 2.02999997
v 9.76791668 23.3890553 2.10058022
v 9.83942223 23.3113594 2.02999997
v 9.81999969 23.2999992 2.04999995
v 9.97384453 23.2615814 1.84631884
v 10.014472 23.3226967 1.98000002
v 10.0861549 23.3384171 2.11368108
v 10.0455275 23.2773037 1.98000002
v 10.0299997 23.2999992 2
v 10.0820837 23.2109451 1.95941973
v 10.0105782 23.288641 2.02999997
v 9.97791672 23.3890553 2.10058022
v 10.0494223 23.3113594 2.02999997
v 10.0299997 23.2999992 2.04999995
f 1 2 5
f 2 3 5
f 3 4 5
f 4 1 5
f 6 7 10
f 7 8 10
f 8 9 10
f 9 6 10
f 11 12 15
f 12 13 15
f 13 14 15
f 14 11 15
f 16 17 20
f 17 18 20
f 18 19 20
f 19 16 20
f 21 22 25
f 22 23 25
f 23 24 25
f 24 21 25
f 26 27 30
f 27 28 30
f 28 29 30
f 29 26 30
f 31 32 35
f 32 33 35
f 33 34 35
f 34 31 35
f 36 37 40
f 37 38 40
f 38 39 40
f 39 36 40
