# Frozen M4 display cutaway. World coordinates: Z up, metres.
v 18.5049999 22.2300005 0.0249999762
v 18.5049999 22.1950005 0.0599999726
v 18.4699999 22.2300005 0.0599999726
v 18.5049999 22.2125235 0.0296758413
v 18.4875229 22.2300005 0.0296758413
v 18.4882625 22.2132631 0.0342178345
v 18.4875229 22.1996763 0.0599999726
v 18.5049999 22.1996763 0.0425229371
v 18.4882625 22.2042183 0.0432625711
v 18.4746758 22.2300005 0.0425229371
v 18.4746758 22.2125235 0.0599999726
v 18.4792178 22.2132631 0.0432625711
v 18.5049999 22.1950005 0.590000004
v 18.5049999 22.2300005 0.625
v 18.4699999 22.2300005 0.590000004
v 18.5049999 22.1996763 0.607477039
v 18.4875229 22.1996763 0.590000004
v 18.4882625 22.2042183 0.606737405
v 18.4875229 22.2300005 0.620324135
v 18.5049999 22.2125235 0.620324135
v 18.4882625 22.2132631 0.615782142
v 18.4746758 22.2125235 0.590000004
v 18.4746758 22.2300005 0.607477039
v 18.4792178 22.2132631 0.606737405
v 18.5049999 23.8100004 0.0249999762
v 18.4699999 23.8100004 0.0599999726
v 18.5049999 23.8450004 0.0599999726
v 18.4875228 23.8100004 0.0296758413
v 18.5049999 23.8274775 0.0296758413
v 18.4882625 23.8267378 0.0342178345
v 18.4746757 23.8274775 0.0599999726
v 18.4746757 23.8100004 0.0425229371
v 18.4792177 23.8267378 0.0432625711
v 18.5049999 23.8403246 0.0425229371
v 18.4875228 23.8403246 0.0599999726
v 18.4882625 23.8357826 0.0432625711
v 18.5049999 23.8100004 0.625
v 18.5049999 23.8450004 0.590000004
v 18.4699999 23.8100004 0.590000004
v 18.5049999 23.8274775 0.620324135
v 18.4875229 23.8100004 0.620324135
v 18.4882625 23.8267378 0.615782142
v 18.4875229 23.8403246 0.590000004
v 18.5049999 23.8403246 0.607477039
v 18.4882625 23.8357826 0.606737405
v 18.4746758 23.8100004 0.607477039
v 18.4746758 23.8274775 0.590000004
v 18.4792178 23.8267378 0.606737405
v 19.1549999 22.2300005 0.0249999762
v 19.1899999 22.2300005 0.0599999726
v 19.1549999 22.1950005 0.0599999726
v 19.172477 22.2300005 0.0296758413
v 19.155 22.2125235 0.0296758413
v 19.1717374 22.2132631 0.0342178345
v 19.1853241 22.2125235 0.0599999726
v 19.1853241 22.2300005 0.0425229371
v 19.1807821 22.2132631 0.0432625711
v 19.155 22.1996763 0.0425229371
v 19.172477 22.1996763 0.0599999726
v 19.1717374 22.2042183 0.0432625711
v 19.1549999 22.2300005 0.625
v 19.1549999 22.1950005 0.590000004
v 19.1899999 22.2300005 0.590000004
v 19.1549999 22.2125235 0.620324135
v 19.1724769 22.2300005 0.620324135
v 19.1717373 22.2132631 0.615782142
v 19.1724769 22.1996763 0.590000004
v 19.1549999 22.1996763 0.607477039
v 19.1717373 22.2042183 0.606737405
v 19.185324 22.2300005 0.607477039
v 19.185324 22.2125235 0.590000004
v 19.180782 22.2132631 0.606737405
v 19.1549999 23.8100004 0.0249999762
v 19.1549999 23.8450004 0.0599999726
v 19.1899999 23.8100004 0.0599999726
v 19.1549999 23.8274775 0.0296758413
v 19.1724769 23.8100004 0.0296758413
v 19.1717373 23.8267378 0.0342178345
v 19.1724769 23.8403246 0.0599999726
v 19.1549999 23.8403246 0.0425229371
v 19.1717373 23.8357826 0.0432625711
v 19.185324 23.8100004 0.0425229371
v 19.185324 23.8274775 0.0599999726
v 19.180782 23.8267378 0.0432625711
v 19.1549999 23.8100004 0.625
v 19.1899999 23.8100004 0.590000004
v 19.1549999 23.8450004 0.590000004
v 19.172477 23.8100004 0.620324135
v 19.155 23.8274775 0.620324135
v 19.1717374 23.8267378 0.615782142
v 19.1853241 23.8274775 0.590000004
v 19.1853241 23.8100004 0.607477039
v 19.1807821 23.8267378 0.606737405
v 19.155 23.8403246 0.607477039
v 19.172477 23.8403246 0.590000004
v 19.1717374 23.8357826 0.606737405
v 18.5049999 19.9700003 0.0249999762
v 18.5049999 19.9350002 0.0599999726
v 18.4699999 19.9700003 0.0599999726
v 18.5049999 19.9525232 0.0296758413
v 18.4875229 19.9700003 0.0296758413
v 18.4882625 19.9532629 0.0342178345
v 18.4875229 19.9396761 0.0599999726
v 18.5049999 19.9396761 0.0425229371
v 18.4882625 19.9442181 0.0432625711
v 18.4746758 19.9700003 0.0425229371
v 18.4746758 19.9525232 0.0599999726
v 18.4792178 19.9532629 0.0432625711
v 18.5049999 19.9350002 0.590000004
v 18.5049999 19.9700003 0.625
v 18.4699999 19.9700003 0.590000004
v 18.5049999 19.9396761 0.607477039
v 18.4875229 19.9396761 0.590000004
v 18.4882625 19.9442181 0.606737405
v 18.4875229 19.9700003 0.620324135
v 18.5049999 19.9525232 0.620324135
v 18.4882625 19.9532629 0.615782142
v 18.4746758 19.9525232 0.590000004
v 18.4746758 19.9700003 0.607477039
v 18.4792178 19.9532629 0.606737405
v 18.5049999 21.5500002 0.0249999762
v 18.4699999 21.5500002 0.0599999726
v 18.5049999 21.5850002 0.0599999726
v 18.4875228 21.5500002 0.0296758413
v 18.5049999 21.5674772 0.0296758413
v 18.4882625 21.5667376 0.0342178345
v 18.4746757 21.5674772 0.0599999726
v 18.4746757 21.5500002 0.0425229371
v 18.4792177 21.5667376 0.0432625711
v 18.5049999 21.5803244 0.0425229371
v 18.4875228 21.5803244 0.0599999726
v 18.4882625 21.5757824 0.0432625711
v 18.5049999 21.5500002 0.625
v 18.5049999 21.5850002 0.590000004
v 18.4699999 21.5500002 0.590000004
v 18.5049999 21.5674772 0.620324135
v 18.4875229 21.5500002 0.620324135
v 18.4882625 21.5667376 0.615782142
v 18.4875229 21.5803244 0.590000004
v 18.5049999 21.5803244 0.607477039
v 18.4882625 21.5757824 0.606737405
v 18.4746758 21.5500002 0.607477039
v 18.4746758 21.5674772 0.590000004
v 18.4792178 21.5667376 0.606737405
v 19.1549999 19.9700003 0.0249999762
v 19.1899999 19.9700003 0.0599999726
v 19.1549999 19.9350002 0.0599999726
v 19.172477 19.9700003 0.0296758413
v 19.155 19.9525232 0.0296758413
v 19.1717374 19.9532629 0.0342178345
v 19.1853241 19.9525232 0.0599999726
v 19.1853241 19.9700003 0.0425229371
v 19.1807821 19.9532629 0.0432625711
v 19.155 19.9396761 0.0425229371
v 19.172477 19.9396761 0.0599999726
v 19.1717374 19.9442181 0.0432625711
v 19.1549999 19.9700003 0.625
v 19.1549999 19.9350002 0.590000004
v 19.1899999 19.9700003 0.590000004
v 19.1549999 19.9525232 0.620324135
v 19.1724769 19.9700003 0.620324135
v 19.1717373 19.9532629 0.615782142
v 19.1724769 19.9396761 0.590000004
v 19.1549999 19.9396761 0.607477039
v 19.1717373 19.9442181 0.606737405
v 19.185324 19.9700003 0.607477039
v 19.185324 19.9525232 0.590000004
v 19.180782 19.9532629 0.606737405
v 19.1549999 21.5500002 0.0249999762
v 19.1549999 21.5850002 0.0599999726
v 19.1899999 21.5500002 0.0599999726
v 19.1549999 21.5674772 0.0296758413
v 19.1724769 21.5500002 0.0296758413
v 19.1717373 21.5667376 0.0342178345
v 19.1724769 21.5803244 0.0599999726
v 19.1549999 21.5803244 0.0425229371
v 19.1717373 21.5757824 0.0432625711
v 19.185324 21.5500002 0.0425229371
v 19.185324 21.5674772 0.0599999726
v 19.180782 21.5667376 0.0432625711
v 19.1549999 21.5500002 0.625
v 19.1899999 21.5500002 0.590000004
v 19.1549999 21.5850002 0.590000004
v 19.172477 21.5500002 0.620324135
v 19.155 21.5674772 0.620324135
v 19.1717374 21.5667376 0.615782142
v 19.1853241 21.5674772 0.590000004
v 19.1853241 21.5500002 0.607477039
v 19.1807821 21.5667376 0.606737405
v 19.155 21.5803244 0.607477039
v 19.172477 21.5803244 0.590000004
v 19.1717374 21.5757824 0.606737405
v 10.8700004 19.9299998 0.025000006
v 10.8700004 19.9149998 0.0399999917
v 10.8550004 19.9299998 0.0399999917
v 10.8700004 19.9225097 0.0270039737
v 10.8625102 19.9299998 0.0270039737
v 10.8628272 19.9228266 0.0289505422
v 10.8625102 19.9170038 0.0400000215
v 10.8700004 19.9170038 0.0325098634
v 10.8628272 19.9189503 0.0328268409
v 10.8570043 19.9299998 0.0325098634
v 10.8570043 19.9225097 0.0400000215
v 10.8589509 19.9228266 0.0328268409
v 10.8700004 19.9149998 0.960000008
v 10.8700004 19.9299998 0.974999994
v 10.8550004 19.9299998 0.960000008
v 10.8700004 19.9170038 0.967490137
v 10.8625102 19.9170038 0.959999979
v 10.8628272 19.9189503 0.967173159
v 10.8625102 19.9299998 0.972996026
v 10.8700004 19.9225097 0.972996026
v 10.8628272 19.9228266 0.971049458
v 10.8570043 19.9225097 0.959999979
v 10.8570043 19.9299998 0.967490137
v 10.8589509 19.9228266 0.967173159
v 10.8700004 20.3899999 0.025000006
v 10.8550004 20.3899999 0.0399999917
v 10.8700004 20.4049999 0.0399999917
v 10.8625102 20.3899999 0.0270039737
v 10.8700004 20.39749 0.0270039737
v 10.8628272 20.397173 0.0289505422
v 10.8570043 20.39749 0.0400000215
v 10.8570043 20.3899999 0.0325098634
v 10.8589509 20.397173 0.0328268409
v 10.8700004 20.4029959 0.0325098634
v 10.8625102 20.4029959 0.0400000215
v 10.8628272 20.4010494 0.0328268409
v 10.8700004 20.3899999 0.974999994
v 10.8700004 20.4049999 0.960000008
v 10.8550004 20.3899999 0.960000008
v 10.8700004 20.39749 0.972996026
v 10.8625102 20.3899999 0.972996026
v 10.8628272 20.397173 0.971049458
v 10.8625102 20.4029959 0.959999979
v 10.8700004 20.4029959 0.967490137
v 10.8628272 20.4010494 0.967173159
v 10.8570043 20.3899999 0.967490137
v 10.8570043 20.39749 0.959999979
v 10.8589509 20.397173 0.967173159
v 11.3300004 19.9299998 0.025000006
v 11.3450004 19.9299998 0.0399999917
v 11.3300004 19.9149998 0.0399999917
v 11.3374906 19.9299998 0.0270039737
v 11.3300004 19.9225097 0.0270039737
v 11.3371736 19.9228266 0.0289505422
v 11.3429965 19.9225097 0.0400000215
v 11.3429965 19.9299998 0.0325098634
v 11.3410499 19.9228266 0.0328268409
v 11.3300004 19.9170038 0.0325098634
v 11.3374906 19.9170038 0.0400000215
v 11.3371736 19.9189503 0.0328268409
v 11.3300004 19.9299998 0.974999994
v 11.3300004 19.9149998 0.960000008
v 11.3450004 19.9299998 0.960000008
v 11.3300004 19.9225097 0.972996026
v 11.3374906 19.9299998 0.972996026
v 11.3371736 19.9228266 0.971049458
v 11.3374906 19.9170038 0.959999979
v 11.3300004 19.9170038 0.967490137
v 11.3371736 19.9189503 0.967173159
v 11.3429965 19.9299998 0.967490137
v 11.3429965 19.9225097 0.959999979
v 11.3410499 19.9228266 0.967173159
v 11.3300004 20.3899999 0.025000006
v 11.3300004 20.4049999 0.0399999917
v 11.3450004 20.3899999 0.0399999917
v 11.3300004 20.39749 0.0270039737
v 11.3374906 20.3899999 0.0270039737
v 11.3371736 20.397173 0.0289505422
v 11.3374906 20.4029959 0.0400000215
v 11.3300004 20.4029959 0.0325098634
v 11.3371736 20.4010494 0.0328268409
v 11.3429965 20.3899999 0.0325098634
v 11.3429965 20.39749 0.0400000215
v 11.3410499 20.397173 0.0328268409
v 11.3300004 20.3899999 0.974999994
v 11.3450004 20.3899999 0.960000008
v 11.3300004 20.4049999 0.960000008
v 11.3374906 20.3899999 0.972996026
v 11.3300004 20.39749 0.972996026
v 11.3371736 20.397173 0.971049458
v 11.3429965 20.39749 0.959999979
v 11.3429965 20.3899999 0.967490137
v 11.3410499 20.397173 0.967173159
v 11.3300004 20.4029959 0.967490137
v 11.3374906 20.4029959 0.959999979
v 11.3371736 20.4010494 0.967173159
v 9.66999961 23.0699992 0.025000006
v 9.66999961 23.0549992 0.0399999917
v 9.65499961 23.0699992 0.0399999917
v 9.6699996 23.0625091 0.0270039737
v 9.66250944 23.0699992 0.0270039737
v 9.66282642 23.062826 0.0289505422
v 9.66250944 23.0570032 0.0400000215
v 9.6699996 23.0570032 0.0325098634
v 9.66282642 23.0589497 0.0328268409
v 9.65700354 23.0699992 0.0325098634
v 9.65700354 23.0625091 0.0400000215
v 9.65895011 23.062826 0.0328268409
v 9.66999961 23.0549992 0.960000008
v 9.66999961 23.0699992 0.974999994
v 9.65499961 23.0699992 0.960000008
v 9.6699996 23.0570032 0.967490137
v 9.66250944 23.0570032 0.959999979
v 9.66282642 23.0589497 0.967173159
v 9.66250944 23.0699992 0.972996026
v 9.6699996 23.0625091 0.972996026
v 9.66282642 23.062826 0.971049458
v 9.65700354 23.0625091 0.959999979
v 9.65700354 23.0699992 0.967490137
v 9.65895011 23.062826 0.967173159
v 9.66999961 23.5299992 0.025000006
v 9.65499961 23.5299992 0.0399999917
v 9.66999961 23.5449992 0.0399999917
v 9.66250944 23.5299993 0.0270039737
v 9.6699996 23.5374894 0.0270039737
v 9.66282642 23.5371724 0.0289505422
v 9.65700354 23.5374894 0.0400000215
v 9.65700354 23.5299993 0.0325098634
v 9.65895011 23.5371724 0.0328268409
v 9.6699996 23.5429953 0.0325098634
v 9.66250944 23.5429953 0.0400000215
v 9.66282642 23.5410488 0.0328268409
v 9.66999961 23.5299992 0.974999994
v 9.66999961 23.5449992 0.960000008
v 9.65499961 23.5299992 0.960000008
v 9.6699996 23.5374894 0.972996026
v 9.66250944 23.5299993 0.972996026
v 9.66282642 23.5371724 0.971049458
v 9.66250944 23.5429953 0.959999979
v 9.6699996 23.5429953 0.967490137
v 9.66282642 23.5410488 0.967173159
v 9.65700354 23.5299993 0.967490137
v 9.65700354 23.5374894 0.959999979
v 9.65895011 23.5371724 0.967173159
v 10.1299996 23.0699992 0.025000006
v 10.1449996 23.0699992 0.0399999917
v 10.1299996 23.0549992 0.0399999917
v 10.1374898 23.0699992 0.0270039737
v 10.1299996 23.0625091 0.0270039737
v 10.1371728 23.062826 0.0289505422
v 10.1429957 23.0625091 0.0400000215
v 10.1429957 23.0699992 0.0325098634
v 10.1410491 23.062826 0.0328268409
v 10.1299996 23.0570032 0.0325098634
v 10.1374898 23.0570032 0.0400000215
v 10.1371728 23.0589497 0.0328268409
v 10.1299996 23.0699992 0.974999994
v 10.1299996 23.0549992 0.960000008
v 10.1449996 23.0699992 0.960000008
v 10.1299996 23.0625091 0.972996026
v 10.1374898 23.0699992 0.972996026
v 10.1371728 23.062826 0.971049458
v 10.1374898 23.0570032 0.959999979
v 10.1299996 23.0570032 0.967490137
v 10.1371728 23.0589497 0.967173159
v 10.1429957 23.0699992 0.967490137
v 10.1429957 23.0625091 0.959999979
v 10.1410491 23.062826 0.967173159
v 10.1299996 23.5299992 0.025000006
v 10.1299996 23.5449992 0.0399999917
v 10.1449996 23.5299992 0.0399999917
v 10.1299996 23.5374894 0.0270039737
v 10.1374898 23.5299993 0.0270039737
v 10.1371728 23.5371724 0.0289505422
v 10.1374898 23.5429953 0.0400000215
v 10.1299996 23.5429953 0.0325098634
v 10.1371728 23.5410488 0.0328268409
v 10.1429957 23.5299993 0.0325098634
v 10.1429957 23.5374894 0.0400000215
v 10.1410491 23.5371724 0.0328268409
v 10.1299996 23.5299992 0.974999994
v 10.1449996 23.5299992 0.960000008
v 10.1299996 23.5449992 0.960000008
v 10.1374898 23.5299993 0.972996026
v 10.1299996 23.5374894 0.972996026
v 10.1371728 23.5371724 0.971049458
v 10.1429957 23.5374894 0.959999979
v 10.1429957 23.5299993 0.967490137
v 10.1410491 23.5371724 0.967173159
v 10.1299996 23.5429953 0.967490137
v 10.1374898 23.5429953 0.959999979
v 10.1371728 23.5410488 0.967173159
f 1 4 6
f 1 6 5
f 4 8 9
f 4 9 6
f 2 7 9
f 2 9 8
f 7 11 12
f 7 12 9
f 3 10 12
f 3 12 11
f 10 5 6
f 10 6 12
f 6 9 12
f 13 16 18
f 13 18 17
f 16 20 21
f 16 21 18
f 14 19 21
f 14 21 20
f 19 23 24
f 19 24 21
f 15 22 24
f 15 24 23
f 22 17 18
f 22 18 24
f 18 21 24
f 25 28 30
f 25 30 29
f 28 32 33
f 28 33 30
f 26 31 33
f 26 33 32
f 31 35 36
f 31 36 33
f 27 34 36
f 27 36 35
f 34 29 30
f 34 30 36
f 30 33 36
f 37 40 42
f 37 42 41
f 40 44 45
f 40 45 42
f 38 43 45
f 38 45 44
f 43 47 48
f 43 48 45
f 39 46 48
f 39 48 47
f 46 41 42
f 46 42 48
f 42 45 48
f 49 52 54
f 49 54 53
f 52 56 57
f 52 57 54
f 50 55 57
f 50 57 56
f 55 59 60
f 55 60 57
f 51 58 60
f 51 60 59
f 58 53 54
f 58 54 60
f 54 57 60
f 61 64 66
f 61 66 65
f 64 68 69
f 64 69 66
f 62 67 69
f 62 69 68
f 67 71 72
f 67 72 69
f 63 70 72
f 63 72 71
f 70 65 66
f 70 66 72
f 66 69 72
f 73 76 78
f 73 78 77
f 76 80 81
f 76 81 78
f 74 79 81
f 74 81 80
f 79 83 84
f 79 84 81
f 75 82 84
f 75 84 83
f 82 77 78
f 82 78 84
f 78 81 84
f 85 88 90
f 85 90 89
f 88 92 93
f 88 93 90
f 86 91 93
f 86 93 92
f 91 95 96
f 91 96 93
f 87 94 96
f 87 96 95
f 94 89 90
f 94 90 96
f 90 93 96
f 25 1 5
f 25 5 28
f 28 5 10
f 28 10 32
f 32 10 3
f 32 3 26
f 2 13 17
f 2 17 7
f 7 17 22
f 7 22 11
f 11 22 15
f 11 15 3
f 14 37 41
f 14 41 19
f 19 41 46
f 19 46 23
f 23 46 39
f 23 39 15
f 38 27 35
f 38 35 43
f 43 35 31
f 43 31 47
f 47 31 26
f 47 26 39
f 73 25 29
f 73 29 76
f 76 29 34
f 76 34 80
f 80 34 27
f 80 27 74
f 37 85 89
f 37 89 40
f 40 89 94
f 40 94 44
f 44 94 87
f 44 87 38
f 86 75 83
f 86 83 91
f 91 83 79
f 91 79 95
f 95 79 74
f 95 74 87
f 49 73 77
f 49 77 52
f 52 77 82
f 52 82 56
f 56 82 75
f 56 75 50
f 85 61 65
f 85 65 88
f 88 65 70
f 88 70 92
f 92 70 63
f 92 63 86
f 62 51 59
f 62 59 67
f 67 59 55
f 67 55 71
f 71 55 50
f 71 50 63
f 1 49 53
f 1 53 4
f 4 53 58
f 4 58 8
f 8 58 51
f 8 51 2
f 61 14 20
f 61 20 64
f 64 20 16
f 64 16 68
f 68 16 13
f 68 13 62
f 25 73 49
f 25 49 1
f 3 15 39
f 3 39 26
f 51 62 13
f 51 13 2
f 85 37 14
f 85 14 61
f 27 38 87
f 27 87 74
f 75 86 63
f 75 63 50
f 97 100 102
f 97 102 101
f 100 104 105
f 100 105 102
f 98 103 105
f 98 105 104
f 103 107 108
f 103 108 105
f 99 106 108
f 99 108 107
f 106 101 102
f 106 102 108
f 102 105 108
f 109 112 114
f 109 114 113
f 112 116 117
f 112 117 114
f 110 115 117
f 110 117 116
f 115 119 120
f 115 120 117
f 111 118 120
f 111 120 119
f 118 113 114
f 118 114 120
f 114 117 120
f 121 124 126
f 121 126 125
f 124 128 129
f 124 129 126
f 122 127 129
f 122 129 128
f 127 131 132
f 127 132 129
f 123 130 132
f 123 132 131
f 130 125 126
f 130 126 132
f 126 129 132
f 133 136 138
f 133 138 137
f 136 140 141
f 136 141 138
f 134 139 141
f 134 141 140
f 139 143 144
f 139 144 141
f 135 142 144
f 135 144 143
f 142 137 138
f 142 138 144
f 138 141 144
f 145 148 150
f 145 150 149
f 148 152 153
f 148 153 150
f 146 151 153
f 146 153 152
f 151 155 156
f 151 156 153
f 147 154 156
f 147 156 155
f 154 149 150
f 154 150 156
f 150 153 156
f 157 160 162
f 157 162 161
f 160 164 165
f 160 165 162
f 158 163 165
f 158 165 164
f 163 167 168
f 163 168 165
f 159 166 168
f 159 168 167
f 166 161 162
f 166 162 168
f 162 165 168
f 169 172 174
f 169 174 173
f 172 176 177
f 172 177 174
f 170 175 177
f 170 177 176
f 175 179 180
f 175 180 177
f 171 178 180
f 171 180 179
f 178 173 174
f 178 174 180
f 174 177 180
f 181 184 186
f 181 186 185
f 184 188 189
f 184 189 186
f 182 187 189
f 182 189 188
f 187 191 192
f 187 192 189
f 183 190 192
f 183 192 191
f 190 185 186
f 190 186 192
f 186 189 192
f 121 97 101
f 121 101 124
f 124 101 106
f 124 106 128
f 128 106 99
f 128 99 122
f 98 109 113
f 98 113 103
f 103 113 118
f 103 118 107
f 107 118 111
f 107 111 99
f 110 133 137
f 110 137 115
f 115 137 142
f 115 142 119
f 119 142 135
f 119 135 111
f 134 123 131
f 134 131 139
f 139 131 127
f 139 127 143
f 143 127 122
f 143 122 135
f 169 121 125
f 169 125 172
f 172 125 130
f 172 130 176
f 176 130 123
f 176 123 170
f 133 181 185
f 133 185 136
f 136 185 190
f 136 190 140
f 140 190 183
f 140 183 134
f 182 171 179
f 182 179 187
f 187 179 175
f 187 175 191
f 191 175 170
f 191 170 183
f 145 169 173
f 145 173 148
f 148 173 178
f 148 178 152
f 152 178 171
f 152 171 146
f 181 157 161
f 181 161 184
f 184 161 166
f 184 166 188
f 188 166 159
f 188 159 182
f 158 147 155
f 158 155 163
f 163 155 151
f 163 151 167
f 167 151 146
f 167 146 159
f 97 145 149
f 97 149 100
f 100 149 154
f 100 154 104
f 104 154 147
f 104 147 98
f 157 110 116
f 157 116 160
f 160 116 112
f 160 112 164
f 164 112 109
f 164 109 158
f 121 169 145
f 121 145 97
f 99 111 135
f 99 135 122
f 147 158 109
f 147 109 98
f 181 133 110
f 181 110 157
f 123 134 183
f 123 183 170
f 171 182 159
f 171 159 146
f 193 196 198
f 193 198 197
f 196 200 201
f 196 201 198
f 194 199 201
f 194 201 200
f 199 203 204
f 199 204 201
f 195 202 204
f 195 204 203
f 202 197 198
f 202 198 204
f 198 201 204
f 205 208 210
f 205 210 209
f 208 212 213
f 208 213 210
f 206 211 213
f 206 213 212
f 211 215 216
f 211 216 213
f 207 214 216
f 207 216 215
f 214 209 210
f 214 210 216
f 210 213 216
f 217 220 222
f 217 222 221
f 220 224 225
f 220 225 222
f 218 223 225
f 218 225 224
f 223 227 228
f 223 228 225
f 219 226 228
f 219 228 227
f 226 221 222
f 226 222 228
f 222 225 228
f 229 232 234
f 229 234 233
f 232 236 237
f 232 237 234
f 230 235 237
f 230 237 236
f 235 239 240
f 235 240 237
f 231 238 240
f 231 240 239
f 238 233 234
f 238 234 240
f 234 237 240
f 241 244 246
f 241 246 245
f 244 248 249
f 244 249 246
f 242 247 249
f 242 249 248
f 247 251 252
f 247 252 249
f 243 250 252
f 243 252 251
f 250 245 246
f 250 246 252
f 246 249 252
f 253 256 258
f 253 258 257
f 256 260 261
f 256 261 258
f 254 259 261
f 254 261 260
f 259 263 264
f 259 264 261
f 255 262 264
f 255 264 263
f 262 257 258
f 262 258 264
f 258 261 264
f 265 268 270
f 265 270 269
f 268 272 273
f 268 273 270
f 266 271 273
f 266 273 272
f 271 275 276
f 271 276 273
f 267 274 276
f 267 276 275
f 274 269 270
f 274 270 276
f 270 273 276
f 277 280 282
f 277 282 281
f 280 284 285
f 280 285 282
f 278 283 285
f 278 285 284
f 283 287 288
f 283 288 285
f 279 286 288
f 279 288 287
f 286 281 282
f 286 282 288
f 282 285 288
f 217 193 197
f 217 197 220
f 220 197 202
f 220 202 224
f 224 202 195
f 224 195 218
f 194 205 209
f 194 209 199
f 199 209 214
f 199 214 203
f 203 214 207
f 203 207 195
f 206 229 233
f 206 233 211
f 211 233 238
f 211 238 215
f 215 238 231
f 215 231 207
f 230 219 227
f 230 227 235
f 235 227 223
f 235 223 239
f 239 223 218
f 239 218 231
f 265 217 221
f 265 221 268
f 268 221 226
f 268 226 272
f 272 226 219
f 272 219 266
f 229 277 281
f 229 281 232
f 232 281 286
f 232 286 236
f 236 286 279
f 236 279 230
f 278 267 275
f 278 275 283
f 283 275 271
f 283 271 287
f 287 271 266
f 287 266 279
f 241 265 269
f 241 269 244
f 244 269 274
f 244 274 248
f 248 274 267
f 248 267 242
f 277 253 257
f 277 257 280
f 280 257 262
f 280 262 284
f 284 262 255
f 284 255 278
f 254 243 251
f 254 251 259
f 259 251 247
f 259 247 263
f 263 247 242
f 263 242 255
f 193 241 245
f 193 245 196
f 196 245 250
f 196 250 200
f 200 250 243
f 200 243 194
f 253 206 212
f 253 212 256
f 256 212 208
f 256 208 260
f 260 208 205
f 260 205 254
f 217 265 241
f 217 241 193
f 195 207 231
f 195 231 218
f 243 254 205
f 243 205 194
f 277 229 206
f 277 206 253
f 219 230 279
f 219 279 266
f 267 278 255
f 267 255 242
f 289 292 294
f 289 294 293
f 292 296 297
f 292 297 294
f 290 295 297
f 290 297 296
f 295 299 300
f 295 300 297
f 291 298 300
f 291 300 299
f 298 293 294
f 298 294 300
f 294 297 300
f 301 304 306
f 301 306 305
f 304 308 309
f 304 309 306
f 302 307 309
f 302 309 308
f 307 311 312
f 307 312 309
f 303 310 312
f 303 312 311
f 310 305 306
f 310 306 312
f 306 309 312
f 313 316 318
f 313 318 317
f 316 320 321
f 316 321 318
f 314 319 321
f 314 321 320
f 319 323 324
f 319 324 321
f 315 322 324
f 315 324 323
f 322 317 318
f 322 318 324
f 318 321 324
f 325 328 330
f 325 330 329
f 328 332 333
f 328 333 330
f 326 331 333
f 326 333 332
f 331 335 336
f 331 336 333
f 327 334 336
f 327 336 335
f 334 329 330
f 334 330 336
f 330 333 336
f 337 340 342
f 337 342 341
f 340 344 345
f 340 345 342
f 338 343 345
f 338 345 344
f 343 347 348
f 343 348 345
f 339 346 348
f 339 348 347
f 346 341 342
f 346 342 348
f 342 345 348
f 349 352 354
f 349 354 353
f 352 356 357
f 352 357 354
f 350 355 357
f 350 357 356
f 355 359 360
f 355 360 357
f 351 358 360
f 351 360 359
f 358 353 354
f 358 354 360
f 354 357 360
f 361 364 366
f 361 366 365
f 364 368 369
f 364 369 366
f 362 367 369
f 362 369 368
f 367 371 372
f 367 372 369
f 363 370 372
f 363 372 371
f 370 365 366
f 370 366 372
f 366 369 372
f 373 376 378
f 373 378 377
f 376 380 381
f 376 381 378
f 374 379 381
f 374 381 380
f 379 383 384
f 379 384 381
f 375 382 384
f 375 384 383
f 382 377 378
f 382 378 384
f 378 381 384
f 313 289 293
f 313 293 316
f 316 293 298
f 316 298 320
f 320 298 291
f 320 291 314
f 290 301 305
f 290 305 295
f 295 305 310
f 295 310 299
f 299 310 303
f 299 303 291
f 302 325 329
f 302 329 307
f 307 329 334
f 307 334 311
f 311 334 327
f 311 327 303
f 326 315 323
f 326 323 331
f 331 323 319
f 331 319 335
f 335 319 314
f 335 314 327
f 361 313 317
f 361 317 364
f 364 317 322
f 364 322 368
f 368 322 315
f 368 315 362
f 325 373 377
f 325 377 328
f 328 377 382
f 328 382 332
f 332 382 375
f 332 375 326
f 374 363 371
f 374 371 379
f 379 371 367
f 379 367 383
f 383 367 362
f 383 362 375
f 337 361 365
f 337 365 340
f 340 365 370
f 340 370 344
f 344 370 363
f 344 363 338
f 373 349 353
f 373 353 376
f 376 353 358
f 376 358 380
f 380 358 351
f 380 351 374
f 350 339 347
f 350 347 355
f 355 347 343
f 355 343 359
f 359 343 338
f 359 338 351
f 289 337 341
f 289 341 292
f 292 341 346
f 292 346 296
f 296 346 339
f 296 339 290
f 349 302 308
f 349 308 352
f 352 308 304
f 352 304 356
f 356 304 301
f 356 301 350
f 313 361 337
f 313 337 289
f 291 303 327
f 291 327 314
f 339 350 301
f 339 301 290
f 373 325 302
f 373 302 349
f 315 326 375
f 315 375 362
f 363 374 351
f 363 351 338
