# Frozen M4 display cutaway. World coordinates: Z up, metres.
v 18.5199999 22.2450005 0.625500011
v 18.5199999 22.2450005 0.650500012
v 18.5199999 23.7950004 0.625500011
v 18.5199999 23.7950004 0.650500012
v 19.1399999 22.2450005 0.625500011
v 19.1399999 22.2450005 0.650500012
v 19.1399999 23.7950004 0.625500011
v 19.1399999 23.7950004 0.650500012
v 18.5199999 19.9850003 0.625500011
v 18.5199999 19.9850003 0.650500012
v 18.5199999 21.5350002 0.625500011
v 18.5199999 21.5350002 0.650500012
v 19.1399999 19.9850003 0.625500011
v 19.1399999 19.9850003 0.650500012
v 19.1399999 21.5350002 0.625500011
v 19.1399999 21.5350002 0.650500012
f 1 2 4
f 1 4 3
f 3 4 8
f 3 8 7
f 7 8 6
f 7 6 5
f 5 6 2
f 5 2 1
f 3 7 5
f 3 5 1
f 8 4 2
f 8 2 6
f 9 10 12
f 9 12 11
f 11 12 16
f 11 16 15
f 15 16 14
f 15 14 13
f 13 14 10
f 13 10 9
f 11 15 13
f 11 13 9
f 16 12 10
f 16 10 14
