# Frozen M4 display cutaway. World coordinates: Z up, metres.
v 8.82499981 15.4500008 -0.184999995
v 8.82499981 15.4500008 0.0249999985
v 8.82499981 25.9500008 -0.184999995
v 8.82499981 25.9500008 0.0249999985
v 26.9749994 15.4500008 -0.184999995
v 26.9749994 15.4500008 0.0249999985
v 26.9749994 25.9500008 -0.184999995
v 26.9749994 25.9500008 0.0249999985
v 18.0499992 25.4119823 0.0250000954
v 18.0499992 25.4199995 0.0329999924
v 18.0499992 25.4176513 0.0273432732
v 18.0499992 25.4119823 4.99499989
v 18.0499992 25.4199995 4.98699999
v 18.0499992 25.4176513 4.99265671
v 18.0959422 25.4089711 0.0250000954
v 18.0969887 25.4169196 0.0329999924
v 18.0966822 25.4145916 0.0273432732
v 18.0959422 25.4089711 4.99499989
v 18.0969887 25.4169196 4.98699999
v 18.0966822 25.4145916 4.99265671
v 18.1410991 25.3999888 0.0250000954
v 18.1431741 25.4077328 0.0329999924
v 18.1425664 25.4054646 0.0273432732
v 18.1410991 25.3999888 4.99499989
v 18.1431741 25.4077328 4.98699999
v 18.1425664 25.4054646 4.99265671
v 18.1846974 25.3851891 0.0250000954
v 18.1877653 25.3925961 0.0329999924
v 18.1868667 25.3904266 0.0273432732
v 18.1846974 25.3851891 4.99499989
v 18.1877653 25.3925961 4.98699999
v 18.1868667 25.3904266 4.99265671
v 18.2259905 25.3648256 0.0250000954
v 18.2299992 25.3717686 0.0329999924
v 18.2288251 25.3697351 0.0273432732
v 18.2259905 25.3648256 4.99499989
v 18.2299992 25.3717686 4.98699999
v 18.2288251 25.3697351 4.99265671
v 18.2642729 25.3392462 0.0250000954
v 18.2691534 25.3456067 0.0329999924
v 18.2677239 25.3437437 0.0273432732
v 18.2642729 25.3392462 4.99499989
v 18.2691534 25.3456067 4.98699999
v 18.2677239 25.3437437 4.99265671
v 18.2988887 25.3088889 0.0250000954
v 18.3045577 25.3145579 0.0329999924
v 18.3028973 25.3128975 0.0273432732
v 18.2988887 25.3088889 4.99499989
v 18.3045577 25.3145579 4.98699999
v 18.3028973 25.3128975 4.99265671
v 18.329246 25.2742731 0.0250000954
v 18.3356065 25.2791536 0.0329999924
v 18.3337435 25.2777241 0.0273432732
v 18.329246 25.2742731 4.99499989
v 18.3356065 25.2791536 4.98699999
v 18.3337435 25.2777241 4.99265671
v 18.3548254 25.2359908 0.0250000954
v 18.3617684 25.2399995 0.0329999924
v 18.3597348 25.2388254 0.0273432732
v 18.3548254 25.2359908 4.99499989
v 18.3617684 25.2399995 4.98699999
v 18.3597348 25.2388254 4.99265671
v 18.3751889 25.1946976 0.0250000954
v 18.3825959 25.1977655 0.0329999924
v 18.3804264 25.1968669 0.0273432732
v 18.3751889 25.1946976 4.99499989
v 18.3825959 25.1977655 4.98699999
v 18.3804264 25.1968669 4.99265671
v 18.3899885 25.1510993 0.0250000954
v 18.3977326 25.1531743 0.0329999924
v 18.3954644 25.1525666 0.0273432732
v 18.3899885 25.1510993 4.99499989
v 18.3977326 25.1531743 4.98699999
v 18.3954644 25.1525666 4.99265671
v 18.3989708 25.1059424 0.0250000954
v 18.4069194 25.1069889 0.0329999924
v 18.4045914 25.1066824 0.0273432732
v 18.3989708 25.1059424 4.99499989
v 18.4069194 25.1069889 4.98699999
v 18.4045914 25.1066824 4.99265671
v 18.4019821 25.0599995 0.0250000954
v 18.4099993 25.0599995 0.0329999924
v 18.4076511 25.0599995 0.0273432732
v 18.4019821 25.0599995 4.99499989
v 18.4099993 25.0599995 4.98699999
v 18.4076511 25.0599995 4.99265671
v 18.3989708 25.0140565 0.0250000954
v 18.4069194 25.01301 0.0329999924
v 18.4045914 25.0133165 0.0273432732
v 18.3989708 25.0140565 4.99499989
v 18.4069194 25.01301 4.98699999
v 18.4045914 25.0133165 4.99265671
v 18.3899885 24.9688996 0.0250000954
v 18.3977326 24.9668246 0.0329999924
v 18.3954644 24.9674323 0.0273432732
v 18.3899885 24.9688996 4.99499989
v 18.3977326 24.9668246 4.98699999
v 18.3954644 24.9674323 4.99265671
v 18.3751889 24.9253013 0.0250000954
v 18.3825959 24.9222334 0.0329999924
v 18.3804264 24.923132 0.0273432732
v 18.3751889 24.9253013 4.99499989
v 18.3825959 24.9222334 4.98699999
v 18.3804264 24.923132 4.99265671
v 18.3548254 24.8840082 0.0250000954
v 18.3617684 24.8799995 0.0329999924
v 18.3597348 24.8811736 0.0273432732
v 18.3548254 24.8840082 4.99499989
v 18.3617684 24.8799995 4.98699999
v 18.3597348 24.8811736 4.99265671
v 18.329246 24.8457258 0.0250000954
v 18.3356065 24.8408453 0.0329999924
v 18.3337435 24.8422748 0.0273432732
v 18.329246 24.8457258 4.99499989
v 18.3356065 24.8408453 4.98699999
v 18.3337435 24.8422748 4.99265671
v 18.2988887 24.81111 0.0250000954
v 18.3045577 24.805441 0.0329999924
v 18.3028973 24.8071014 0.0273432732
v 18.2988887 24.81111 4.99499989
v 18.3045577 24.805441 4.98699999
v 18.3028973 24.8071014 4.99265671
v 18.2642729 24.7807527 0.0250000954
v 18.2691534 24.7743922 0.0329999924
v 18.2677239 24.7762552 0.0273432732
v 18.2642729 24.7807527 4.99499989
v 18.2691534 24.7743922 4.98699999
v 18.2677239 24.7762552 4.99265671
v 18.2259905 24.7551733 0.0250000954
v 18.2299992 24.7482303 0.0329999924
v 18.2288251 24.7502639 0.0273432732
v 18.2259905 24.7551733 4.99499989
v 18.2299992 24.7482303 4.98699999
v 18.2288251 24.7502639 4.99265671
v 18.1846974 24.7348098 0.0250000954
v 18.1877653 24.7274028 0.0329999924
v 18.1868667 24.7295723 0.0273432732
v 18.1846974 24.7348098 4.99499989
v 18.1877653 24.7274028 4.98699999
v 18.1868667 24.7295723 4.99265671
v 18.1410991 24.7200102 0.0250000954
v 18.1431741 24.7122661 0.0329999924
v 18.1425664 24.7145343 0.0273432732
v 18.1410991 24.7200102 4.99499989
v 18.1431741 24.7122661 4.98699999
v 18.1425664 24.7145343 4.99265671
v 18.0959422 24.7110279 0.0250000954
v 18.0969887 24.7030793 0.0329999924
v 18.0966822 24.7054074 0.0273432732
v 18.0959422 24.7110279 4.99499989
v 18.0969887 24.7030793 4.98699999
v 18.0966822 24.7054074 4.99265671
v 18.0499992 24.7080166 0.0250000954
v 18.0499992 24.6999995 0.0329999924
v 18.0499992 24.7023476 0.0273432732
v 18.0499992 24.7080166 4.99499989
v 18.0499992 24.6999995 4.98699999
v 18.0499992 24.7023476 4.99265671
v 18.0040563 24.7110279 0.0250000954
v 18.0030098 24.7030793 0.0329999924
v 18.0033163 24.7054074 0.0273432732
v 18.0040563 24.7110279 4.99499989
v 18.0030098 24.7030793 4.98699999
v 18.0033163 24.7054074 4.99265671
v 17.9588994 24.7200102 0.0250000954
v 17.9568244 24.7122661 0.0329999924
v 17.9574321 24.7145343 0.0273432732
v 17.9588994 24.7200102 4.99499989
v 17.9568244 24.7122661 4.98699999
v 17.9574321 24.7145343 4.99265671
v 17.9153011 24.7348098 0.0250000954
v 17.9122332 24.7274028 0.0329999924
v 17.9131318 24.7295723 0.0273432732
v 17.9153011 24.7348098 4.99499989
v 17.9122332 24.7274028 4.98699999
v 17.9131318 24.7295723 4.99265671
v 17.8740079 24.7551733 0.0250000954
v 17.8699992 24.7482303 0.0329999924
v 17.8711734 24.7502639 0.0273432732
v 17.8740079 24.7551733 4.99499989
v 17.8699992 24.7482303 4.98699999
v 17.8711734 24.7502639 4.99265671
v 17.8357256 24.7807527 0.0250000954
v 17.8308451 24.7743922 0.0329999924
v 17.8322746 24.7762552 0.0273432732
v 17.8357256 24.7807527 4.99499989
v 17.8308451 24.7743922 4.98699999
v 17.8322746 24.7762552 4.99265671
v 17.8011098 24.81111 0.0250000954
v 17.7954408 24.805441 0.0329999924
v 17.7971012 24.8071014 0.0273432732
v 17.8011098 24.81111 4.99499989
v 17.7954408 24.805441 4.98699999
v 17.7971012 24.8071014 4.99265671
v 17.7707525 24.8457258 0.0250000954
v 17.764392 24.8408453 0.0329999924
v 17.766255 24.8422748 0.0273432732
v 17.7707525 24.8457258 4.99499989
v 17.764392 24.8408453 4.98699999
v 17.766255 24.8422748 4.99265671
v 17.7451731 24.8840082 0.0250000954
v 17.7382301 24.8799995 0.0329999924
v 17.7402636 24.8811736 0.0273432732
v 17.7451731 24.8840082 4.99499989
v 17.7382301 24.8799995 4.98699999
v 17.7402636 24.8811736 4.99265671
v 17.7248096 24.9253013 0.0250000954
v 17.7174026 24.9222334 0.0329999924
v 17.7195721 24.923132 0.0273432732
v 17.7248096 24.9253013 4.99499989
v 17.7174026 24.9222334 4.98699999
v 17.7195721 24.923132 4.99265671
v 17.7100099 24.9688996 0.0250000954
v 17.7022659 24.9668246 0.0329999924
v 17.7045341 24.9674323 0.0273432732
v 17.7100099 24.9688996 4.99499989
v 17.7022659 24.9668246 4.98699999
v 17.7045341 24.9674323 4.99265671
v 17.7010276 25.0140565 0.0250000954
v 17.6930791 25.01301 0.0329999924
v 17.6954071 25.0133165 0.0273432732
v 17.7010276 25.0140565 4.99499989
v 17.6930791 25.01301 4.98699999
v 17.6954071 25.0133165 4.99265671
v 17.6980164 25.0599995 0.0250000954
v 17.6899992 25.0599995 0.0329999924
v 17.6923474 25.0599995 0.0273432732
v 17.6980164 25.0599995 4.99499989
v 17.6899992 25.0599995 4.98699999
v 17.6923474 25.0599995 4.99265671
v 17.7010276 25.1059424 0.0250000954
v 17.6930791 25.1069889 0.0329999924
v 17.6954071 25.1066824 0.0273432732
v 17.7010276 25.1059424 4.99499989
v 17.6930791 25.1069889 4.98699999
v 17.6954071 25.1066824 4.99265671
v 17.7100099 25.1510993 0.0250000954
v 17.7022659 25.1531743 0.0329999924
v 17.7045341 25.1525666 0.0273432732
v 17.7100099 25.1510993 4.99499989
v 17.7022659 25.1531743 4.98699999
v 17.7045341 25.1525666 4.99265671
v 17.7248096 25.1946976 0.0250000954
v 17.7174026 25.1977655 0.0329999924
v 17.7195721 25.1968669 0.0273432732
v 17.7248096 25.1946976 4.99499989
v 17.7174026 25.1977655 4.98699999
v 17.7195721 25.1968669 4.99265671
v 17.7451731 25.2359908 0.0250000954
v 17.7382301 25.2399995 0.0329999924
v 17.7402636 25.2388254 0.0273432732
v 17.7451731 25.2359908 4.99499989
v 17.7382301 25.2399995 4.98699999
v 17.7402636 25.2388254 4.99265671
v 17.7707525 25.2742731 0.0250000954
v 17.764392 25.2791536 0.0329999924
v 17.766255 25.2777241 0.0273432732
v 17.7707525 25.2742731 4.99499989
v 17.764392 25.2791536 4.98699999
v 17.766255 25.2777241 4.99265671
v 17.8011098 25.3088889 0.0250000954
v 17.7954408 25.3145579 0.0329999924
v 17.7971012 25.3128975 0.0273432732
v 17.8011098 25.3088889 4.99499989
v 17.7954408 25.3145579 4.98699999
v 17.7971012 25.3128975 4.99265671
v 17.8357256 25.3392462 0.0250000954
v 17.8308451 25.3456067 0.0329999924
v 17.8322746 25.3437437 0.0273432732
v 17.8357256 25.3392462 4.99499989
v 17.8308451 25.3456067 4.98699999
v 17.8322746 25.3437437 4.99265671
v 17.8740079 25.3648256 0.0250000954
v 17.8699992 25.3717686 0.0329999924
v 17.8711734 25.3697351 0.0273432732
v 17.8740079 25.3648256 4.99499989
v 17.8699992 25.3717686 4.98699999
v 17.8711734 25.3697351 4.99265671
v 17.9153011 25.3851891 0.0250000954
v 17.9122332 25.3925961 0.0329999924
v 17.9131318 25.3904266 0.0273432732
v 17.9153011 25.3851891 4.99499989
v 17.9122332 25.3925961 4.98699999
v 17.9131318 25.3904266 4.99265671
v 17.9588994 25.3999888 0.0250000954
v 17.9568244 25.4077328 0.0329999924
v 17.9574321 25.4054646 0.0273432732
v 17.9588994 25.3999888 4.99499989
v 17.9568244 25.4077328 4.98699999
v 17.9574321 25.4054646 4.99265671
v 18.0040563 25.4089711 0.0250000954
v 18.0030098 25.4169196 0.0329999924
v 18.0033163 25.4145916 0.0273432732
v 18.0040563 25.4089711 4.99499989
v 18.0030098 25.4169196 4.98699999
v 18.0033163 25.4145916 4.99265671
f 1 2 4
f 1 4 3
f 3 4 8
f 3 8 7
f 7 8 6
f 7 6 5
f 5 6 2
f 5 2 1
f 3 7 5
f 3 5 1
f 8 4 2
f 8 2 6
f 10 16 17
f 10 17 11
f 11 17 15
f 11 15 9
f 19 13 14
f 19 14 20
f 20 14 12
f 20 12 18
f 16 22 23
f 16 23 17
f 17 23 21
f 17 21 15
f 25 19 20
f 25 20 26
f 26 20 18
f 26 18 24
f 22 28 29
f 22 29 23
f 23 29 27
f 23 27 21
f 31 25 26
f 31 26 32
f 32 26 24
f 32 24 30
f 28 34 35
f 28 35 29
f 29 35 33
f 29 33 27
f 37 31 32
f 37 32 38
f 38 32 30
f 38 30 36
f 34 40 41
f 34 41 35
f 35 41 39
f 35 39 33
f 43 37 38
f 43 38 44
f 44 38 36
f 44 36 42
f 40 46 47
f 40 47 41
f 41 47 45
f 41 45 39
f 49 43 44
f 49 44 50
f 50 44 42
f 50 42 48
f 46 52 53
f 46 53 47
f 47 53 51
f 47 51 45
f 55 49 50
f 55 50 56
f 56 50 48
f 56 48 54
f 52 58 59
f 52 59 53
f 53 59 57
f 53 57 51
f 61 55 56
f 61 56 62
f 62 56 54
f 62 54 60
f 58 64 65
f 58 65 59
f 59 65 63
f 59 63 57
f 67 61 62
f 67 62 68
f 68 62 60
f 68 60 66
f 64 70 71
f 64 71 65
f 65 71 69
f 65 69 63
f 73 67 68
f 73 68 74
f 74 68 66
f 74 66 72
f 70 76 77
f 70 77 71
f 71 77 75
f 71 75 69
f 79 73 74
f 79 74 80
f 80 74 72
f 80 72 78
f 76 82 83
f 76 83 77
f 77 83 81
f 77 81 75
f 85 79 80
f 85 80 86
f 86 80 78
f 86 78 84
f 82 88 89
f 82 89 83
f 83 89 87
f 83 87 81
f 91 85 86
f 91 86 92
f 92 86 84
f 92 84 90
f 88 94 95
f 88 95 89
f 89 95 93
f 89 93 87
f 97 91 92
f 97 92 98
f 98 92 90
f 98 90 96
f 94 100 101
f 94 101 95
f 95 101 99
f 95 99 93
f 103 97 98
f 103 98 104
f 104 98 96
f 104 96 102
f 100 106 107
f 100 107 101
f 101 107 105
f 101 105 99
f 109 103 104
f 109 104 110
f 110 104 102
f 110 102 108
f 106 112 113
f 106 113 107
f 107 113 111
f 107 111 105
f 115 109 110
f 115 110 116
f 116 110 108
f 116 108 114
f 112 118 119
f 112 119 113
f 113 119 117
f 113 117 111
f 121 115 116
f 121 116 122
f 122 116 114
f 122 114 120
f 118 124 125
f 118 125 119
f 119 125 123
f 119 123 117
f 127 121 122
f 127 122 128
f 128 122 120
f 128 120 126
f 124 130 131
f 124 131 125
f 125 131 129
f 125 129 123
f 133 127 128
f 133 128 134
f 134 128 126
f 134 126 132
f 130 136 137
f 130 137 131
f 131 137 135
f 131 135 129
f 139 133 134
f 139 134 140
f 140 134 132
f 140 132 138
f 136 142 143
f 136 143 137
f 137 143 141
f 137 141 135
f 145 139 140
f 145 140 146
f 146 140 138
f 146 138 144
f 142 148 149
f 142 149 143
f 143 149 147
f 143 147 141
f 151 145 146
f 151 146 152
f 152 146 144
f 152 144 150
f 148 154 155
f 148 155 149
f 149 155 153
f 149 153 147
f 157 151 152
f 157 152 158
f 158 152 150
f 158 150 156
f 154 160 161
f 154 161 155
f 155 161 159
f 155 159 153
f 163 157 158
f 163 158 164
f 164 158 156
f 164 156 162
f 160 166 167
f 160 167 161
f 161 167 165
f 161 165 159
f 169 163 164
f 169 164 170
f 170 164 162
f 170 162 168
f 166 172 173
f 166 173 167
f 167 173 171
f 167 171 165
f 175 169 170
f 175 170 176
f 176 170 168
f 176 168 174
f 172 178 179
f 172 179 173
f 173 179 177
f 173 177 171
f 181 175 176
f 181 176 182
f 182 176 174
f 182 174 180
f 178 184 185
f 178 185 179
f 179 185 183
f 179 183 177
f 187 181 182
f 187 182 188
f 188 182 180
f 188 180 186
f 184 190 191
f 184 191 185
f 185 191 189
f 185 189 183
f 193 187 188
f 193 188 194
f 194 188 186
f 194 186 192
f 190 196 197
f 190 197 191
f 191 197 195
f 191 195 189
f 199 193 194
f 199 194 200
f 200 194 192
f 200 192 198
f 196 202 203
f 196 203 197
f 197 203 201
f 197 201 195
f 205 199 200
f 205 200 206
f 206 200 198
f 206 198 204
f 202 208 209
f 202 209 203
f 203 209 207
f 203 207 201
f 211 205 206
f 211 206 212
f 212 206 204
f 212 204 210
f 208 214 215
f 208 215 209
f 209 215 213
f 209 213 207
f 217 211 212
f 217 212 218
f 218 212 210
f 218 210 216
f 214 220 221
f 214 221 215
f 215 221 219
f 215 219 213
f 223 217 218
f 223 218 224
f 224 218 216
f 224 216 222
f 220 226 227
f 220 227 221
f 221 227 225
f 221 225 219
f 229 223 224
f 229 224 230
f 230 224 222
f 230 222 228
f 226 232 233
f 226 233 227
f 227 233 231
f 227 231 225
f 235 229 230
f 235 230 236
f 236 230 228
f 236 228 234
f 232 238 239
f 232 239 233
f 233 239 237
f 233 237 231
f 241 235 236
f 241 236 242
f 242 236 234
f 242 234 240
f 238 244 245
f 238 245 239
f 239 245 243
f 239 243 237
f 247 241 242
f 247 242 248
f 248 242 240
f 248 240 246
f 244 250 251
f 244 251 245
f 245 251 249
f 245 249 243
f 253 247 248
f 253 248 254
f 254 248 246
f 254 246 252
f 250 256 257
f 250 257 251
f 251 257 255
f 251 255 249
f 259 253 254
f 259 254 260
f 260 254 252
f 260 252 258
f 256 262 263
f 256 263 257
f 257 263 261
f 257 261 255
f 265 259 260
f 265 260 266
f 266 260 258
f 266 258 264
f 262 268 269
f 262 269 263
f 263 269 267
f 263 267 261
f 271 265 266
f 271 266 272
f 272 266 264
f 272 264 270
f 268 274 275
f 268 275 269
f 269 275 273
f 269 273 267
f 277 271 272
f 277 272 278
f 278 272 270
f 278 270 276
f 274 280 281
f 274 281 275
f 275 281 279
f 275 279 273
f 283 277 278
f 283 278 284
f 284 278 276
f 284 276 282
f 280 286 287
f 280 287 281
f 281 287 285
f 281 285 279
f 289 283 284
f 289 284 290
f 290 284 282
f 290 282 288
f 286 292 293
f 286 293 287
f 287 293 291
f 287 291 285
f 295 289 290
f 295 290 296
f 296 290 288
f 296 288 294
f 292 10 11
f 292 11 293
f 293 11 9
f 293 9 291
f 13 295 296
f 13 296 14
f 14 296 294
f 14 294 12
f 291 9 15
f 15 21 27
f 27 33 39
f 39 45 51
f 51 57 63
f 63 69 75
f 75 81 87
f 87 93 99
f 99 105 111
f 111 117 123
f 123 129 135
f 135 141 147
f 147 153 159
f 159 165 171
f 171 177 183
f 183 189 195
f 195 201 207
f 207 213 219
f 219 225 231
f 231 237 243
f 243 249 255
f 255 261 267
f 267 273 279
f 279 285 291
f 291 15 27
f 27 39 51
f 51 63 75
f 75 87 99
f 99 111 123
f 123 135 147
f 147 159 171
f 171 183 195
f 195 207 219
f 219 231 243
f 243 255 267
f 267 279 291
f 291 27 51
f 51 75 99
f 99 123 147
f 147 171 195
f 195 219 243
f 243 267 291
f 291 51 99
f 99 147 195
f 195 243 291
f 99 195 291
f 10 13 19
f 10 19 16
f 292 295 13
f 292 13 10
f 24 18 12
f 12 294 288
f 288 282 276
f 276 270 264
f 264 258 252
f 252 246 240
f 240 234 228
f 228 222 216
f 216 210 204
f 204 198 192
f 192 186 180
f 180 174 168
f 168 162 156
f 156 150 144
f 144 138 132
f 132 126 120
f 120 114 108
f 108 102 96
f 96 90 84
f 84 78 72
f 72 66 60
f 60 54 48
f 48 42 36
f 36 30 24
f 24 12 288
f 288 276 264
f 264 252 240
f 240 228 216
f 216 204 192
f 192 180 168
f 168 156 144
f 144 132 120
f 120 108 96
f 96 84 72
f 72 60 48
f 48 36 24
f 24 288 264
f 264 240 216
f 216 192 168
f 168 144 120
f 120 96 72
f 72 48 24
f 24 264 216
f 216 168 120
f 120 72 24
f 216 120 24
f 16 19 25
f 16 25 22
f 22 25 31
f 22 31 28
f 28 31 37
f 28 37 34
f 34 37 43
f 34 43 40
f 40 43 49
f 40 49 46
f 46 49 55
f 46 55 52
f 52 55 61
f 52 61 58
f 58 61 67
f 58 67 64
f 64 67 73
f 64 73 70
f 70 73 79
f 70 79 76
f 76 79 85
f 76 85 82
f 82 85 91
f 82 91 88
f 88 91 97
f 88 97 94
f 94 97 103
f 94 103 100
f 100 103 109
f 100 109 106
f 106 109 115
f 106 115 112
f 112 115 121
f 112 121 118
f 118 121 127
f 118 127 124
f 124 127 133
f 124 133 130
f 130 133 139
f 130 139 136
f 136 139 145
f 136 145 142
f 142 145 151
f 142 151 148
f 148 151 157
f 148 157 154
f 154 157 163
f 154 163 160
f 160 163 169
f 160 169 166
f 166 169 175
f 166 175 172
f 172 175 181
f 172 181 178
f 178 181 187
f 178 187 184
f 184 187 193
f 184 193 190
f 190 193 199
f 190 199 196
f 196 199 205
f 196 205 202
f 202 205 211
f 202 211 208
f 208 211 217
f 208 217 214
f 214 217 223
f 214 223 220
f 220 223 229
f 220 229 226
f 226 229 235
f 226 235 232
f 232 235 241
f 232 241 238
f 238 241 247
f 238 247 244
f 244 247 253
f 244 253 250
f 250 253 259
f 250 259 256
f 256 259 265
f 256 265 262
f 262 265 271
f 262 271 268
f 268 271 277
f 268 277 274
f 274 277 283
f 274 283 280
f 280 283 289
f 280 289 286
f 286 289 295
f 286 295 292
